  0
SECTION
  2
HEADER
  9
$ACADVER
  1
AC1009
  9
$INSBASE
 10
0.0
 20
0.0
 30
0.0
  9
$EXTMIN
 10
0.0
 20
0.0
 30
0.0
  9
$EXTMAX
 10
0.0
 20
0.0
 30
0.0
  0
ENDSEC
  0
SECTION
  2
TABLES
  0
TABLE
  2
VPORT
 70
0
  0
ENDTAB
  0
TABLE
  2
LTYPE
 70
1
  0
LTYPE
  2
CONTINUOUS
 70
0
  3
Solid line
 72
65
 73
0
 40
0.0
  0
ENDTAB
  0
TABLE
  2
LAYER
 70
1
  0
LAYER
  2
0
 70
64
 62
7
  6
continuous
  0
ENDTAB
  0
TABLE
  2
STYLE
 70
1
  0
STYLE
  2
STANDARD
 70
0
 40
0
 41
1.0
 50
0.0
 71
0
 42
1
 3
ARIAL.TTF
 4

  0
ENDTAB
  0
TABLE
  2
VIEW
 70
0
  0
ENDTAB
  0
ENDSEC
  0
SECTION
  2
BLOCKS
  0
BLOCK
  8
0
  2
POCKET
 70
0
 10
0.0
 20
0.0
 30
0.0
  3
POCKET
  0
LINE
  8
0
 62
0
 10
250.0
 20
2.84217094304e-14
 30
0.0
 11
275.0
 21
2.84217094304e-14
 31
0.0
  0
LINE
  8
0
 62
0
 10
275.0
 20
2.6645352591e-14
 30
0.0
 11
275.0
 21
-6.0
 31
0.0
  0
LINE
  8
0
 62
0
 10
300.0
 20
250.0
 30
0.0
 11
275.0
 21
250.0
 31
0.0
  0
LINE
  8
0
 62
0
 10
300.0
 20
250.0
 30
0.0
 11
300.0
 21
225.2
 31
0.0
  0
LINE
  8
0
 62
0
 10
275.0
 20
256.0
 30
0.0
 11
275.0
 21
250.0
 31
0.0
  0
LINE
  8
0
 62
0
 10
293.8
 20
225.2
 30
0.0
 11
300.0
 21
225.2
 31
0.0
  0
LINE
  8
0
 62
0
 10
250.0
 20
256.0
 30
0.0
 11
275.0
 21
256.0
 31
0.0
  0
ARC
  8
0
 62
0
 10
293.8
 20
222.1
 30
0.0
 40
3.1
 50
90.0
 51
-90.0
  0
LINE
  8
0
 62
0
 10
250.0
 20
256.0
 30
0.0
 11
250.0
 21
250.0
 31
0.0
  0
LINE
  8
0
 62
0
 10
300.0
 20
219.0
 30
0.0
 11
293.8
 21
219.0
 31
0.0
  0
LINE
  8
0
 62
0
 10
250.0
 20
250.0
 30
0.0
 11
225.0
 21
250.0
 31
0.0
  0
LINE
  8
0
 62
0
 10
300.0
 20
219.0
 30
0.0
 11
300.0
 21
31.0
 31
0.0
  0
LINE
  8
0
 62
0
 10
225.0
 20
256.0
 30
0.0
 11
225.0
 21
250.0
 31
0.0
  0
LINE
  8
0
 62
0
 10
293.8
 20
31.0
 30
0.0
 11
300.0
 21
31.0
 31
0.0
  0
LINE
  8
0
 62
0
 10
200.0
 20
256.0
 30
0.0
 11
225.0
 21
256.0
 31
0.0
  0
ARC
  8
0
 62
0
 10
293.8
 20
27.9
 30
0.0
 40
3.1
 50
90.0
 51
-90.0
  0
LINE
  8
0
 62
0
 10
200.0
 20
256.0
 30
0.0
 11
200.0
 21
250.0
 31
0.0
  0
LINE
  8
0
 62
0
 10
300.0
 20
24.8
 30
0.0
 11
293.8
 21
24.8
 31
0.0
  0
LINE
  8
0
 62
0
 10
200.0
 20
250.0
 30
0.0
 11
175.0
 21
250.0
 31
0.0
  0
LINE
  8
0
 62
0
 10
300.0
 20
-6.0
 30
0.0
 11
300.0
 21
24.8
 31
0.0
  0
LINE
  8
0
 62
0
 10
175.0
 20
256.0
 30
0.0
 11
175.0
 21
250.0
 31
0.0
  0
LINE
  8
0
 62
0
 10
275.0
 20
-6.0
 30
0.0
 11
300.0
 21
-6.0
 31
0.0
  0
LINE
  8
0
 62
0
 10
150.0
 20
256.0
 30
0.0
 11
175.0
 21
256.0
 31
0.0
  0
LINE
  8
0
 62
0
 10
150.0
 20
256.0
 30
0.0
 11
150.0
 21
250.0
 31
0.0
  0
LINE
  8
0
 62
0
 10
150.0
 20
250.0
 30
0.0
 11
125.0
 21
250.0
 31
0.0
  0
LINE
  8
0
 62
0
 10
250.0
 20
2.6645352591e-14
 30
0.0
 11
250.0
 21
-6.0
 31
0.0
  0
LINE
  8
0
 62
0
 10
125.0
 20
256.0
 30
0.0
 11
125.0
 21
250.0
 31
0.0
  0
LINE
  8
0
 62
0
 10
225.0
 20
-6.0
 30
0.0
 11
250.0
 21
-6.0
 31
0.0
  0
LINE
  8
0
 62
0
 10
100.0
 20
256.0
 30
0.0
 11
125.0
 21
256.0
 31
0.0
  0
LINE
  8
0
 62
0
 10
225.0
 20
2.6645352591e-14
 30
0.0
 11
225.0
 21
-6.0
 31
0.0
  0
LINE
  8
0
 62
0
 10
100.0
 20
256.0
 30
0.0
 11
100.0
 21
250.0
 31
0.0
  0
LINE
  8
0
 62
0
 10
200.0
 20
2.84217094304e-14
 30
0.0
 11
225.0
 21
2.84217094304e-14
 31
0.0
  0
LINE
  8
0
 62
0
 10
100.0
 20
250.0
 30
0.0
 11
75.0
 21
250.0
 31
0.0
  0
LINE
  8
0
 62
0
 10
200.0
 20
2.6645352591e-14
 30
0.0
 11
200.0
 21
-6.0
 31
0.0
  0
LINE
  8
0
 62
0
 10
75.0
 20
256.0
 30
0.0
 11
75.0
 21
250.0
 31
0.0
  0
LINE
  8
0
 62
0
 10
175.0
 20
-6.0
 30
0.0
 11
200.0
 21
-6.0
 31
0.0
  0
LINE
  8
0
 62
0
 10
50.0
 20
256.0
 30
0.0
 11
75.0
 21
256.0
 31
0.0
  0
LINE
  8
0
 62
0
 10
175.0
 20
2.6645352591e-14
 30
0.0
 11
175.0
 21
-6.0
 31
0.0
  0
LINE
  8
0
 62
0
 10
50.0
 20
256.0
 30
0.0
 11
50.0
 21
250.0
 31
0.0
  0
LINE
  8
0
 62
0
 10
150.0
 20
2.84217094304e-14
 30
0.0
 11
175.0
 21
2.84217094304e-14
 31
0.0
  0
LINE
  8
0
 62
0
 10
50.0
 20
250.0
 30
0.0
 11
25.0
 21
250.0
 31
0.0
  0
LINE
  8
0
 62
0
 10
150.0
 20
2.6645352591e-14
 30
0.0
 11
150.0
 21
-6.0
 31
0.0
  0
LINE
  8
0
 62
0
 10
25.0
 20
256.0
 30
0.0
 11
25.0
 21
250.0
 31
0.0
  0
LINE
  8
0
 62
0
 10
125.0
 20
-6.0
 30
0.0
 11
150.0
 21
-6.0
 31
0.0
  0
LINE
  8
0
 62
0
 10
-6.66133814775e-16
 20
256.0
 30
0.0
 11
25.0
 21
256.0
 31
0.0
  0
LINE
  8
0
 62
0
 10
125.0
 20
2.6645352591e-14
 30
0.0
 11
125.0
 21
-6.0
 31
0.0
  0
LINE
  8
0
 62
0
 10
-6.66133814775e-16
 20
256.0
 30
0.0
 11
2.75335310107e-15
 21
225.2
 31
0.0
  0
LINE
  8
0
 62
0
 10
100.0
 20
2.84217094304e-14
 30
0.0
 11
125.0
 21
2.84217094304e-14
 31
0.0
  0
LINE
  8
0
 62
0
 10
6.2
 20
225.2
 30
0.0
 11
4.4408920985e-15
 21
225.2
 31
0.0
  0
LINE
  8
0
 62
0
 10
100.0
 20
2.6645352591e-14
 30
0.0
 11
100.0
 21
-6.0
 31
0.0
  0
ARC
  8
0
 62
0
 10
6.2
 20
222.1
 30
0.0
 40
3.1
 50
-90.0
 51
90.0
  0
LINE
  8
0
 62
0
 10
75.0
 20
-6.0
 30
0.0
 11
100.0
 21
-6.0
 31
0.0
  0
LINE
  8
0
 62
0
 10
6.10622663544e-15
 20
219.0
 30
0.0
 11
6.2
 21
219.0
 31
0.0
  0
LINE
  8
0
 62
0
 10
75.0
 20
2.6645352591e-14
 30
0.0
 11
75.0
 21
-6.0
 31
0.0
  0
LINE
  8
0
 62
0
 10
5.82174508651e-15
 20
219.0
 30
0.0
 11
6.2998663899e-13
 21
31.0
 31
0.0
  0
LINE
  8
0
 62
0
 10
50.0
 20
2.84217094304e-14
 30
0.0
 11
75.0
 21
2.84217094304e-14
 31
0.0
  0
LINE
  8
0
 62
0
 10
2.69784194984e-14
 20
31.0
 30
0.0
 11
6.2
 21
31.0
 31
0.0
  0
LINE
  8
0
 62
0
 10
50.0
 20
2.6645352591e-14
 30
0.0
 11
50.0
 21
-6.0
 31
0.0
  0
ARC
  8
0
 62
0
 10
6.2
 20
27.9
 30
0.0
 40
3.1
 50
-90.0
 51
90.0
  0
LINE
  8
0
 62
0
 10
25.0
 20
-6.0
 30
0.0
 11
50.0
 21
-6.0
 31
0.0
  0
LINE
  8
0
 62
0
 10
6.2
 20
24.8
 30
0.0
 11
2.6645352591e-14
 21
24.8
 31
0.0
  0
LINE
  8
0
 62
0
 10
25.0
 20
2.6645352591e-14
 30
0.0
 11
25.0
 21
-6.0
 31
0.0
  0
LINE
  8
0
 62
0
 10
2.76667577737e-14
 20
24.8
 30
0.0
 11
3.04201108747e-14
 21
3.90798504668e-14
 31
0.0
  0
LINE
  8
0
 62
0
 10
3.04201108747e-14
 20
2.84217094304e-14
 30
0.0
 11
25.0
 21
2.84217094304e-14
 31
0.0
  0
CIRCLE
  8
0
 62
0
 10
12.0
 20
216.0
 30
0.0
 40
2.0
  0
CIRCLE
  8
0
 62
0
 10
240.362371029
 20
66.0002079387
 30
0.0
 40
2.5
  0
CIRCLE
  8
0
 62
0
 10
284.0
 20
216.0
 30
0.0
 40
2.0
  0
CIRCLE
  8
0
 62
0
 10
264.0
 20
216.0
 30
0.0
 40
2.0
  0
CIRCLE
  8
0
 62
0
 10
240.1436798
 20
181.0
 30
0.0
 40
2.5
  0
CIRCLE
  8
0
 62
0
 10
190.0
 20
124.0
 30
0.0
 40
65.0
  0
CIRCLE
  8
0
 62
0
 10
125.1436798
 20
181.0
 30
0.0
 40
2.5
  0
CIRCLE
  8
0
 62
0
 10
125.362371029
 20
66.0002079387
 30
0.0
 40
2.5
  0
CIRCLE
  8
0
 62
0
 10
45.0
 20
194.0
 30
0.0
 40
2.0
  0
CIRCLE
  8
0
 62
0
 10
45.0
 20
137.0
 30
0.0
 40
2.0
  0
CIRCLE
  8
0
 62
0
 10
264.0
 20
34.0
 30
0.0
 40
2.0
  0
CIRCLE
  8
0
 62
0
 10
284.0
 20
34.0
 30
0.0
 40
2.0
  0
LINE
  8
0
 62
0
 10
103.0
 20
40.0
 30
0.0
 11
53.0
 21
40.0
 31
0.0
  0
LINE
  8
0
 62
0
 10
53.0
 20
40.0
 30
0.0
 11
53.0
 21
36.0
 31
0.0
  0
LINE
  8
0
 62
0
 10
53.0
 20
36.0
 30
0.0
 11
103.0
 21
36.0
 31
0.0
  0
LINE
  8
0
 62
0
 10
103.0
 20
36.0
 30
0.0
 11
103.0
 21
40.0
 31
0.0
  0
CIRCLE
  8
0
 62
0
 10
12.0
 20
34.0
 30
0.0
 40
2.0
  0
ENDBLK
  0
ENDSEC
  0
SECTION
  2
ENTITIES
  0
INSERT
  2
POCKET
  8
0
 10
0.0
 20
0.0
 30
0.0
  0
ENDSEC
  0
EOF
