  0
SECTION
  2
HEADER
  9
$ACADVER
  1
AC1009
  9
$INSBASE
 10
0.0
 20
0.0
 30
0.0
  9
$EXTMIN
 10
0.0
 20
0.0
 30
0.0
  9
$EXTMAX
 10
0.0
 20
0.0
 30
0.0
  0
ENDSEC
  0
SECTION
  2
TABLES
  0
TABLE
  2
VPORT
 70
0
  0
ENDTAB
  0
TABLE
  2
LTYPE
 70
1
  0
LTYPE
  2
CONTINUOUS
 70
0
  3
Solid line
 72
65
 73
0
 40
0.0
  0
ENDTAB
  0
TABLE
  2
LAYER
 70
1
  0
LAYER
  2
0
 70
64
 62
7
  6
continuous
  0
ENDTAB
  0
TABLE
  2
STYLE
 70
1
  0
STYLE
  2
STANDARD
 70
0
 40
0
 41
1.0
 50
0.0
 71
0
 42
1
 3
ARIAL.TTF
 4

  0
ENDTAB
  0
TABLE
  2
VIEW
 70
0
  0
ENDTAB
  0
ENDSEC
  0
SECTION
  2
BLOCKS
  0
BLOCK
  8
0
  2
POCKET
 70
0
 10
0.0
 20
0.0
 30
0.0
  3
POCKET
  0
LINE
  8
0
 62
0
 10
250.0
 20
-250.0
 30
0.0
 11
250.0
 21
-275.0
 31
0.0
  0
LINE
  8
0
 62
0
 10
0.0
 20
-300.0
 30
0.0
 11
0.0
 21
-275.0
 31
0.0
  0
LINE
  8
0
 62
0
 10
0.0
 20
-300.0
 30
0.0
 11
24.8
 21
-300.0
 31
0.0
  0
LINE
  8
0
 62
0
 10
-6.0
 20
-275.0
 30
0.0
 11
-8.881784197e-16
 21
-275.0
 31
0.0
  0
LINE
  8
0
 62
0
 10
24.8
 20
-293.8
 30
0.0
 11
24.8
 21
-300.0
 31
0.0
  0
LINE
  8
0
 62
0
 10
-6.0
 20
-250.0
 30
0.0
 11
-6.0
 21
-275.0
 31
0.0
  0
ARC
  8
0
 62
0
 10
27.9
 20
-293.8
 30
0.0
 40
3.1
 50
180.0
 51
0.0
  0
LINE
  8
0
 62
0
 10
-6.0
 20
-250.0
 30
0.0
 11
-8.881784197e-16
 21
-250.0
 31
0.0
  0
LINE
  8
0
 62
0
 10
31.0
 20
-300.0
 30
0.0
 11
31.0
 21
-293.8
 31
0.0
  0
LINE
  8
0
 62
0
 10
0.0
 20
-250.0
 30
0.0
 11
0.0
 21
-225.0
 31
0.0
  0
LINE
  8
0
 62
0
 10
31.0
 20
-300.0
 30
0.0
 11
219.0
 21
-300.0
 31
0.0
  0
LINE
  8
0
 62
0
 10
-6.0
 20
-225.0
 30
0.0
 11
-8.881784197e-16
 21
-225.0
 31
0.0
  0
LINE
  8
0
 62
0
 10
219.0
 20
-293.8
 30
0.0
 11
219.0
 21
-300.0
 31
0.0
  0
LINE
  8
0
 62
0
 10
-6.0
 20
-200.0
 30
0.0
 11
-6.0
 21
-225.0
 31
0.0
  0
ARC
  8
0
 62
0
 10
222.1
 20
-293.8
 30
0.0
 40
3.1
 50
-180.0
 51
-0.0
  0
LINE
  8
0
 62
0
 10
-6.0
 20
-200.0
 30
0.0
 11
-8.881784197e-16
 21
-200.0
 31
0.0
  0
LINE
  8
0
 62
0
 10
225.2
 20
-300.0
 30
0.0
 11
225.2
 21
-293.8
 31
0.0
  0
LINE
  8
0
 62
0
 10
0.0
 20
-200.0
 30
0.0
 11
0.0
 21
-175.0
 31
0.0
  0
LINE
  8
0
 62
0
 10
225.2
 20
-300.0
 30
0.0
 11
256.0
 21
-300.0
 31
0.0
  0
LINE
  8
0
 62
0
 10
-6.0
 20
-175.0
 30
0.0
 11
-8.881784197e-16
 21
-175.0
 31
0.0
  0
LINE
  8
0
 62
0
 10
256.0
 20
-275.0
 30
0.0
 11
256.0
 21
-300.0
 31
0.0
  0
LINE
  8
0
 62
0
 10
-6.0
 20
-150.0
 30
0.0
 11
-6.0
 21
-175.0
 31
0.0
  0
LINE
  8
0
 62
0
 10
250.0
 20
-275.0
 30
0.0
 11
256.0
 21
-275.0
 31
0.0
  0
LINE
  8
0
 62
0
 10
-6.0
 20
-150.0
 30
0.0
 11
-8.881784197e-16
 21
-150.0
 31
0.0
  0
LINE
  8
0
 62
0
 10
0.0
 20
-150.0
 30
0.0
 11
0.0
 21
-125.0
 31
0.0
  0
LINE
  8
0
 62
0
 10
250.0
 20
-250.0
 30
0.0
 11
256.0
 21
-250.0
 31
0.0
  0
LINE
  8
0
 62
0
 10
-6.0
 20
-125.0
 30
0.0
 11
-8.881784197e-16
 21
-125.0
 31
0.0
  0
LINE
  8
0
 62
0
 10
256.0
 20
-225.0
 30
0.0
 11
256.0
 21
-250.0
 31
0.0
  0
LINE
  8
0
 62
0
 10
-6.0
 20
-100.0
 30
0.0
 11
-6.0
 21
-125.0
 31
0.0
  0
LINE
  8
0
 62
0
 10
250.0
 20
-225.0
 30
0.0
 11
256.0
 21
-225.0
 31
0.0
  0
LINE
  8
0
 62
0
 10
-6.0
 20
-100.0
 30
0.0
 11
-8.881784197e-16
 21
-100.0
 31
0.0
  0
LINE
  8
0
 62
0
 10
250.0
 20
-200.0
 30
0.0
 11
250.0
 21
-225.0
 31
0.0
  0
LINE
  8
0
 62
0
 10
0.0
 20
-100.0
 30
0.0
 11
0.0
 21
-75.0
 31
0.0
  0
LINE
  8
0
 62
0
 10
250.0
 20
-200.0
 30
0.0
 11
256.0
 21
-200.0
 31
0.0
  0
LINE
  8
0
 62
0
 10
-6.0
 20
-75.0
 30
0.0
 11
-8.881784197e-16
 21
-75.0
 31
0.0
  0
LINE
  8
0
 62
0
 10
256.0
 20
-175.0
 30
0.0
 11
256.0
 21
-200.0
 31
0.0
  0
LINE
  8
0
 62
0
 10
-6.0
 20
-50.0
 30
0.0
 11
-6.0
 21
-75.0
 31
0.0
  0
LINE
  8
0
 62
0
 10
250.0
 20
-175.0
 30
0.0
 11
256.0
 21
-175.0
 31
0.0
  0
LINE
  8
0
 62
0
 10
-6.0
 20
-50.0
 30
0.0
 11
-8.881784197e-16
 21
-50.0
 31
0.0
  0
LINE
  8
0
 62
0
 10
250.0
 20
-150.0
 30
0.0
 11
250.0
 21
-175.0
 31
0.0
  0
LINE
  8
0
 62
0
 10
0.0
 20
-50.0
 30
0.0
 11
0.0
 21
-25.0
 31
0.0
  0
LINE
  8
0
 62
0
 10
250.0
 20
-150.0
 30
0.0
 11
256.0
 21
-150.0
 31
0.0
  0
LINE
  8
0
 62
0
 10
-6.0
 20
-25.0
 30
0.0
 11
-8.881784197e-16
 21
-25.0
 31
0.0
  0
LINE
  8
0
 62
0
 10
256.0
 20
-125.0
 30
0.0
 11
256.0
 21
-150.0
 31
0.0
  0
LINE
  8
0
 62
0
 10
-6.0
 20
0.0
 30
0.0
 11
-6.0
 21
-25.0
 31
0.0
  0
LINE
  8
0
 62
0
 10
250.0
 20
-125.0
 30
0.0
 11
256.0
 21
-125.0
 31
0.0
  0
LINE
  8
0
 62
0
 10
-6.0
 20
0.0
 30
0.0
 11
24.8
 21
0.0
 31
0.0
  0
LINE
  8
0
 62
0
 10
250.0
 20
-100.0
 30
0.0
 11
250.0
 21
-125.0
 31
0.0
  0
LINE
  8
0
 62
0
 10
24.8
 20
-6.2
 30
0.0
 11
24.8
 21
1.7763568394e-15
 31
0.0
  0
LINE
  8
0
 62
0
 10
250.0
 20
-100.0
 30
0.0
 11
256.0
 21
-100.0
 31
0.0
  0
ARC
  8
0
 62
0
 10
27.9
 20
-6.2
 30
0.0
 40
3.1
 50
0.0
 51
-180.0
  0
LINE
  8
0
 62
0
 10
256.0
 20
-75.0
 30
0.0
 11
256.0
 21
-100.0
 31
0.0
  0
LINE
  8
0
 62
0
 10
31.0
 20
0.0
 30
0.0
 11
31.0
 21
-6.2
 31
0.0
  0
LINE
  8
0
 62
0
 10
250.0
 20
-75.0
 30
0.0
 11
256.0
 21
-75.0
 31
0.0
  0
LINE
  8
0
 62
0
 10
31.0
 20
2.8448154893e-16
 30
0.0
 11
219.0
 21
-6.03008219492e-13
 31
0.0
  0
LINE
  8
0
 62
0
 10
250.0
 20
-50.0
 30
0.0
 11
250.0
 21
-75.0
 31
0.0
  0
LINE
  8
0
 62
0
 10
219.0
 20
0.0
 30
0.0
 11
219.0
 21
-6.2
 31
0.0
  0
LINE
  8
0
 62
0
 10
250.0
 20
-50.0
 30
0.0
 11
256.0
 21
-50.0
 31
0.0
  0
ARC
  8
0
 62
0
 10
222.1
 20
-6.2
 30
0.0
 40
3.1
 50
0.0
 51
180.0
  0
LINE
  8
0
 62
0
 10
256.0
 20
-25.0
 30
0.0
 11
256.0
 21
-50.0
 31
0.0
  0
LINE
  8
0
 62
0
 10
225.2
 20
-6.2
 30
0.0
 11
225.2
 21
1.7763568394e-15
 31
0.0
  0
LINE
  8
0
 62
0
 10
250.0
 20
-25.0
 30
0.0
 11
256.0
 21
-25.0
 31
0.0
  0
LINE
  8
0
 62
0
 10
225.2
 20
0.0
 30
0.0
 11
250.0
 21
0.0
 31
0.0
  0
LINE
  8
0
 62
0
 10
250.0
 20
0.0
 30
0.0
 11
250.0
 21
-25.0
 31
0.0
  0
LINE
  8
0
 62
0
 10
132.5
 20
-80.0
 30
0.0
 11
132.5
 21
-20.0
 31
0.0
  0
LINE
  8
0
 62
0
 10
246.0
 20
-80.0
 30
0.0
 11
132.5
 21
-80.0
 31
0.0
  0
LINE
  8
0
 62
0
 10
246.0
 20
-20.0
 30
0.0
 11
246.0
 21
-80.0
 31
0.0
  0
LINE
  8
0
 62
0
 10
132.5
 20
-20.0
 30
0.0
 11
246.0
 21
-20.0
 31
0.0
  0
LINE
  8
0
 62
0
 10
215.0175
 20
-246.6
 30
0.0
 11
35.0175
 21
-246.6
 31
0.0
  0
LINE
  8
0
 62
0
 10
215.0175
 20
-106.6
 30
0.0
 11
215.0175
 21
-246.6
 31
0.0
  0
LINE
  8
0
 62
0
 10
35.0175
 20
-106.6
 30
0.0
 11
215.0175
 21
-106.6
 31
0.0
  0
LINE
  8
0
 62
0
 10
35.0175
 20
-246.6
 30
0.0
 11
35.0175
 21
-106.6
 31
0.0
  0
CIRCLE
  8
0
 62
0
 10
35.0175
 20
-12.0
 30
0.0
 40
2.0
  0
CIRCLE
  8
0
 62
0
 10
215.0175
 20
-12.0
 30
0.0
 40
2.0
  0
CIRCLE
  8
0
 62
0
 10
215.0175
 20
-284.0
 30
0.0
 40
2.0
  0
CIRCLE
  8
0
 62
0
 10
35.0175
 20
-284.0
 30
0.0
 40
2.0
  0
CIRCLE
  8
0
 62
0
 10
35.0175
 20
-259.0
 30
0.0
 40
2.0
  0
CIRCLE
  8
0
 62
0
 10
215.0175
 20
-259.0
 30
0.0
 40
2.0
  0
ENDBLK
  0
ENDSEC
  0
SECTION
  2
ENTITIES
  0
INSERT
  2
POCKET
  8
0
 10
0.0
 20
0.0
 30
0.0
  0
ENDSEC
  0
EOF
