  0
SECTION
  2
HEADER
  9
$ACADVER
  1
AC1009
  9
$INSBASE
 10
0.0
 20
0.0
 30
0.0
  9
$EXTMIN
 10
0.0
 20
0.0
 30
0.0
  9
$EXTMAX
 10
0.0
 20
0.0
 30
0.0
  0
ENDSEC
  0
SECTION
  2
TABLES
  0
TABLE
  2
VPORT
 70
0
  0
ENDTAB
  0
TABLE
  2
LTYPE
 70
1
  0
LTYPE
  2
CONTINUOUS
 70
0
  3
Solid line
 72
65
 73
0
 40
0.0
  0
ENDTAB
  0
TABLE
  2
LAYER
 70
1
  0
LAYER
  2
0
 70
64
 62
7
  6
continuous
  0
ENDTAB
  0
TABLE
  2
STYLE
 70
1
  0
STYLE
  2
STANDARD
 70
0
 40
0
 41
1.0
 50
0.0
 71
0
 42
1
 3
ARIAL.TTF
 4

  0
ENDTAB
  0
TABLE
  2
VIEW
 70
0
  0
ENDTAB
  0
ENDSEC
  0
SECTION
  2
BLOCKS
  0
BLOCK
  8
0
  2
POCKET
 70
0
 10
0.0
 20
0.0
 30
0.0
  3
POCKET
  0
LINE
  8
0
 62
0
 10
0.0
 20
1.99840144433e-13
 30
0.0
 11
24.8
 21
1.99840144433e-13
 31
0.0
  0
LINE
  8
0
 62
0
 10
-6.0
 20
0.0
 30
0.0
 11
0.0
 21
0.0
 31
0.0
  0
LINE
  8
0
 62
0
 10
24.8
 20
1.95710114781e-13
 30
0.0
 11
31.0
 21
1.95710114781e-13
 31
0.0
  0
LINE
  8
0
 62
0
 10
31.0
 20
1.99840144433e-13
 30
0.0
 11
219.0
 21
1.99840144433e-13
 31
0.0
  0
LINE
  8
0
 62
0
 10
219.0
 20
1.95710114781e-13
 30
0.0
 11
225.2
 21
1.95710114781e-13
 31
0.0
  0
LINE
  8
0
 62
0
 10
225.2
 20
0.0
 30
0.0
 11
256.0
 21
0.0
 31
0.0
  0
LINE
  8
0
 62
0
 10
250.0
 20
0.0
 30
0.0
 11
256.0
 21
0.0
 31
0.0
  0
LINE
  8
0
 62
0
 10
219.0
 20
1.33226762955e-14
 30
0.0
 11
246.0
 21
1.33226762955e-14
 31
0.0
  0
LINE
  8
0
 62
0
 10
0.0
 20
-6.0
 30
0.0
 11
24.8
 21
-6.0
 31
0.0
  0
LINE
  8
0
 62
0
 10
-6.0
 20
-6.0
 30
0.0
 11
0.0
 21
-6.0
 31
0.0
  0
LINE
  8
0
 62
0
 10
24.8
 20
-6.0
 30
0.0
 11
31.0
 21
-6.0
 31
0.0
  0
LINE
  8
0
 62
0
 10
31.0
 20
-6.0
 30
0.0
 11
219.0
 21
-6.0
 31
0.0
  0
LINE
  8
0
 62
0
 10
219.0
 20
-6.0
 30
0.0
 11
225.2
 21
-6.0
 31
0.0
  0
LINE
  8
0
 62
0
 10
256.0
 20
-6.0
 30
0.0
 11
225.2
 21
-6.0
 31
0.0
  0
LINE
  8
0
 62
0
 10
250.0
 20
-6.0
 30
0.0
 11
256.0
 21
-6.0
 31
0.0
  0
LINE
  8
0
 62
0
 10
225.2
 20
-6.0
 30
0.0
 11
219.0
 21
-6.0
 31
0.0
  0
LINE
  8
0
 62
0
 10
215.0175
 20
-5.99999999999
 30
0.0
 11
35.0175
 21
-6.0
 31
0.0
  0
LINE
  8
0
 62
0
 10
225.2
 20
-5.99999999999
 30
0.0
 11
219.0
 21
-5.99999999999
 31
0.0
  0
LINE
  8
0
 62
0
 10
256.0
 20
-6.0
 30
0.0
 11
256.0
 21
0.0
 31
0.0
  0
LINE
  8
0
 62
0
 10
0.0
 20
1.99840144433e-13
 30
0.0
 11
0.0
 21
-6.0
 31
0.0
  0
LINE
  8
0
 62
0
 10
24.8
 20
1.99840144433e-13
 30
0.0
 11
24.8
 21
-6.0
 31
0.0
  0
LINE
  8
0
 62
0
 10
-6.0
 20
-6.0
 30
0.0
 11
-6.0
 21
0.0
 31
0.0
  0
LINE
  8
0
 62
0
 10
24.8
 20
1.95710114781e-13
 30
0.0
 11
24.8
 21
-6.0
 31
0.0
  0
LINE
  8
0
 62
0
 10
31.0
 20
1.99840144433e-13
 30
0.0
 11
31.0
 21
-6.0
 31
0.0
  0
LINE
  8
0
 62
0
 10
219.0
 20
1.99840144433e-13
 30
0.0
 11
219.0
 21
-6.0
 31
0.0
  0
LINE
  8
0
 62
0
 10
219.0
 20
1.95710114781e-13
 30
0.0
 11
219.0
 21
-6.0
 31
0.0
  0
LINE
  8
0
 62
0
 10
225.2
 20
1.95710114781e-13
 30
0.0
 11
225.2
 21
-6.0
 31
0.0
  0
LINE
  8
0
 62
0
 10
225.2
 20
1.99840144433e-13
 30
0.0
 11
225.2
 21
-6.0
 31
0.0
  0
LINE
  8
0
 62
0
 10
256.0
 20
-6.0
 30
0.0
 11
256.0
 21
0.0
 31
0.0
  0
LINE
  8
0
 62
0
 10
256.0
 20
-6.0
 30
0.0
 11
256.0
 21
0.0
 31
0.0
  0
LINE
  8
0
 62
0
 10
256.0
 20
-6.0
 30
0.0
 11
256.0
 21
0.0
 31
0.0
  0
LINE
  8
0
 62
0
 10
256.0
 20
-6.0
 30
0.0
 11
256.0
 21
0.0
 31
0.0
  0
LINE
  8
0
 62
0
 10
256.0
 20
-6.0
 30
0.0
 11
256.0
 21
0.0
 31
0.0
  0
ENDBLK
  0
ENDSEC
  0
SECTION
  2
ENTITIES
  0
INSERT
  2
POCKET
  8
0
 10
0.0
 20
0.0
 30
0.0
  0
ENDSEC
  0
EOF
