  0
SECTION
  2
HEADER
  9
$ACADVER
  1
AC1009
  9
$INSBASE
 10
0.0
 20
0.0
 30
0.0
  9
$EXTMIN
 10
0.0
 20
0.0
 30
0.0
  9
$EXTMAX
 10
0.0
 20
0.0
 30
0.0
  0
ENDSEC
  0
SECTION
  2
TABLES
  0
TABLE
  2
VPORT
 70
0
  0
ENDTAB
  0
TABLE
  2
LTYPE
 70
1
  0
LTYPE
  2
CONTINUOUS
 70
0
  3
Solid line
 72
65
 73
0
 40
0.0
  0
ENDTAB
  0
TABLE
  2
LAYER
 70
1
  0
LAYER
  2
0
 70
64
 62
7
  6
continuous
  0
ENDTAB
  0
TABLE
  2
STYLE
 70
1
  0
STYLE
  2
STANDARD
 70
0
 40
0
 41
1.0
 50
0.0
 71
0
 42
1
 3
ARIAL.TTF
 4

  0
ENDTAB
  0
TABLE
  2
VIEW
 70
0
  0
ENDTAB
  0
ENDSEC
  0
SECTION
  2
BLOCKS
  0
BLOCK
  8
0
  2
POCKET
 70
0
 10
0.0
 20
0.0
 30
0.0
  3
POCKET
  0
LINE
  8
0
 62
0
 10
1.99840144433e-13
 20
250.0
 30
0.0
 11
2.16360263039e-13
 21
225.2
 31
0.0
  0
LINE
  8
0
 62
0
 10
-3.5527136788e-15
 20
256.0
 30
0.0
 11
4.4408920985e-16
 21
250.0
 31
0.0
  0
LINE
  8
0
 62
0
 10
2.12230233387e-13
 20
225.2
 30
0.0
 11
2.16360263039e-13
 21
219.0
 31
0.0
  0
LINE
  8
0
 62
0
 10
2.20490292691e-13
 20
219.0
 30
0.0
 11
3.45723449868e-13
 21
31.0
 31
0.0
  0
LINE
  8
0
 62
0
 10
3.41593420217e-13
 20
31.0
 30
0.0
 11
3.45723449868e-13
 21
24.8
 31
0.0
  0
LINE
  8
0
 62
0
 10
1.50013335087e-13
 20
24.8
 30
0.0
 11
1.70530256582e-13
 21
-6.0
 31
0.0
  0
LINE
  8
0
 62
0
 10
1.66977542904e-13
 20
2.79776202206e-14
 30
0.0
 11
1.70974345792e-13
 21
-6.0
 31
0.0
  0
LINE
  8
0
 62
0
 10
1.54143364739e-13
 20
24.8
 30
0.0
 11
1.50013335087e-13
 21
31.0
 31
0.0
  0
LINE
  8
0
 62
0
 10
-6.0
 20
250.0
 30
0.0
 11
-6.0
 21
225.2
 31
0.0
  0
LINE
  8
0
 62
0
 10
-6.0
 20
256.0
 30
0.0
 11
-6.0
 21
250.0
 31
0.0
  0
LINE
  8
0
 62
0
 10
-6.0
 20
225.2
 30
0.0
 11
-6.0
 21
219.0
 31
0.0
  0
LINE
  8
0
 62
0
 10
-6.0
 20
219.0
 30
0.0
 11
-6.0
 21
31.0
 31
0.0
  0
LINE
  8
0
 62
0
 10
-6.0
 20
31.0
 30
0.0
 11
-6.0
 21
24.8
 31
0.0
  0
LINE
  8
0
 62
0
 10
-6.0
 20
-6.0
 30
0.0
 11
-6.0
 21
24.8
 31
0.0
  0
LINE
  8
0
 62
0
 10
-6.0
 20
2.39808173319e-14
 30
0.0
 11
-6.0
 21
-6.0
 31
0.0
  0
LINE
  8
0
 62
0
 10
-6.0
 20
24.8
 30
0.0
 11
-6.0
 21
31.0
 31
0.0
  0
LINE
  8
0
 62
0
 10
-6.0
 20
183.5
 30
0.0
 11
-6.0
 21
178.5
 31
0.0
  0
LINE
  8
0
 62
0
 10
-6.0
 20
218.0
 30
0.0
 11
-6.0
 21
214.0
 31
0.0
  0
LINE
  8
0
 62
0
 10
-6.0
 20
36.0
 30
0.0
 11
-6.0
 21
32.0
 31
0.0
  0
LINE
  8
0
 62
0
 10
-6.0
 20
40.0
 30
0.0
 11
-6.0
 21
36.0
 31
0.0
  0
LINE
  8
0
 62
0
 10
-6.0
 20
189.0
 30
0.0
 11
-6.0
 21
59.0
 31
0.0
  0
LINE
  8
0
 62
0
 10
-6.0
 20
68.5002079387
 30
0.0
 11
-6.0
 21
63.5002079387
 31
0.0
  0
LINE
  8
0
 62
0
 10
-6.0
 20
196.0
 30
0.0
 11
-6.0
 21
192.0
 31
0.0
  0
LINE
  8
0
 62
0
 10
-6.0
 20
-6.0
 30
0.0
 11
1.71418435002e-13
 21
-6.0
 31
0.0
  0
LINE
  8
0
 62
0
 10
1.99840144433e-13
 20
250.0
 30
0.0
 11
-6.0
 21
250.0
 31
0.0
  0
LINE
  8
0
 62
0
 10
2.16360263039e-13
 20
225.2
 30
0.0
 11
-6.0
 21
225.2
 31
0.0
  0
LINE
  8
0
 62
0
 10
-6.0
 20
256.0
 30
0.0
 11
-2.6645352591e-15
 21
256.0
 31
0.0
  0
LINE
  8
0
 62
0
 10
2.12230233387e-13
 20
225.2
 30
0.0
 11
-6.0
 21
225.2
 31
0.0
  0
LINE
  8
0
 62
0
 10
2.20490292691e-13
 20
219.0
 30
0.0
 11
-6.0
 21
219.0
 31
0.0
  0
LINE
  8
0
 62
0
 10
3.45723449868e-13
 20
31.0
 30
0.0
 11
-6.0
 21
31.0
 31
0.0
  0
LINE
  8
0
 62
0
 10
3.45723449868e-13
 20
24.8
 30
0.0
 11
-6.0
 21
24.8
 31
0.0
  0
LINE
  8
0
 62
0
 10
3.4985347952e-13
 20
24.8
 30
0.0
 11
-6.0
 21
24.8
 31
0.0
  0
LINE
  8
0
 62
0
 10
-6.0
 20
-6.0
 30
0.0
 11
1.71418435002e-13
 21
-6.0
 31
0.0
  0
ENDBLK
  0
ENDSEC
  0
SECTION
  2
ENTITIES
  0
INSERT
  2
POCKET
  8
0
 10
0.0
 20
0.0
 30
0.0
  0
ENDSEC
  0
EOF
