  0
SECTION
  2
HEADER
  9
$ACADVER
  1
AC1009
  9
$INSBASE
 10
0.0
 20
0.0
 30
0.0
  9
$EXTMIN
 10
0.0
 20
0.0
 30
0.0
  9
$EXTMAX
 10
0.0
 20
0.0
 30
0.0
  0
ENDSEC
  0
SECTION
  2
TABLES
  0
TABLE
  2
VPORT
 70
0
  0
ENDTAB
  0
TABLE
  2
LTYPE
 70
1
  0
LTYPE
  2
CONTINUOUS
 70
0
  3
Solid line
 72
65
 73
0
 40
0.0
  0
ENDTAB
  0
TABLE
  2
LAYER
 70
1
  0
LAYER
  2
0
 70
64
 62
7
  6
continuous
  0
ENDTAB
  0
TABLE
  2
STYLE
 70
1
  0
STYLE
  2
STANDARD
 70
0
 40
0
 41
1.0
 50
0.0
 71
0
 42
1
 3
ARIAL.TTF
 4

  0
ENDTAB
  0
TABLE
  2
VIEW
 70
0
  0
ENDTAB
  0
ENDSEC
  0
SECTION
  2
BLOCKS
  0
BLOCK
  8
0
  2
POCKET
 70
0
 10
0.0
 20
0.0
 30
0.0
  3
POCKET
  0
LINE
  8
0
 62
0
 10
500.0
 20
0.0
 30
0.0
 11
500.0
 21
-25.0
 31
0.0
  0
LINE
  8
0
 62
0
 10
250.0
 20
-50.0
 30
0.0
 11
250.0
 21
-25.0
 31
0.0
  0
LINE
  8
0
 62
0
 10
250.0
 20
-50.0
 30
0.0
 11
274.8
 21
-50.0
 31
0.0
  0
LINE
  8
0
 62
0
 10
244.0
 20
-25.0
 30
0.0
 11
250.0
 21
-25.0
 31
0.0
  0
LINE
  8
0
 62
0
 10
274.8
 20
-43.8
 30
0.0
 11
274.8
 21
-50.0
 31
0.0
  0
LINE
  8
0
 62
0
 10
244.0
 20
5.68434188608e-14
 30
0.0
 11
244.0
 21
-25.0
 31
0.0
  0
ARC
  8
0
 62
0
 10
277.9
 20
-43.8
 30
0.0
 40
3.1
 50
180.0
 51
0.0
  0
LINE
  8
0
 62
0
 10
244.0
 20
5.68434188608e-14
 30
0.0
 11
250.0
 21
5.68434188608e-14
 31
0.0
  0
LINE
  8
0
 62
0
 10
281.0
 20
-50.0
 30
0.0
 11
281.0
 21
-43.8
 31
0.0
  0
LINE
  8
0
 62
0
 10
250.0
 20
-4.26325641456e-14
 30
0.0
 11
250.0
 21
25.0
 31
0.0
  0
LINE
  8
0
 62
0
 10
281.0
 20
-50.0
 30
0.0
 11
469.0
 21
-50.0
 31
0.0
  0
LINE
  8
0
 62
0
 10
244.0
 20
25.0
 30
0.0
 11
250.0
 21
25.0
 31
0.0
  0
LINE
  8
0
 62
0
 10
469.0
 20
-43.8
 30
0.0
 11
469.0
 21
-50.0
 31
0.0
  0
LINE
  8
0
 62
0
 10
244.0
 20
50.0
 30
0.0
 11
244.0
 21
25.0
 31
0.0
  0
ARC
  8
0
 62
0
 10
472.1
 20
-43.8
 30
0.0
 40
3.1
 50
-180.0
 51
-0.0
  0
LINE
  8
0
 62
0
 10
244.0
 20
50.0
 30
0.0
 11
250.0
 21
50.0
 31
0.0
  0
LINE
  8
0
 62
0
 10
475.2
 20
-50.0
 30
0.0
 11
475.2
 21
-43.8
 31
0.0
  0
LINE
  8
0
 62
0
 10
250.0
 20
50.0
 30
0.0
 11
250.0
 21
75.0
 31
0.0
  0
LINE
  8
0
 62
0
 10
475.2
 20
-50.0
 30
0.0
 11
506.0
 21
-50.0
 31
0.0
  0
LINE
  8
0
 62
0
 10
244.0
 20
75.0
 30
0.0
 11
250.0
 21
75.0
 31
0.0
  0
LINE
  8
0
 62
0
 10
506.0
 20
-25.0
 30
0.0
 11
506.0
 21
-50.0
 31
0.0
  0
LINE
  8
0
 62
0
 10
244.0
 20
100.0
 30
0.0
 11
244.0
 21
75.0
 31
0.0
  0
LINE
  8
0
 62
0
 10
500.0
 20
-25.0
 30
0.0
 11
506.0
 21
-25.0
 31
0.0
  0
LINE
  8
0
 62
0
 10
244.0
 20
100.0
 30
0.0
 11
250.0
 21
100.0
 31
0.0
  0
LINE
  8
0
 62
0
 10
250.0
 20
100.0
 30
0.0
 11
250.0
 21
125.0
 31
0.0
  0
LINE
  8
0
 62
0
 10
500.0
 20
6.39488462184e-14
 30
0.0
 11
506.0
 21
6.39488462184e-14
 31
0.0
  0
LINE
  8
0
 62
0
 10
244.0
 20
125.0
 30
0.0
 11
250.0
 21
125.0
 31
0.0
  0
LINE
  8
0
 62
0
 10
506.0
 20
25.0
 30
0.0
 11
506.0
 21
5.68434188608e-14
 31
0.0
  0
LINE
  8
0
 62
0
 10
244.0
 20
150.0
 30
0.0
 11
244.0
 21
125.0
 31
0.0
  0
LINE
  8
0
 62
0
 10
500.0
 20
25.0
 30
0.0
 11
506.0
 21
25.0
 31
0.0
  0
LINE
  8
0
 62
0
 10
244.0
 20
150.0
 30
0.0
 11
250.0
 21
150.0
 31
0.0
  0
LINE
  8
0
 62
0
 10
500.0
 20
50.0
 30
0.0
 11
500.0
 21
25.0
 31
0.0
  0
LINE
  8
0
 62
0
 10
250.0
 20
150.0
 30
0.0
 11
250.0
 21
175.0
 31
0.0
  0
LINE
  8
0
 62
0
 10
500.0
 20
50.0
 30
0.0
 11
506.0
 21
50.0
 31
0.0
  0
LINE
  8
0
 62
0
 10
244.0
 20
175.0
 30
0.0
 11
250.0
 21
175.0
 31
0.0
  0
LINE
  8
0
 62
0
 10
506.0
 20
75.0
 30
0.0
 11
506.0
 21
50.0
 31
0.0
  0
LINE
  8
0
 62
0
 10
244.0
 20
200.0
 30
0.0
 11
244.0
 21
175.0
 31
0.0
  0
LINE
  8
0
 62
0
 10
500.0
 20
75.0
 30
0.0
 11
506.0
 21
75.0
 31
0.0
  0
LINE
  8
0
 62
0
 10
244.0
 20
200.0
 30
0.0
 11
250.0
 21
200.0
 31
0.0
  0
LINE
  8
0
 62
0
 10
500.0
 20
100.0
 30
0.0
 11
500.0
 21
75.0
 31
0.0
  0
LINE
  8
0
 62
0
 10
250.0
 20
200.0
 30
0.0
 11
250.0
 21
225.0
 31
0.0
  0
LINE
  8
0
 62
0
 10
500.0
 20
100.0
 30
0.0
 11
506.0
 21
100.0
 31
0.0
  0
LINE
  8
0
 62
0
 10
244.0
 20
225.0
 30
0.0
 11
250.0
 21
225.0
 31
0.0
  0
LINE
  8
0
 62
0
 10
506.0
 20
125.0
 30
0.0
 11
506.0
 21
100.0
 31
0.0
  0
LINE
  8
0
 62
0
 10
244.0
 20
250.0
 30
0.0
 11
244.0
 21
225.0
 31
0.0
  0
LINE
  8
0
 62
0
 10
500.0
 20
125.0
 30
0.0
 11
506.0
 21
125.0
 31
0.0
  0
LINE
  8
0
 62
0
 10
244.0
 20
250.0
 30
0.0
 11
274.8
 21
250.0
 31
0.0
  0
LINE
  8
0
 62
0
 10
500.0
 20
150.0
 30
0.0
 11
500.0
 21
125.0
 31
0.0
  0
LINE
  8
0
 62
0
 10
274.8
 20
243.8
 30
0.0
 11
274.8
 21
250.0
 31
0.0
  0
LINE
  8
0
 62
0
 10
500.0
 20
150.0
 30
0.0
 11
506.0
 21
150.0
 31
0.0
  0
ARC
  8
0
 62
0
 10
277.9
 20
243.8
 30
0.0
 40
3.1
 50
-0.0
 51
-180.0
  0
LINE
  8
0
 62
0
 10
506.0
 20
175.0
 30
0.0
 11
506.0
 21
150.0
 31
0.0
  0
LINE
  8
0
 62
0
 10
281.0
 20
250.0
 30
0.0
 11
281.0
 21
243.8
 31
0.0
  0
LINE
  8
0
 62
0
 10
500.0
 20
175.0
 30
0.0
 11
506.0
 21
175.0
 31
0.0
  0
LINE
  8
0
 62
0
 10
281.0
 20
250.0
 30
0.0
 11
469.0
 21
250.0
 31
0.0
  0
LINE
  8
0
 62
0
 10
500.0
 20
200.0
 30
0.0
 11
500.0
 21
175.0
 31
0.0
  0
LINE
  8
0
 62
0
 10
469.0
 20
250.0
 30
0.0
 11
469.0
 21
243.8
 31
0.0
  0
LINE
  8
0
 62
0
 10
500.0
 20
200.0
 30
0.0
 11
506.0
 21
200.0
 31
0.0
  0
ARC
  8
0
 62
0
 10
472.1
 20
243.8
 30
0.0
 40
3.1
 50
-0.0
 51
-180.0
  0
LINE
  8
0
 62
0
 10
506.0
 20
225.0
 30
0.0
 11
506.0
 21
200.0
 31
0.0
  0
LINE
  8
0
 62
0
 10
475.2
 20
243.8
 30
0.0
 11
475.2
 21
250.0
 31
0.0
  0
LINE
  8
0
 62
0
 10
500.0
 20
225.0
 30
0.0
 11
506.0
 21
225.0
 31
0.0
  0
LINE
  8
0
 62
0
 10
475.2
 20
250.0
 30
0.0
 11
500.0
 21
250.0
 31
0.0
  0
LINE
  8
0
 62
0
 10
500.0
 20
250.0
 30
0.0
 11
500.0
 21
225.0
 31
0.0
  0
CIRCLE
  8
0
 62
0
 10
284.0
 20
-14.0
 30
0.0
 40
2.0
  0
CIRCLE
  8
0
 62
0
 10
466.0
 20
-14.0
 30
0.0
 40
2.0
  0
CIRCLE
  8
0
 62
0
 10
436.0
 20
220.0
 30
0.0
 40
2.5
  0
CIRCLE
  8
0
 62
0
 10
284.0
 20
238.0
 30
0.0
 40
2.0
  0
CIRCLE
  8
0
 62
0
 10
284.0
 20
-34.0
 30
0.0
 40
2.0
  0
CIRCLE
  8
0
 62
0
 10
329.521428125
 20
20.0
 30
0.0
 40
2.5
  0
CIRCLE
  8
0
 62
0
 10
419.521428125
 20
20.0
 30
0.0
 40
2.5
  0
CIRCLE
  8
0
 62
0
 10
316.0
 20
220.0
 30
0.0
 40
2.5
  0
CIRCLE
  8
0
 62
0
 10
466.0
 20
238.0
 30
0.0
 40
2.0
  0
CIRCLE
  8
0
 62
0
 10
466.0
 20
-34.0
 30
0.0
 40
2.0
  0
ENDBLK
  0
ENDSEC
  0
SECTION
  2
ENTITIES
  0
INSERT
  2
POCKET
  8
0
 10
0.0
 20
0.0
 30
0.0
  0
ENDSEC
  0
EOF
