solid OpenSCAD_Model
  facet normal -1 0 0
    outer loop
      vertex -135 -3 -150
      vertex -135 -3 -100
      vertex -135 3 -150
    endloop
  endfacet
  facet normal -1 0 0
    outer loop
      vertex -135 3 -150
      vertex -135 -3 -100
      vertex -135 3 -100
    endloop
  endfacet
  facet normal 0 -1 0
    outer loop
      vertex -135 -3 -100
      vertex -135 -3 -150
      vertex 135 -3 -150
    endloop
  endfacet
  facet normal 0 -1 0
    outer loop
      vertex -125 -3 -100
      vertex -135 -3 -100
      vertex 135 -3 -150
    endloop
  endfacet
  facet normal 0 -1 0
    outer loop
      vertex 125 -3 -100
      vertex -125 -3 -100
      vertex 135 -3 -150
    endloop
  endfacet
  facet normal 0 -1 0
    outer loop
      vertex 135 -3 -100
      vertex 125 -3 -100
      vertex 135 -3 -150
    endloop
  endfacet
  facet normal 0 -1 0
    outer loop
      vertex 135 -3 -50
      vertex 135 -3 0
      vertex 125 -3 -50
    endloop
  endfacet
  facet normal 0 -1 0
    outer loop
      vertex 135 -3 50
      vertex 135 -3 100
      vertex 125 -3 50
    endloop
  endfacet
  facet normal 0 -1 0
    outer loop
      vertex -125 -3 -50
      vertex 125 -3 0
      vertex 125 -3 50
    endloop
  endfacet
  facet normal 0 -1 0
    outer loop
      vertex 125 -3 150
      vertex -125 -3 150
      vertex -125 -3 100
    endloop
  endfacet
  facet normal 0 -1 0
    outer loop
      vertex -135 -3 -50
      vertex -125 -3 -50
      vertex -125 -3 0
    endloop
  endfacet
  facet normal 0 -1 0
    outer loop
      vertex -125 -3 -50
      vertex 135 -3 100
      vertex 125 -3 100
    endloop
  endfacet
  facet normal 0 -1 0
    outer loop
      vertex 125 -3 150
      vertex -125 -3 100
      vertex -125 -3 50
    endloop
  endfacet
  facet normal 0 -1 0
    outer loop
      vertex 125 -3 150
      vertex -125 -3 50
      vertex -125 -3 0
    endloop
  endfacet
  facet normal 0 -1 0
    outer loop
      vertex -135 -3 50
      vertex -125 -3 50
      vertex -125 -3 100
    endloop
  endfacet
  facet normal 0 -1 0
    outer loop
      vertex 125 -3 150
      vertex -125 -3 0
      vertex -125 -3 -50
    endloop
  endfacet
  facet normal 0 -1 0
    outer loop
      vertex 125 -3 -50
      vertex -125 -3 -100
      vertex 125 -3 -100
    endloop
  endfacet
  facet normal 0 -1 0
    outer loop
      vertex -125 -3 -50
      vertex 125 -3 100
      vertex 125 -3 150
    endloop
  endfacet
  facet normal 0 -1 0
    outer loop
      vertex -125 -3 0
      vertex -135 -3 0
      vertex -135 -3 -50
    endloop
  endfacet
  facet normal 0 -1 0
    outer loop
      vertex -125 -3 -50
      vertex 125 -3 50
      vertex 135 -3 100
    endloop
  endfacet
  facet normal 0 -1 0
    outer loop
      vertex -125 -3 100
      vertex -135 -3 100
      vertex -135 -3 50
    endloop
  endfacet
  facet normal 0 -1 0
    outer loop
      vertex -125 -3 -50
      vertex 135 -3 0
      vertex 125 -3 0
    endloop
  endfacet
  facet normal 0 -1 0
    outer loop
      vertex -125 -3 -50
      vertex 125 -3 -50
      vertex 135 -3 0
    endloop
  endfacet
  facet normal 0 -1 0
    outer loop
      vertex -125 -3 -50
      vertex -125 -3 -100
      vertex 125 -3 -50
    endloop
  endfacet
  facet normal 0 0 -1
    outer loop
      vertex -135 -3 -150
      vertex -135 3 -150
      vertex 135 -3 -150
    endloop
  endfacet
  facet normal 0 0 -1
    outer loop
      vertex 135 -3 -150
      vertex -135 3 -150
      vertex 135 3 -150
    endloop
  endfacet
  facet normal 0 1 0
    outer loop
      vertex -135 3 -150
      vertex -135 3 -100
      vertex 135 3 -150
    endloop
  endfacet
  facet normal 0 1 0
    outer loop
      vertex 135 3 -150
      vertex -135 3 -100
      vertex -125 3 -100
    endloop
  endfacet
  facet normal 0 1 0
    outer loop
      vertex 135 3 -150
      vertex -125 3 -100
      vertex -125 3 -50
    endloop
  endfacet
  facet normal 0 1 0
    outer loop
      vertex -125 3 -50
      vertex -135 3 -50
      vertex -135 3 0
    endloop
  endfacet
  facet normal 0 1 0
    outer loop
      vertex -125 3 -50
      vertex -135 3 0
      vertex 135 3 -150
    endloop
  endfacet
  facet normal 0 1 0
    outer loop
      vertex 135 3 -150
      vertex -135 3 0
      vertex -125 3 0
    endloop
  endfacet
  facet normal 0 1 0
    outer loop
      vertex 135 3 -150
      vertex -125 3 0
      vertex -125 3 50
    endloop
  endfacet
  facet normal 0 1 0
    outer loop
      vertex -125 3 50
      vertex -135 3 50
      vertex -135 3 100
    endloop
  endfacet
  facet normal 0 1 0
    outer loop
      vertex -125 3 50
      vertex -135 3 100
      vertex 135 3 -150
    endloop
  endfacet
  facet normal 0 1 0
    outer loop
      vertex 135 3 -150
      vertex -135 3 100
      vertex -125 3 100
    endloop
  endfacet
  facet normal 0 1 0
    outer loop
      vertex 135 3 -150
      vertex -125 3 100
      vertex -125 3 150
    endloop
  endfacet
  facet normal 0 1 0
    outer loop
      vertex 125 3 100
      vertex -125 3 150
      vertex 125 3 150
    endloop
  endfacet
  facet normal 0 1 0
    outer loop
      vertex 125 3 50
      vertex -125 3 150
      vertex 125 3 100
    endloop
  endfacet
  facet normal 0 1 0
    outer loop
      vertex 125 3 50
      vertex 125 3 100
      vertex 135 3 50
    endloop
  endfacet
  facet normal 0 1 0
    outer loop
      vertex 125 3 0
      vertex -125 3 150
      vertex 125 3 50
    endloop
  endfacet
  facet normal 0 1 0
    outer loop
      vertex 125 3 -50
      vertex -125 3 150
      vertex 125 3 0
    endloop
  endfacet
  facet normal 0 1 0
    outer loop
      vertex 125 3 -50
      vertex 125 3 0
      vertex 135 3 -50
    endloop
  endfacet
  facet normal 0 1 0
    outer loop
      vertex 125 3 -100
      vertex -125 3 150
      vertex 125 3 -50
    endloop
  endfacet
  facet normal 0 1 0
    outer loop
      vertex 135 3 -100
      vertex 135 3 -150
      vertex 125 3 -100
    endloop
  endfacet
  facet normal 0 1 0
    outer loop
      vertex 135 3 -150
      vertex -125 3 150
      vertex 125 3 -100
    endloop
  endfacet
  facet normal 0 1 0
    outer loop
      vertex 135 3 0
      vertex 135 3 -50
      vertex 125 3 0
    endloop
  endfacet
  facet normal 0 1 0
    outer loop
      vertex 135 3 100
      vertex 135 3 50
      vertex 125 3 100
    endloop
  endfacet
  facet normal 0 0 1
    outer loop
      vertex -135 3 -100
      vertex -135 -3 -100
      vertex -125 -3 -100
    endloop
  endfacet
  facet normal 0 0 1
    outer loop
      vertex -125 3 -100
      vertex -135 3 -100
      vertex -125 -3 -100
    endloop
  endfacet
  facet normal -1 0 0
    outer loop
      vertex -125 -3 -100
      vertex -125 -3 -50
      vertex -125 3 -100
    endloop
  endfacet
  facet normal -1 0 0
    outer loop
      vertex -125 3 -100
      vertex -125 -3 -50
      vertex -125 3 -50
    endloop
  endfacet
  facet normal 0 0 -1
    outer loop
      vertex -135 -3 -50
      vertex -135 3 -50
      vertex -125 -3 -50
    endloop
  endfacet
  facet normal 0 0 -1
    outer loop
      vertex -125 -3 -50
      vertex -135 3 -50
      vertex -125 3 -50
    endloop
  endfacet
  facet normal -1 0 0
    outer loop
      vertex -135 -3 -50
      vertex -135 -3 0
      vertex -135 3 -50
    endloop
  endfacet
  facet normal -1 0 0
    outer loop
      vertex -135 3 -50
      vertex -135 -3 0
      vertex -135 3 0
    endloop
  endfacet
  facet normal 0 0 1
    outer loop
      vertex -135 3 0
      vertex -135 -3 0
      vertex -125 -3 0
    endloop
  endfacet
  facet normal 0 0 1
    outer loop
      vertex -125 3 0
      vertex -135 3 0
      vertex -125 -3 0
    endloop
  endfacet
  facet normal -1 0 0
    outer loop
      vertex -125 -3 0
      vertex -125 -3 50
      vertex -125 3 0
    endloop
  endfacet
  facet normal -1 0 0
    outer loop
      vertex -125 3 0
      vertex -125 -3 50
      vertex -125 3 50
    endloop
  endfacet
  facet normal 0 0 -1
    outer loop
      vertex -135 -3 50
      vertex -135 3 50
      vertex -125 -3 50
    endloop
  endfacet
  facet normal 0 0 -1
    outer loop
      vertex -125 -3 50
      vertex -135 3 50
      vertex -125 3 50
    endloop
  endfacet
  facet normal -1 0 0
    outer loop
      vertex -135 -3 50
      vertex -135 -3 100
      vertex -135 3 50
    endloop
  endfacet
  facet normal -1 0 0
    outer loop
      vertex -135 3 50
      vertex -135 -3 100
      vertex -135 3 100
    endloop
  endfacet
  facet normal 0 0 1
    outer loop
      vertex -135 3 100
      vertex -135 -3 100
      vertex -125 -3 100
    endloop
  endfacet
  facet normal 0 0 1
    outer loop
      vertex -125 3 100
      vertex -135 3 100
      vertex -125 -3 100
    endloop
  endfacet
  facet normal -1 0 0
    outer loop
      vertex -125 -3 100
      vertex -125 -3 150
      vertex -125 3 100
    endloop
  endfacet
  facet normal -1 0 0
    outer loop
      vertex -125 3 100
      vertex -125 -3 150
      vertex -125 3 150
    endloop
  endfacet
  facet normal 0 0 1
    outer loop
      vertex -125 3 150
      vertex -125 -3 150
      vertex 125 -3 150
    endloop
  endfacet
  facet normal 0 0 1
    outer loop
      vertex 125 3 150
      vertex -125 3 150
      vertex 125 -3 150
    endloop
  endfacet
  facet normal 1 0 0
    outer loop
      vertex 125 -3 150
      vertex 125 -3 100
      vertex 125 3 100
    endloop
  endfacet
  facet normal 1 0 0
    outer loop
      vertex 125 3 150
      vertex 125 -3 150
      vertex 125 3 100
    endloop
  endfacet
  facet normal 0 0 1
    outer loop
      vertex 125 3 100
      vertex 125 -3 100
      vertex 135 -3 100
    endloop
  endfacet
  facet normal 0 0 1
    outer loop
      vertex 135 3 100
      vertex 125 3 100
      vertex 135 -3 100
    endloop
  endfacet
  facet normal 1 0 0
    outer loop
      vertex 135 -3 100
      vertex 135 -3 50
      vertex 135 3 50
    endloop
  endfacet
  facet normal 1 0 0
    outer loop
      vertex 135 3 100
      vertex 135 -3 100
      vertex 135 3 50
    endloop
  endfacet
  facet normal 0 0 -1
    outer loop
      vertex 125 -3 50
      vertex 125 3 50
      vertex 135 -3 50
    endloop
  endfacet
  facet normal 0 0 -1
    outer loop
      vertex 135 -3 50
      vertex 125 3 50
      vertex 135 3 50
    endloop
  endfacet
  facet normal 1 0 0
    outer loop
      vertex 125 -3 50
      vertex 125 -3 0
      vertex 125 3 0
    endloop
  endfacet
  facet normal 1 0 0
    outer loop
      vertex 125 3 50
      vertex 125 -3 50
      vertex 125 3 0
    endloop
  endfacet
  facet normal 0 0 1
    outer loop
      vertex 125 3 0
      vertex 125 -3 0
      vertex 135 -3 0
    endloop
  endfacet
  facet normal 0 0 1
    outer loop
      vertex 135 3 0
      vertex 125 3 0
      vertex 135 -3 0
    endloop
  endfacet
  facet normal 1 0 0
    outer loop
      vertex 135 -3 0
      vertex 135 -3 -50
      vertex 135 3 -50
    endloop
  endfacet
  facet normal 1 0 0
    outer loop
      vertex 135 3 0
      vertex 135 -3 0
      vertex 135 3 -50
    endloop
  endfacet
  facet normal 0 0 -1
    outer loop
      vertex 125 -3 -50
      vertex 125 3 -50
      vertex 135 -3 -50
    endloop
  endfacet
  facet normal 0 0 -1
    outer loop
      vertex 135 -3 -50
      vertex 125 3 -50
      vertex 135 3 -50
    endloop
  endfacet
  facet normal 1 0 0
    outer loop
      vertex 125 -3 -50
      vertex 125 -3 -100
      vertex 125 3 -100
    endloop
  endfacet
  facet normal 1 0 0
    outer loop
      vertex 125 3 -50
      vertex 125 -3 -50
      vertex 125 3 -100
    endloop
  endfacet
  facet normal 0 0 1
    outer loop
      vertex 125 3 -100
      vertex 125 -3 -100
      vertex 135 -3 -100
    endloop
  endfacet
  facet normal 0 0 1
    outer loop
      vertex 135 3 -100
      vertex 125 3 -100
      vertex 135 -3 -100
    endloop
  endfacet
  facet normal 1 0 0
    outer loop
      vertex 135 -3 -100
      vertex 135 -3 -150
      vertex 135 3 -150
    endloop
  endfacet
  facet normal 1 0 0
    outer loop
      vertex 135 3 -100
      vertex 135 -3 -100
      vertex 135 3 -150
    endloop
  endfacet
endsolid OpenSCAD_Model
