  0
SECTION
  2
HEADER
  9
$ACADVER
  1
AC1009
  9
$INSBASE
 10
0.0
 20
0.0
 30
0.0
  9
$EXTMIN
 10
0.0
 20
0.0
 30
0.0
  9
$EXTMAX
 10
0.0
 20
0.0
 30
0.0
  0
ENDSEC
  0
SECTION
  2
TABLES
  0
TABLE
  2
VPORT
 70
0
  0
ENDTAB
  0
TABLE
  2
LTYPE
 70
1
  0
LTYPE
  2
CONTINUOUS
 70
0
  3
Solid line
 72
65
 73
0
 40
0.0
  0
ENDTAB
  0
TABLE
  2
LAYER
 70
1
  0
LAYER
  2
0
 70
64
 62
7
  6
continuous
  0
ENDTAB
  0
TABLE
  2
STYLE
 70
1
  0
STYLE
  2
STANDARD
 70
0
 40
0
 41
1.0
 50
0.0
 71
0
 42
1
 3
ARIAL.TTF
 4

  0
ENDTAB
  0
TABLE
  2
VIEW
 70
0
  0
ENDTAB
  0
ENDSEC
  0
SECTION
  2
BLOCKS
  0
BLOCK
  8
0
  2
FACEBINDER
 70
0
 10
0.0
 20
0.0
 30
0.0
  3
FACEBINDER
  0
POLYLINE
  8
0
 62
0
 70
1
 66
1
 10
0.0
 20
0.0
 30
0.0
  0
VERTEX
  8
0
 10
800.0
 20
150.0
 30
-44.0
  0
VERTEX
  8
0
 10
800.0
 20
125.0
 30
-44.0
  0
VERTEX
  8
0
 10
794.0
 20
125.0
 30
-44.0
  0
VERTEX
  8
0
 10
794.0
 20
100.0
 30
-44.0
  0
VERTEX
  8
0
 10
800.0
 20
100.0
 30
-44.0
  0
VERTEX
  8
0
 10
800.0
 20
75.0
 30
-44.0
  0
VERTEX
  8
0
 10
794.0
 20
75.0
 30
-44.0
  0
VERTEX
  8
0
 10
794.0
 20
50.0
 30
-44.0
  0
VERTEX
  8
0
 10
800.0
 20
50.0
 30
-44.0
  0
VERTEX
  8
0
 10
800.0
 20
25.0
 30
-44.0
  0
VERTEX
  8
0
 10
794.0
 20
25.0
 30
-44.0
  0
VERTEX
  8
0
 10
794.0
 20
-5.68434188608e-14
 30
-44.0
  0
VERTEX
  8
0
 10
800.0
 20
-5.68434188608e-14
 30
-44.0
  0
VERTEX
  8
0
 10
800.0
 20
-25.0
 30
-44.0
  0
VERTEX
  8
0
 10
794.0
 20
-25.0
 30
-44.0
  0
VERTEX
  8
0
 10
794.0
 20
-50.0
 30
-44.0
  0
VERTEX
  8
0
 10
800.0
 20
-50.0
 30
-44.0
  0
VERTEX
  8
0
 10
800.0
 20
-75.0
 30
-44.0
  0
VERTEX
  8
0
 10
794.0
 20
-75.0
 30
-44.0
  0
VERTEX
  8
0
 10
794.0
 20
-100.0
 30
-44.0
  0
VERTEX
  8
0
 10
800.0
 20
-100.0
 30
-44.0
  0
VERTEX
  8
0
 10
800.0
 20
-125.0
 30
-44.0
  0
VERTEX
  8
0
 10
794.0
 20
-125.0
 30
-44.0
  0
VERTEX
  8
0
 10
794.0
 20
-150.0
 30
-44.0
  0
VERTEX
  8
0
 10
824.8
 20
-150.0
 30
-44.0
  0
VERTEX
  8
0
 10
824.8
 20
-143.8
 30
-44.0
 42
-1.0
  0
VERTEX
  8
0
 10
831.0
 20
-143.8
 30
-44.0
  0
VERTEX
  8
0
 10
831.0
 20
-150.0
 30
-44.0
  0
VERTEX
  8
0
 10
1019.0
 20
-150.0
 30
-44.0
  0
VERTEX
  8
0
 10
1019.0
 20
-143.8
 30
-44.0
 42
-1.0
  0
VERTEX
  8
0
 10
1025.2
 20
-143.8
 30
-44.0
  0
VERTEX
  8
0
 10
1025.2
 20
-150.0
 30
-44.0
  0
VERTEX
  8
0
 10
1050.0
 20
-150.0
 30
-44.0
  0
VERTEX
  8
0
 10
1050.0
 20
-125.0
 30
-44.0
  0
VERTEX
  8
0
 10
1056.0
 20
-125.0
 30
-44.0
  0
VERTEX
  8
0
 10
1056.0
 20
-100.0
 30
-44.0
  0
VERTEX
  8
0
 10
1050.0
 20
-100.0
 30
-44.0
  0
VERTEX
  8
0
 10
1050.0
 20
-75.0
 30
-44.0
  0
VERTEX
  8
0
 10
1056.0
 20
-75.0
 30
-44.0
  0
VERTEX
  8
0
 10
1056.0
 20
-50.0
 30
-44.0
  0
VERTEX
  8
0
 10
1050.0
 20
-50.0
 30
-44.0
  0
VERTEX
  8
0
 10
1050.0
 20
-25.0
 30
-44.0
  0
VERTEX
  8
0
 10
1056.0
 20
-25.0
 30
-44.0
  0
VERTEX
  8
0
 10
1056.0
 20
0.0
 30
-44.0
  0
VERTEX
  8
0
 10
1050.0
 20
0.0
 30
-44.0
  0
VERTEX
  8
0
 10
1050.0
 20
25.0
 30
-44.0
  0
VERTEX
  8
0
 10
1056.0
 20
25.0
 30
-44.0
  0
VERTEX
  8
0
 10
1056.0
 20
50.0
 30
-44.0
  0
VERTEX
  8
0
 10
1050.0
 20
50.0
 30
-44.0
  0
VERTEX
  8
0
 10
1050.0
 20
75.0
 30
-44.0
  0
VERTEX
  8
0
 10
1056.0
 20
75.0
 30
-44.0
  0
VERTEX
  8
0
 10
1056.0
 20
100.0
 30
-44.0
  0
VERTEX
  8
0
 10
1050.0
 20
100.0
 30
-44.0
  0
VERTEX
  8
0
 10
1050.0
 20
125.0
 30
-44.0
  0
VERTEX
  8
0
 10
1056.0
 20
125.0
 30
-44.0
  0
VERTEX
  8
0
 10
1056.0
 20
150.0
 30
-44.0
  0
VERTEX
  8
0
 10
1025.2
 20
150.0
 30
-44.0
  0
VERTEX
  8
0
 10
1025.2
 20
143.8
 30
-44.0
 42
-1.0
  0
VERTEX
  8
0
 10
1019.0
 20
143.8
 30
-44.0
  0
VERTEX
  8
0
 10
1019.0
 20
150.0
 30
-44.0
  0
VERTEX
  8
0
 10
831.0
 20
150.0
 30
-44.0
  0
VERTEX
  8
0
 10
831.0
 20
143.8
 30
-44.0
 42
-1.0
  0
VERTEX
  8
0
 10
824.8
 20
143.8
 30
-44.0
  0
VERTEX
  8
0
 10
824.8
 20
150.0
 30
-44.0
  0
SEQEND
  8
0
  0
CIRCLE
  8
0
 62
0
 10
1006.0
 20
24.0
 30
-44.0
 40
2.2
  0
CIRCLE
  8
0
 62
0
 10
1020.0
 20
2.84217094304e-14
 30
-44.0
 40
2.2
  0
CIRCLE
  8
0
 62
0
 10
1020.0
 20
48.0
 30
-44.0
 40
2.2
  0
CIRCLE
  8
0
 62
0
 10
835.0
 20
134.0
 30
-44.0
 40
2.2
  0
POLYLINE
  8
0
 62
0
 70
1
 66
1
 10
0.0
 20
0.0
 30
0.0
  0
VERTEX
  8
0
 10
1031.0
 20
42.0
 30
-44.0
  0
VERTEX
  8
0
 10
1031.0
 20
33.0
 30
-44.0
  0
VERTEX
  8
0
 10
996.0
 20
33.0
 30
-44.0
  0
VERTEX
  8
0
 10
996.0
 20
15.0
 30
-44.0
  0
VERTEX
  8
0
 10
1031.0
 20
15.0
 30
-44.0
  0
VERTEX
  8
0
 10
1031.0
 20
6.0
 30
-44.0
  0
VERTEX
  8
0
 10
996.0
 20
6.0
 30
-44.0
  0
VERTEX
  8
0
 10
996.0
 20
-47.0
 30
-44.0
  0
VERTEX
  8
0
 10
838.0
 20
-47.0
 30
-44.0
  0
VERTEX
  8
0
 10
838.0
 20
14.0
 30
-44.0
  0
VERTEX
  8
0
 10
818.0
 20
14.0
 30
-44.0
  0
VERTEX
  8
0
 10
818.0
 20
34.0
 30
-44.0
  0
VERTEX
  8
0
 10
838.0
 20
34.0
 30
-44.0
  0
VERTEX
  8
0
 10
838.0
 20
95.0
 30
-44.0
  0
VERTEX
  8
0
 10
996.0
 20
95.0
 30
-44.0
  0
VERTEX
  8
0
 10
996.0
 20
42.0
 30
-44.0
  0
SEQEND
  8
0
  0
CIRCLE
  8
0
 62
0
 10
820.0
 20
-138.0
 30
-44.0
 40
2.2
  0
CIRCLE
  8
0
 62
0
 10
835.0
 20
106.0
 30
-44.0
 40
2.2
  0
CIRCLE
  8
0
 62
0
 10
1015.0
 20
106.0
 30
-44.0
 40
2.2
  0
CIRCLE
  8
0
 62
0
 10
828.0
 20
44.0
 30
-44.0
 40
2.2
  0
CIRCLE
  8
0
 62
0
 10
1030.0
 20
-138.0
 30
-44.0
 40
2.2
  0
CIRCLE
  8
0
 62
0
 10
828.0
 20
4.0
 30
-44.0
 40
2.2
  0
POLYLINE
  8
0
 62
0
 70
1
 66
1
 10
0.0
 20
0.0
 30
0.0
  0
VERTEX
  8
0
 10
1027.0
 20
-45.0
 30
-44.0
  0
VERTEX
  8
0
 10
1027.0
 20
-100.0
 30
-44.0
  0
VERTEX
  8
0
 10
1015.0
 20
-100.0
 30
-44.0
  0
VERTEX
  8
0
 10
1015.0
 20
-45.0
 30
-44.0
  0
SEQEND
  8
0
  0
CIRCLE
  8
0
 62
0
 10
1015.0
 20
134.0
 30
-44.0
 40
2.2
  0
POLYLINE
  8
0
 62
0
 70
1
 66
1
 10
0.0
 20
0.0
 30
0.0
  0
VERTEX
  8
0
 10
1050.0
 20
500.0
 30
-44.0
  0
VERTEX
  8
0
 10
1050.0
 20
475.0
 30
-44.0
  0
VERTEX
  8
0
 10
1056.0
 20
475.0
 30
-44.0
  0
VERTEX
  8
0
 10
1056.0
 20
450.0
 30
-44.0
  0
VERTEX
  8
0
 10
1050.0
 20
450.0
 30
-44.0
  0
VERTEX
  8
0
 10
1050.0
 20
425.0
 30
-44.0
  0
VERTEX
  8
0
 10
1056.0
 20
425.0
 30
-44.0
  0
VERTEX
  8
0
 10
1056.0
 20
400.0
 30
-44.0
  0
VERTEX
  8
0
 10
1050.0
 20
400.0
 30
-44.0
  0
VERTEX
  8
0
 10
1050.0
 20
375.0
 30
-44.0
  0
VERTEX
  8
0
 10
1056.0
 20
375.0
 30
-44.0
  0
VERTEX
  8
0
 10
1056.0
 20
350.0
 30
-44.0
  0
VERTEX
  8
0
 10
1050.0
 20
350.0
 30
-44.0
  0
VERTEX
  8
0
 10
1050.0
 20
325.0
 30
-44.0
  0
VERTEX
  8
0
 10
1056.0
 20
325.0
 30
-44.0
  0
VERTEX
  8
0
 10
1056.0
 20
300.0
 30
-44.0
  0
VERTEX
  8
0
 10
1050.0
 20
300.0
 30
-44.0
  0
VERTEX
  8
0
 10
1050.0
 20
275.0
 30
-44.0
  0
VERTEX
  8
0
 10
1056.0
 20
275.0
 30
-44.0
  0
VERTEX
  8
0
 10
1056.0
 20
250.0
 30
-44.0
  0
VERTEX
  8
0
 10
1050.0
 20
250.0
 30
-44.0
  0
VERTEX
  8
0
 10
1050.0
 20
225.0
 30
-44.0
  0
VERTEX
  8
0
 10
1056.0
 20
225.0
 30
-44.0
  0
VERTEX
  8
0
 10
1056.0
 20
200.0
 30
-44.0
  0
VERTEX
  8
0
 10
1025.2
 20
200.0
 30
-44.0
  0
VERTEX
  8
0
 10
1025.2
 20
206.2
 30
-44.0
 42
1.0
  0
VERTEX
  8
0
 10
1019.0
 20
206.2
 30
-44.0
  0
VERTEX
  8
0
 10
1019.0
 20
200.0
 30
-44.0
  0
VERTEX
  8
0
 10
831.0
 20
200.0
 30
-44.0
  0
VERTEX
  8
0
 10
831.0
 20
206.2
 30
-44.0
 42
1.0
  0
VERTEX
  8
0
 10
824.8
 20
206.2
 30
-44.0
  0
VERTEX
  8
0
 10
824.8
 20
200.0
 30
-44.0
  0
VERTEX
  8
0
 10
800.0
 20
200.0
 30
-44.0
  0
VERTEX
  8
0
 10
800.0
 20
225.0
 30
-44.0
  0
VERTEX
  8
0
 10
794.0
 20
225.0
 30
-44.0
  0
VERTEX
  8
0
 10
794.0
 20
250.0
 30
-44.0
  0
VERTEX
  8
0
 10
800.0
 20
250.0
 30
-44.0
  0
VERTEX
  8
0
 10
800.0
 20
275.0
 30
-44.0
  0
VERTEX
  8
0
 10
794.0
 20
275.0
 30
-44.0
  0
VERTEX
  8
0
 10
794.0
 20
300.0
 30
-44.0
  0
VERTEX
  8
0
 10
800.0
 20
300.0
 30
-44.0
  0
VERTEX
  8
0
 10
800.0
 20
325.0
 30
-44.0
  0
VERTEX
  8
0
 10
794.0
 20
325.0
 30
-44.0
  0
VERTEX
  8
0
 10
794.0
 20
350.0
 30
-44.0
  0
VERTEX
  8
0
 10
800.0
 20
350.0
 30
-44.0
  0
VERTEX
  8
0
 10
800.0
 20
375.0
 30
-44.0
  0
VERTEX
  8
0
 10
794.0
 20
375.0
 30
-44.0
  0
VERTEX
  8
0
 10
794.0
 20
400.0
 30
-44.0
  0
VERTEX
  8
0
 10
800.0
 20
400.0
 30
-44.0
  0
VERTEX
  8
0
 10
800.0
 20
425.0
 30
-44.0
  0
VERTEX
  8
0
 10
794.0
 20
425.0
 30
-44.0
  0
VERTEX
  8
0
 10
794.0
 20
450.0
 30
-44.0
  0
VERTEX
  8
0
 10
800.0
 20
450.0
 30
-44.0
  0
VERTEX
  8
0
 10
800.0
 20
475.0
 30
-44.0
  0
VERTEX
  8
0
 10
794.0
 20
475.0
 30
-44.0
  0
VERTEX
  8
0
 10
794.0
 20
500.0
 30
-44.0
  0
VERTEX
  8
0
 10
824.8
 20
500.0
 30
-44.0
  0
VERTEX
  8
0
 10
824.8
 20
493.8
 30
-44.0
 42
1.0
  0
VERTEX
  8
0
 10
831.0
 20
493.8
 30
-44.0
  0
VERTEX
  8
0
 10
831.0
 20
500.0
 30
-44.0
  0
VERTEX
  8
0
 10
1019.0
 20
500.0
 30
-44.0
  0
VERTEX
  8
0
 10
1019.0
 20
493.8
 30
-44.0
 42
1.0
  0
VERTEX
  8
0
 10
1025.2
 20
493.8
 30
-44.0
  0
VERTEX
  8
0
 10
1025.2
 20
500.0
 30
-44.0
  0
SEQEND
  8
0
  0
CIRCLE
  8
0
 62
0
 10
835.0
 20
484.0
 30
-44.0
 40
2.2
  0
CIRCLE
  8
0
 62
0
 10
835.0
 20
456.0
 30
-44.0
 40
2.2
  0
CIRCLE
  8
0
 62
0
 10
881.5
 20
450.0
 30
-44.0
 40
2.1
  0
CIRCLE
  8
0
 62
0
 10
881.5
 20
238.0
 30
-44.0
 40
2.1
  0
CIRCLE
  8
0
 62
0
 10
820.0
 20
212.0
 30
-44.0
 40
2.2
  0
CIRCLE
  8
0
 62
0
 10
968.5
 20
224.0
 30
-44.0
 40
2.1
  0
POLYLINE
  8
0
 62
0
 70
1
 66
1
 10
0.0
 20
0.0
 30
0.0
  0
VERTEX
  8
0
 10
1042.925416
 20
332.90505
 30
-44.0
  0
VERTEX
  8
0
 10
990.605292
 20
332.90505
 30
-44.0
  0
VERTEX
  8
0
 10
990.605292
 20
236.077088
 30
-44.0
  0
VERTEX
  8
0
 10
1042.925416
 20
236.077088
 30
-44.0
  0
SEQEND
  8
0
  0
CIRCLE
  8
0
 62
0
 10
1030.0
 20
212.0
 30
-44.0
 40
2.2
  0
CIRCLE
  8
0
 62
0
 10
1015.0
 20
484.0
 30
-44.0
 40
2.2
  0
CIRCLE
  8
0
 62
0
 10
881.5
 20
224.0
 30
-44.0
 40
2.1
  0
CIRCLE
  8
0
 62
0
 10
968.5
 20
450.0
 30
-44.0
 40
2.1
  0
CIRCLE
  8
0
 62
0
 10
968.5
 20
436.0
 30
-44.0
 40
2.1
  0
CIRCLE
  8
0
 62
0
 10
881.5
 20
436.0
 30
-44.0
 40
2.1
  0
CIRCLE
  8
0
 62
0
 10
968.5
 20
238.0
 30
-44.0
 40
2.1
  0
CIRCLE
  8
0
 62
0
 10
1015.0
 20
456.0
 30
-44.0
 40
2.2
  0
POLYLINE
  8
0
 62
0
 70
1
 66
1
 10
0.0
 20
0.0
 30
0.0
  0
VERTEX
  8
0
 10
500.0
 20
150.0
 30
-44.0
  0
VERTEX
  8
0
 10
500.0
 20
125.0
 30
-44.0
  0
VERTEX
  8
0
 10
494.0
 20
125.0
 30
-44.0
  0
VERTEX
  8
0
 10
494.0
 20
100.0
 30
-44.0
  0
VERTEX
  8
0
 10
500.0
 20
100.0
 30
-44.0
  0
VERTEX
  8
0
 10
500.0
 20
75.0
 30
-44.0
  0
VERTEX
  8
0
 10
494.0
 20
75.0
 30
-44.0
  0
VERTEX
  8
0
 10
494.0
 20
50.0
 30
-44.0
  0
VERTEX
  8
0
 10
500.0
 20
50.0
 30
-44.0
  0
VERTEX
  8
0
 10
500.0
 20
25.0
 30
-44.0
  0
VERTEX
  8
0
 10
494.0
 20
25.0
 30
-44.0
  0
VERTEX
  8
0
 10
494.0
 20
5.68434188608e-14
 30
-44.0
  0
VERTEX
  8
0
 10
500.0
 20
5.68434188608e-14
 30
-44.0
  0
VERTEX
  8
0
 10
500.0
 20
-25.0
 30
-44.0
  0
VERTEX
  8
0
 10
494.0
 20
-25.0
 30
-44.0
  0
VERTEX
  8
0
 10
494.0
 20
-50.0
 30
-44.0
  0
VERTEX
  8
0
 10
500.0
 20
-50.0
 30
-44.0
  0
VERTEX
  8
0
 10
500.0
 20
-75.0
 30
-44.0
  0
VERTEX
  8
0
 10
494.0
 20
-75.0
 30
-44.0
  0
VERTEX
  8
0
 10
494.0
 20
-100.0
 30
-44.0
  0
VERTEX
  8
0
 10
500.0
 20
-100.0
 30
-44.0
  0
VERTEX
  8
0
 10
500.0
 20
-125.0
 30
-44.0
  0
VERTEX
  8
0
 10
494.0
 20
-125.0
 30
-44.0
  0
VERTEX
  8
0
 10
494.0
 20
-150.0
 30
-44.0
  0
VERTEX
  8
0
 10
524.8
 20
-150.0
 30
-44.0
  0
VERTEX
  8
0
 10
524.8
 20
-143.8
 30
-44.0
 42
-1.0
  0
VERTEX
  8
0
 10
531.0
 20
-143.8
 30
-44.0
  0
VERTEX
  8
0
 10
531.0
 20
-150.0
 30
-44.0
  0
VERTEX
  8
0
 10
719.0
 20
-150.0
 30
-44.0
  0
VERTEX
  8
0
 10
719.0
 20
-143.8
 30
-44.0
 42
-1.0
  0
VERTEX
  8
0
 10
725.2
 20
-143.8
 30
-44.0
  0
VERTEX
  8
0
 10
725.2
 20
-150.0
 30
-44.0
  0
VERTEX
  8
0
 10
750.0
 20
-150.0
 30
-44.0
  0
VERTEX
  8
0
 10
750.0
 20
-125.0
 30
-44.0
  0
VERTEX
  8
0
 10
756.0
 20
-125.0
 30
-44.0
  0
VERTEX
  8
0
 10
756.0
 20
-100.0
 30
-44.0
  0
VERTEX
  8
0
 10
750.0
 20
-100.0
 30
-44.0
  0
VERTEX
  8
0
 10
750.0
 20
-75.0
 30
-44.0
  0
VERTEX
  8
0
 10
756.0
 20
-75.0
 30
-44.0
  0
VERTEX
  8
0
 10
756.0
 20
-50.0
 30
-44.0
  0
VERTEX
  8
0
 10
750.0
 20
-50.0
 30
-44.0
  0
VERTEX
  8
0
 10
750.0
 20
-25.0
 30
-44.0
  0
VERTEX
  8
0
 10
756.0
 20
-25.0
 30
-44.0
  0
VERTEX
  8
0
 10
756.0
 20
0.0
 30
-44.0
  0
VERTEX
  8
0
 10
750.0
 20
0.0
 30
-44.0
  0
VERTEX
  8
0
 10
750.0
 20
25.0
 30
-44.0
  0
VERTEX
  8
0
 10
756.0
 20
25.0
 30
-44.0
  0
VERTEX
  8
0
 10
756.0
 20
50.0
 30
-44.0
  0
VERTEX
  8
0
 10
750.0
 20
50.0
 30
-44.0
  0
VERTEX
  8
0
 10
750.0
 20
75.0
 30
-44.0
  0
VERTEX
  8
0
 10
756.0
 20
75.0
 30
-44.0
  0
VERTEX
  8
0
 10
756.0
 20
100.0
 30
-44.0
  0
VERTEX
  8
0
 10
750.0
 20
100.0
 30
-44.0
  0
VERTEX
  8
0
 10
750.0
 20
125.0
 30
-44.0
  0
VERTEX
  8
0
 10
756.0
 20
125.0
 30
-44.0
  0
VERTEX
  8
0
 10
756.0
 20
150.0
 30
-44.0
  0
VERTEX
  8
0
 10
725.2
 20
150.0
 30
-44.0
  0
VERTEX
  8
0
 10
725.2
 20
143.8
 30
-44.0
 42
-1.0
  0
VERTEX
  8
0
 10
719.0
 20
143.8
 30
-44.0
  0
VERTEX
  8
0
 10
719.0
 20
150.0
 30
-44.0
  0
VERTEX
  8
0
 10
531.0
 20
150.0
 30
-44.0
  0
VERTEX
  8
0
 10
531.0
 20
143.8
 30
-44.0
 42
-1.0
  0
VERTEX
  8
0
 10
524.8
 20
143.8
 30
-44.0
  0
VERTEX
  8
0
 10
524.8
 20
150.0
 30
-44.0
  0
SEQEND
  8
0
  0
CIRCLE
  8
0
 62
0
 10
535.0
 20
106.0
 30
-44.0
 40
2.2
  0
CIRCLE
  8
0
 62
0
 10
530.0
 20
48.0
 30
-44.0
 40
2.2
  0
CIRCLE
  8
0
 62
0
 10
715.0
 20
106.0
 30
-44.0
 40
2.2
  0
CIRCLE
  8
0
 62
0
 10
730.0
 20
-138.0
 30
-44.0
 40
2.2
  0
CIRCLE
  8
0
 62
0
 10
715.0
 20
134.0
 30
-44.0
 40
2.2
  0
CIRCLE
  8
0
 62
0
 10
722.0
 20
4.0
 30
-44.0
 40
2.2
  0
CIRCLE
  8
0
 62
0
 10
544.0
 20
24.0
 30
-44.0
 40
2.2
  0
POLYLINE
  8
0
 62
0
 70
1
 66
1
 10
0.0
 20
0.0
 30
0.0
  0
VERTEX
  8
0
 10
554.0
 20
42.0
 30
-44.0
  0
VERTEX
  8
0
 10
519.0
 20
42.0
 30
-44.0
  0
VERTEX
  8
0
 10
519.0
 20
33.0
 30
-44.0
  0
VERTEX
  8
0
 10
554.0
 20
33.0
 30
-44.0
  0
VERTEX
  8
0
 10
554.0
 20
15.0
 30
-44.0
  0
VERTEX
  8
0
 10
519.0
 20
15.0
 30
-44.0
  0
VERTEX
  8
0
 10
519.0
 20
6.0
 30
-44.0
  0
VERTEX
  8
0
 10
554.0
 20
6.0
 30
-44.0
  0
VERTEX
  8
0
 10
554.0
 20
-47.0
 30
-44.0
  0
VERTEX
  8
0
 10
712.0
 20
-47.0
 30
-44.0
  0
VERTEX
  8
0
 10
712.0
 20
14.0
 30
-44.0
  0
VERTEX
  8
0
 10
732.0
 20
14.0
 30
-44.0
  0
VERTEX
  8
0
 10
732.0
 20
34.0
 30
-44.0
  0
VERTEX
  8
0
 10
712.0
 20
34.0
 30
-44.0
  0
VERTEX
  8
0
 10
712.0
 20
95.0
 30
-44.0
  0
VERTEX
  8
0
 10
554.0
 20
95.0
 30
-44.0
  0
SEQEND
  8
0
  0
CIRCLE
  8
0
 62
0
 10
530.0
 20
8.52651282912e-14
 30
-44.0
 40
2.2
  0
CIRCLE
  8
0
 62
0
 10
535.0
 20
134.0
 30
-44.0
 40
2.2
  0
POLYLINE
  8
0
 62
0
 70
1
 66
1
 10
0.0
 20
0.0
 30
0.0
  0
VERTEX
  8
0
 10
535.0
 20
-100.0
 30
-44.0
  0
VERTEX
  8
0
 10
535.0
 20
-45.0
 30
-44.0
  0
VERTEX
  8
0
 10
523.0
 20
-45.0
 30
-44.0
  0
VERTEX
  8
0
 10
523.0
 20
-100.0
 30
-44.0
  0
SEQEND
  8
0
  0
CIRCLE
  8
0
 62
0
 10
520.0
 20
-138.0
 30
-44.0
 40
2.2
  0
CIRCLE
  8
0
 62
0
 10
722.0
 20
44.0
 30
-44.0
 40
2.2
  0
POLYLINE
  8
0
 62
0
 70
1
 66
1
 10
0.0
 20
0.0
 30
0.0
  0
VERTEX
  8
0
 10
500.0
 20
500.0
 30
-44.0
  0
VERTEX
  8
0
 10
500.0
 20
475.0
 30
-44.0
  0
VERTEX
  8
0
 10
494.0
 20
475.0
 30
-44.0
  0
VERTEX
  8
0
 10
494.0
 20
450.0
 30
-44.0
  0
VERTEX
  8
0
 10
500.0
 20
450.0
 30
-44.0
  0
VERTEX
  8
0
 10
500.0
 20
425.0
 30
-44.0
  0
VERTEX
  8
0
 10
494.0
 20
425.0
 30
-44.0
  0
VERTEX
  8
0
 10
494.0
 20
400.0
 30
-44.0
  0
VERTEX
  8
0
 10
500.0
 20
400.0
 30
-44.0
  0
VERTEX
  8
0
 10
500.0
 20
375.0
 30
-44.0
  0
VERTEX
  8
0
 10
494.0
 20
375.0
 30
-44.0
  0
VERTEX
  8
0
 10
494.0
 20
350.0
 30
-44.0
  0
VERTEX
  8
0
 10
500.0
 20
350.0
 30
-44.0
  0
VERTEX
  8
0
 10
500.0
 20
325.0
 30
-44.0
  0
VERTEX
  8
0
 10
494.0
 20
325.0
 30
-44.0
  0
VERTEX
  8
0
 10
494.0
 20
300.0
 30
-44.0
  0
VERTEX
  8
0
 10
500.0
 20
300.0
 30
-44.0
  0
VERTEX
  8
0
 10
500.0
 20
275.0
 30
-44.0
  0
VERTEX
  8
0
 10
494.0
 20
275.0
 30
-44.0
  0
VERTEX
  8
0
 10
494.0
 20
250.0
 30
-44.0
  0
VERTEX
  8
0
 10
500.0
 20
250.0
 30
-44.0
  0
VERTEX
  8
0
 10
500.0
 20
225.0
 30
-44.0
  0
VERTEX
  8
0
 10
494.0
 20
225.0
 30
-44.0
  0
VERTEX
  8
0
 10
494.0
 20
200.0
 30
-44.0
  0
VERTEX
  8
0
 10
524.8
 20
200.0
 30
-44.0
  0
VERTEX
  8
0
 10
524.8
 20
206.2
 30
-44.0
 42
-1.0
  0
VERTEX
  8
0
 10
531.0
 20
206.2
 30
-44.0
  0
VERTEX
  8
0
 10
531.0
 20
200.0
 30
-44.0
  0
VERTEX
  8
0
 10
719.0
 20
200.0
 30
-44.0
  0
VERTEX
  8
0
 10
719.0
 20
206.2
 30
-44.0
 42
-1.0
  0
VERTEX
  8
0
 10
725.2
 20
206.2
 30
-44.0
  0
VERTEX
  8
0
 10
725.2
 20
200.0
 30
-44.0
  0
VERTEX
  8
0
 10
750.0
 20
200.0
 30
-44.0
  0
VERTEX
  8
0
 10
750.0
 20
225.0
 30
-44.0
  0
VERTEX
  8
0
 10
756.0
 20
225.0
 30
-44.0
  0
VERTEX
  8
0
 10
756.0
 20
250.0
 30
-44.0
  0
VERTEX
  8
0
 10
750.0
 20
250.0
 30
-44.0
  0
VERTEX
  8
0
 10
750.0
 20
275.0
 30
-44.0
  0
VERTEX
  8
0
 10
756.0
 20
275.0
 30
-44.0
  0
VERTEX
  8
0
 10
756.0
 20
300.0
 30
-44.0
  0
VERTEX
  8
0
 10
750.0
 20
300.0
 30
-44.0
  0
VERTEX
  8
0
 10
750.0
 20
325.0
 30
-44.0
  0
VERTEX
  8
0
 10
756.0
 20
325.0
 30
-44.0
  0
VERTEX
  8
0
 10
756.0
 20
350.0
 30
-44.0
  0
VERTEX
  8
0
 10
750.0
 20
350.0
 30
-44.0
  0
VERTEX
  8
0
 10
750.0
 20
375.0
 30
-44.0
  0
VERTEX
  8
0
 10
756.0
 20
375.0
 30
-44.0
  0
VERTEX
  8
0
 10
756.0
 20
400.0
 30
-44.0
  0
VERTEX
  8
0
 10
750.0
 20
400.0
 30
-44.0
  0
VERTEX
  8
0
 10
750.0
 20
425.0
 30
-44.0
  0
VERTEX
  8
0
 10
756.0
 20
425.0
 30
-44.0
  0
VERTEX
  8
0
 10
756.0
 20
450.0
 30
-44.0
  0
VERTEX
  8
0
 10
750.0
 20
450.0
 30
-44.0
  0
VERTEX
  8
0
 10
750.0
 20
475.0
 30
-44.0
  0
VERTEX
  8
0
 10
756.0
 20
475.0
 30
-44.0
  0
VERTEX
  8
0
 10
756.0
 20
500.0
 30
-44.0
  0
VERTEX
  8
0
 10
725.2
 20
500.0
 30
-44.0
  0
VERTEX
  8
0
 10
725.2
 20
493.8
 30
-44.0
 42
-1.0
  0
VERTEX
  8
0
 10
719.0
 20
493.8
 30
-44.0
  0
VERTEX
  8
0
 10
719.0
 20
500.0
 30
-44.0
  0
VERTEX
  8
0
 10
531.0
 20
500.0
 30
-44.0
  0
VERTEX
  8
0
 10
531.0
 20
493.8
 30
-44.0
 42
-1.0
  0
VERTEX
  8
0
 10
524.8
 20
493.8
 30
-44.0
  0
VERTEX
  8
0
 10
524.8
 20
500.0
 30
-44.0
  0
SEQEND
  8
0
  0
CIRCLE
  8
0
 62
0
 10
520.0
 20
212.0
 30
-44.0
 40
2.2
  0
POLYLINE
  8
0
 62
0
 70
1
 66
1
 10
0.0
 20
0.0
 30
0.0
  0
VERTEX
  8
0
 10
745.0
 20
277.502336
 30
-44.0
  0
VERTEX
  8
0
 10
745.0
 20
225.0
 30
-44.0
  0
VERTEX
  8
0
 10
645.0
 20
225.0
 30
-44.0
  0
VERTEX
  8
0
 10
645.0
 20
277.502336
 30
-44.0
  0
SEQEND
  8
0
  0
CIRCLE
  8
0
 62
0
 10
535.0
 20
484.0
 30
-44.0
 40
2.2
  0
CIRCLE
  8
0
 62
0
 10
730.0
 20
212.0
 30
-44.0
 40
2.2
  0
CIRCLE
  8
0
 62
0
 10
715.0
 20
456.0
 30
-44.0
 40
2.2
  0
CIRCLE
  8
0
 62
0
 10
535.0
 20
456.0
 30
-44.0
 40
2.2
  0
CIRCLE
  8
0
 62
0
 10
715.0
 20
484.0
 30
-44.0
 40
2.2
  0
POLYLINE
  8
0
 62
0
 70
1
 66
1
 10
0.0
 20
0.0
 30
0.0
  0
VERTEX
  8
0
 10
723.0
 20
310.0
 30
-44.0
 42
0.414213562373
  0
VERTEX
  8
0
 10
738.0
 20
325.0
 30
-44.0
  0
VERTEX
  8
0
 10
738.0
 20
430.0
 30
-44.0
 42
0.414213562373
  0
VERTEX
  8
0
 10
723.0
 20
445.0
 30
-44.0
  0
VERTEX
  8
0
 10
527.0
 20
445.0
 30
-44.0
 42
0.414213562373
  0
VERTEX
  8
0
 10
512.0
 20
430.0
 30
-44.0
  0
VERTEX
  8
0
 10
512.0
 20
325.0
 30
-44.0
 42
0.414213562373
  0
VERTEX
  8
0
 10
527.0
 20
310.0
 30
-44.0
  0
SEQEND
  8
0
  0
ENDBLK
  0
ENDSEC
  0
SECTION
  2
ENTITIES
  0
INSERT
  2
FACEBINDER
  8
0
 10
0.0
 20
0.0
 30
0.0
  0
ENDSEC
  0
EOF
