solid arduino mega basev2
facet normal 0.707106781186547 -0.707106781186548 -2.20645135253492e-031
outer loop
vertex 18.3 220.0 1.6
vertex 15.5 217.2 0.0
vertex 18.3 220.0 0.0
endloop
endfacet
facet normal 0.707106781186547 -0.707106781186548 -2.20645135253492e-031
outer loop
vertex 15.5 217.2 0.0
vertex 18.3 220.0 1.6
vertex 15.5 217.2 1.6
endloop
endfacet
facet normal -1.0 0.0 0.0
outer loop
vertex 56.7 217.4 1.6
vertex 56.7 117.3 0.0
vertex 56.7 117.3 1.6
endloop
endfacet
facet normal -1.0 0.0 0.0
outer loop
vertex 56.7 117.3 0.0
vertex 56.7 217.4 1.6
vertex 56.7 118.3 0.0
endloop
endfacet
facet normal -1.0 0.0 0.0
outer loop
vertex 56.7 118.3 0.0
vertex 56.7 217.4 1.6
vertex 56.7 217.4 0.0
endloop
endfacet
facet normal 0.0 -1.0 0.0
outer loop
vertex 59.7 115.3 1.6
vertex 0.299999999999998 115.3 -3.9
vertex 59.7 115.3 -3.9
endloop
endfacet
facet normal 0.0 -1.0 0.0
outer loop
vertex 0.299999999999998 115.3 -3.9
vertex 59.7 115.3 1.6
vertex 0.299999999999998 115.3 1.6
endloop
endfacet
facet normal 0.0 -1.0 0.0
outer loop
vertex 0.299999999999998 115.3 1.6
vertex 59.7 115.3 1.6
vertex 37.0 115.3 1.6
endloop
endfacet
facet normal 0.0 -1.0 0.0
outer loop
vertex 0.299999999999998 115.3 1.6
vertex 37.0 115.3 1.6
vertex 22.0 115.3 1.6
endloop
endfacet
facet normal 0.0 0.0 1.0
outer loop
vertex 56.7 117.3 0.0
vertex 3.3 118.3 0.0
vertex 3.3 117.3 0.0
endloop
endfacet
facet normal 0.0 0.0 1.0
outer loop
vertex 3.3 118.3 0.0
vertex 56.7 117.3 0.0
vertex 4.3 119.3 0.0
endloop
endfacet
facet normal 0.0 0.0 1.0
outer loop
vertex 4.3 119.3 0.0
vertex 56.7 117.3 0.0
vertex 55.7 119.3 0.0
endloop
endfacet
facet normal 0.0 0.0 1.0
outer loop
vertex 55.7 119.3 0.0
vertex 56.7 117.3 0.0
vertex 56.7 118.3 0.0
endloop
endfacet
facet normal 0.0 1.0 0.0
outer loop
vertex 3.3 117.3 1.6
vertex 56.7 117.3 0.0
vertex 3.3 117.3 0.0
endloop
endfacet
facet normal 0.0 1.0 0.0
outer loop
vertex 56.7 117.3 0.0
vertex 3.3 117.3 1.6
vertex 56.7 117.3 1.6
endloop
endfacet
facet normal 0.0 -1.0 0.0
outer loop
vertex 15.5 217.2 1.6
vertex 6.3 217.2 0.0
vertex 15.5 217.2 0.0
endloop
endfacet
facet normal 0.0 -1.0 0.0
outer loop
vertex 6.3 217.2 0.0
vertex 15.5 217.2 1.6
vertex 6.3 217.2 1.6
endloop
endfacet
facet normal 0.707106781186547 -0.707106781186548 3.86413898713845e-017
outer loop
vertex 6.3 217.2 1.6
vertex 3.3 214.2 0.0
vertex 6.3 217.2 0.0
endloop
endfacet
facet normal 0.707106781186547 -0.707106781186548 3.86413898713845e-017
outer loop
vertex 3.3 214.2 0.0
vertex 6.3 217.2 1.6
vertex 3.3 214.2 1.6
endloop
endfacet
facet normal 1.0 0.0 0.0
outer loop
vertex 3.3 118.3 0.0
vertex 3.3 117.3 1.6
vertex 3.3 117.3 0.0
endloop
endfacet
facet normal 1.0 0.0 0.0
outer loop
vertex 3.3 117.3 1.6
vertex 3.3 118.3 0.0
vertex 3.3 214.2 1.6
endloop
endfacet
facet normal 1.0 0.0 0.0
outer loop
vertex 3.3 214.2 1.6
vertex 3.3 118.3 0.0
vertex 3.3 214.2 0.0
endloop
endfacet
facet normal -0.77794118020372 -0.628337107087623 0.0
outer loop
vertex 53.1 220.0 1.6
vertex 55.2 217.4 0.0
vertex 55.2 217.4 1.6
endloop
endfacet
facet normal -0.77794118020372 -0.628337107087623 0.0
outer loop
vertex 55.2 217.4 0.0
vertex 53.1 220.0 1.6
vertex 53.1 220.0 0.0
endloop
endfacet
facet normal 0.0 -1.0 0.0
outer loop
vertex 53.1 220.0 1.6
vertex 18.3 220.0 0.0
vertex 53.1 220.0 0.0
endloop
endfacet
facet normal 0.0 -1.0 0.0
outer loop
vertex 18.3 220.0 0.0
vertex 53.1 220.0 1.6
vertex 18.3 220.0 1.6
endloop
endfacet
facet normal 0.0 -1.0 0.0
outer loop
vertex 56.7 217.4 1.6
vertex 55.2 217.4 0.0
vertex 56.7 217.4 0.0
endloop
endfacet
facet normal 0.0 -1.0 0.0
outer loop
vertex 55.2 217.4 0.0
vertex 56.7 217.4 1.6
vertex 55.2 217.4 1.6
endloop
endfacet
facet normal -0.768221279597375 -0.640184399664481 -5.44783719115521e-018
outer loop
vertex 52.2316250540156 219.0 0.0
vertex 54.7316250540156 216.0 -3.0
vertex 54.7316250540156 216.0 0.0
endloop
endfacet
facet normal -0.768221279597375 -0.640184399664481 -5.44783719115521e-018
outer loop
vertex 54.7316250540156 216.0 -3.0
vertex 52.2316250540156 219.0 0.0
vertex 52.2316250540156 219.0 -3.0
endloop
endfacet
facet normal -0.0 -1.0 -1.08176195905462e-017
outer loop
vertex 55.7 216.0 0.0
vertex 54.7316250540156 216.0 -3.0
vertex 55.7 216.0 -3.0
endloop
endfacet
facet normal -0.0 -1.0 -1.08176195905462e-017
outer loop
vertex 54.7316250540156 216.0 -3.0
vertex 55.7 216.0 0.0
vertex 54.7316250540156 216.0 0.0
endloop
endfacet
facet normal 1.92318821601979e-018 -1.08176195905462e-017 1.0
outer loop
vertex 4.3 119.3 -3.0
vertex 28.4335427535692 120.811083213028 -3.00000000000001
vertex 4.32169481007957 133.545807621172 -3.00000000000001
endloop
endfacet
facet normal 1.92318821601979e-018 -1.08176195905462e-017 1.0
outer loop
vertex 28.4335427535692 120.811083213028 -3.00000000000001
vertex 4.3 119.3 -3.0
vertex 55.7 119.3 -3.0
endloop
endfacet
facet normal 1.92318821601979e-018 -1.08176195905462e-017 1.0
outer loop
vertex 4.32169481007957 133.545807621172 -3.00000000000001
vertex 28.4335427535692 120.811083213028 -3.00000000000001
vertex 6.7142135623731 216.0 -3.0
endloop
endfacet
facet normal 1.92318821601979e-018 -1.08176195905462e-017 1.0
outer loop
vertex 6.7142135623731 216.0 -3.0
vertex 28.4335427535692 120.811083213028 -3.00000000000001
vertex 23.1987586056481 144.890188094179 -3.00000000000001
endloop
endfacet
facet normal 1.92318821601979e-018 -1.08176195905462e-017 1.0
outer loop
vertex 6.7142135623731 216.0 -3.0
vertex 23.1987586056481 144.890188094179 -3.00000000000001
vertex 17.6655077524079 194.979684852764 -2.99999999999999
endloop
endfacet
facet normal 1.92318821601979e-018 -1.08176195905462e-017 1.0
outer loop
vertex 6.7142135623731 216.0 -3.0
vertex 17.6655077524079 194.979684852764 -2.99999999999999
vertex 15.7142135623731 216.0 -3.0
endloop
endfacet
facet normal 1.92318821601979e-018 -1.08176195905462e-017 1.0
outer loop
vertex 28.4335427535692 120.811083213028 -3.00000000000001
vertex 55.7 119.3 -3.0
vertex 31.9335427535692 120.811083213028 -3.00000000000001
endloop
endfacet
facet normal 1.92318821601979e-018 -1.08176195905462e-017 1.0
outer loop
vertex 31.9335427535692 120.811083213028 -3.00000000000001
vertex 55.7 119.3 -3.0
vertex 31.9335427535692 127.811083213028 -3.00000000000001
endloop
endfacet
facet normal 1.92318821601979e-018 -1.08176195905462e-017 1.0
outer loop
vertex 31.9335427535692 127.811083213028 -3.00000000000001
vertex 55.7 119.3 -3.0
vertex 39.020578334756 144.890188094179 -3.00000000000001
endloop
endfacet
facet normal 1.92318821601979e-018 -1.08176195905462e-017 1.0
outer loop
vertex 39.020578334756 144.890188094179 -3.00000000000001
vertex 55.7 119.3 -3.0
vertex 39.020578334756 172.512007823287 -3.00000000000001
endloop
endfacet
facet normal 1.92318821601979e-018 -1.08176195905462e-017 1.0
outer loop
vertex 39.020578334756 172.512007823287 -3.00000000000001
vertex 55.7 119.3 -3.0
vertex 44.1655077524079 194.979684852764 -2.99999999999999
endloop
endfacet
facet normal 1.92318821601979e-018 -1.08176195905462e-017 1.0
outer loop
vertex 44.1655077524079 194.979684852764 -2.99999999999999
vertex 55.7 119.3 -3.0
vertex 44.1655077524079 206.879684852764 -2.99999999999999
endloop
endfacet
facet normal 1.92318821601979e-018 -1.08176195905462e-017 1.0
outer loop
vertex 44.1655077524079 206.879684852764 -2.99999999999999
vertex 55.7 119.3 -3.0
vertex 52.2316250540156 219.0 -3.0
endloop
endfacet
facet normal 1.92318821601979e-018 -1.08176195905462e-017 1.0
outer loop
vertex 52.2316250540156 219.0 -3.0
vertex 55.7 119.3 -3.0
vertex 54.7316250540156 216.0 -3.0
endloop
endfacet
facet normal 1.92318821601979e-018 -1.08176195905462e-017 1.0
outer loop
vertex 54.7316250540156 216.0 -3.0
vertex 55.7 119.3 -3.0
vertex 55.7 216.0 -3.0
endloop
endfacet
facet normal 1.92318821601979e-018 -1.08176195905462e-017 1.0
outer loop
vertex 55.7 216.0 -3.0
vertex 55.7 119.3 -3.0
vertex 55.7 213.5 -3.0
endloop
endfacet
facet normal 1.92318821601979e-018 -1.08176195905462e-017 1.0
outer loop
vertex 15.7142135623731 216.0 -3.0
vertex 17.6655077524079 206.879684852764 -2.99999999999999
vertex 18.7142135623731 219.0 -3.0
endloop
endfacet
facet normal 1.92318821601979e-018 -1.08176195905462e-017 1.0
outer loop
vertex 17.6655077524079 206.879684852764 -2.99999999999999
vertex 15.7142135623731 216.0 -3.0
vertex 17.6655077524079 194.979684852764 -2.99999999999999
endloop
endfacet
facet normal 1.92318821601979e-018 -1.08176195905462e-017 1.0
outer loop
vertex 18.7142135623731 219.0 -3.0
vertex 17.6655077524079 206.879684852764 -2.99999999999999
vertex 44.1655077524079 206.879684852764 -2.99999999999999
endloop
endfacet
facet normal 1.92318821601979e-018 -1.08176195905462e-017 1.0
outer loop
vertex 18.7142135623731 219.0 -3.0
vertex 44.1655077524079 206.879684852764 -2.99999999999999
vertex 52.2316250540156 219.0 -3.0
endloop
endfacet
facet normal 1.92318821601979e-018 -1.08176195905462e-017 1.0
outer loop
vertex 17.6655077524079 194.979684852764 -2.99999999999999
vertex 23.1987586056481 172.512007823287 -3.00000000000001
vertex 44.1655077524079 194.979684852764 -2.99999999999999
endloop
endfacet
facet normal 1.92318821601979e-018 -1.08176195905462e-017 1.0
outer loop
vertex 23.1987586056481 172.512007823287 -3.00000000000001
vertex 17.6655077524079 194.979684852764 -2.99999999999999
vertex 23.1987586056481 144.890188094179 -3.00000000000001
endloop
endfacet
facet normal 1.92318821601979e-018 -1.08176195905462e-017 1.0
outer loop
vertex 44.1655077524079 194.979684852764 -2.99999999999999
vertex 23.1987586056481 172.512007823287 -3.00000000000001
vertex 39.020578334756 172.512007823287 -3.00000000000001
endloop
endfacet
facet normal 1.92318821601979e-018 -1.08176195905462e-017 1.0
outer loop
vertex 23.1987586056481 144.890188094179 -3.00000000000001
vertex 28.4335427535692 127.811083213028 -3.00000000000001
vertex 39.020578334756 144.890188094179 -3.00000000000001
endloop
endfacet
facet normal 1.92318821601979e-018 -1.08176195905462e-017 1.0
outer loop
vertex 28.4335427535692 127.811083213028 -3.00000000000001
vertex 23.1987586056481 144.890188094179 -3.00000000000001
vertex 28.4335427535692 120.811083213028 -3.00000000000001
endloop
endfacet
facet normal 1.92318821601979e-018 -1.08176195905462e-017 1.0
outer loop
vertex 39.020578334756 144.890188094179 -3.00000000000001
vertex 28.4335427535692 127.811083213028 -3.00000000000001
vertex 31.9335427535692 127.811083213028 -3.00000000000001
endloop
endfacet
facet normal 1.92318821601979e-018 -1.08176195905462e-017 1.0
outer loop
vertex 4.30627700915805 133.937082554069 -3.0
vertex 4.3 208.306412996909 -3.0
vertex 4.2973646076021 206.674830578783 -3.0
endloop
endfacet
facet normal 1.92318821601979e-018 -1.08176195905462e-017 1.0
outer loop
vertex 4.3 208.306412996909 -3.0
vertex 4.30627700915805 133.937082554069 -3.0
vertex 4.3 213.585786437627 -3.0
endloop
endfacet
facet normal 1.92318821601979e-018 -1.08176195905462e-017 1.0
outer loop
vertex 4.3 213.585786437627 -3.0
vertex 4.30627700915805 133.937082554069 -3.0
vertex 6.7142135623731 216.0 -3.0
endloop
endfacet
facet normal 1.92318821601979e-018 -1.08176195905462e-017 1.0
outer loop
vertex 6.7142135623731 216.0 -3.0
vertex 4.30627700915805 133.937082554069 -3.0
vertex 4.32169481007957 133.545807621172 -3.00000000000001
endloop
endfacet
facet normal 0.0 1.0 0.0
outer loop
vertex 17.6655077524079 206.879684852764 -0.499999999999995
vertex 44.1655077524079 206.879684852764 -2.99999999999999
vertex 17.6655077524079 206.879684852764 -2.99999999999999
endloop
endfacet
facet normal 0.0 1.0 0.0
outer loop
vertex 44.1655077524079 206.879684852764 -2.99999999999999
vertex 17.6655077524079 206.879684852764 -0.499999999999995
vertex 44.1655077524079 206.879684852764 -0.499999999999995
endloop
endfacet
facet normal -1.0 -0.0 -0.0
outer loop
vertex 17.6655077524079 206.879684852764 -0.499999999999995
vertex 17.6655077524079 194.979684852764 -2.99999999999999
vertex 17.6655077524079 194.979684852764 -0.499999999999995
endloop
endfacet
facet normal -1.0 -0.0 -0.0
outer loop
vertex 17.6655077524079 194.979684852764 -2.99999999999999
vertex 17.6655077524079 206.879684852764 -0.499999999999995
vertex 17.6655077524079 206.879684852764 -2.99999999999999
endloop
endfacet
facet normal 0.0 0.0 1.0
outer loop
vertex 17.6655077524079 194.979684852764 -0.499999999999995
vertex 19.1655077524079 196.479684852764 -0.499999999999995
vertex 17.6655077524079 206.879684852764 -0.499999999999995
endloop
endfacet
facet normal 0.0 0.0 1.0
outer loop
vertex 19.1655077524079 196.479684852764 -0.499999999999995
vertex 17.6655077524079 194.979684852764 -0.499999999999995
vertex 44.1655077524079 194.979684852764 -0.499999999999995
endloop
endfacet
facet normal 0.0 0.0 1.0
outer loop
vertex 19.1655077524079 196.479684852764 -0.499999999999995
vertex 44.1655077524079 194.979684852764 -0.499999999999995
vertex 42.665507752408 196.479684852764 -0.499999999999995
endloop
endfacet
facet normal 0.0 0.0 1.0
outer loop
vertex 42.665507752408 196.479684852764 -0.499999999999995
vertex 44.1655077524079 194.979684852764 -0.499999999999995
vertex 42.665507752408 205.379684852764 -0.499999999999995
endloop
endfacet
facet normal 0.0 0.0 1.0
outer loop
vertex 17.6655077524079 206.879684852764 -0.499999999999995
vertex 19.1655077524079 205.379684852764 -0.499999999999995
vertex 44.1655077524079 206.879684852764 -0.499999999999995
endloop
endfacet
facet normal 0.0 0.0 1.0
outer loop
vertex 19.1655077524079 205.379684852764 -0.499999999999995
vertex 17.6655077524079 206.879684852764 -0.499999999999995
vertex 19.1655077524079 196.479684852764 -0.499999999999995
endloop
endfacet
facet normal 0.0 0.0 1.0
outer loop
vertex 44.1655077524079 206.879684852764 -0.499999999999995
vertex 19.1655077524079 205.379684852764 -0.499999999999995
vertex 42.665507752408 205.379684852764 -0.499999999999995
endloop
endfacet
facet normal 0.0 0.0 1.0
outer loop
vertex 44.1655077524079 206.879684852764 -0.499999999999995
vertex 42.665507752408 205.379684852764 -0.499999999999995
vertex 44.1655077524079 194.979684852764 -0.499999999999995
endloop
endfacet
facet normal 1.0 0.0 0.0
outer loop
vertex 44.1655077524079 206.879684852764 -2.99999999999999
vertex 44.1655077524079 194.979684852764 -0.499999999999995
vertex 44.1655077524079 194.979684852764 -2.99999999999999
endloop
endfacet
facet normal 1.0 0.0 0.0
outer loop
vertex 44.1655077524079 194.979684852764 -0.499999999999995
vertex 44.1655077524079 206.879684852764 -2.99999999999999
vertex 44.1655077524079 206.879684852764 -0.499999999999995
endloop
endfacet
facet normal 0.0 -1.0 0.0
outer loop
vertex 44.1655077524079 194.979684852764 -0.499999999999995
vertex 17.6655077524079 194.979684852764 -2.99999999999999
vertex 44.1655077524079 194.979684852764 -2.99999999999999
endloop
endfacet
facet normal 0.0 -1.0 0.0
outer loop
vertex 17.6655077524079 194.979684852764 -2.99999999999999
vertex 44.1655077524079 194.979684852764 -0.499999999999995
vertex 17.6655077524079 194.979684852764 -0.499999999999995
endloop
endfacet
facet normal 1.0 0.0 0.0
outer loop
vertex 31.9335427535692 127.811083213028 -3.00000000000001
vertex 31.9335427535692 120.811083213028 -0.499999999999996
vertex 31.9335427535692 120.811083213028 -3.00000000000001
endloop
endfacet
facet normal 1.0 0.0 0.0
outer loop
vertex 31.9335427535692 120.811083213028 -0.499999999999996
vertex 31.9335427535692 127.811083213028 -3.00000000000001
vertex 31.9335427535692 127.811083213028 -0.499999999999996
endloop
endfacet
facet normal -1.0 -0.0 -0.0
outer loop
vertex 28.4335427535692 127.811083213028 -0.499999999999996
vertex 28.4335427535692 120.811083213028 -3.00000000000001
vertex 28.4335427535692 120.811083213028 -0.499999999999996
endloop
endfacet
facet normal -1.0 -0.0 -0.0
outer loop
vertex 28.4335427535692 120.811083213028 -3.00000000000001
vertex 28.4335427535692 127.811083213028 -0.499999999999996
vertex 28.4335427535692 127.811083213028 -3.00000000000001
endloop
endfacet
facet normal -1.0 -2.44049683896309e-033 1.92318821601979e-018
outer loop
vertex 55.7 216.0 0.0
vertex 55.7 213.5 -3.0
vertex 55.7 213.5 -2.8199664825479e-015
endloop
endfacet
facet normal -1.0 -2.44049683896309e-033 1.92318821601979e-018
outer loop
vertex 55.7 213.5 -3.0
vertex 55.7 216.0 0.0
vertex 55.7 216.0 -3.0
endloop
endfacet
facet normal -1.0 6.47690243886173e-035 1.92318821601979e-018
outer loop
vertex 55.7 213.5 -2.8199664825479e-015
vertex 55.7 119.3 -3.0
vertex 55.7 119.3 0.0
endloop
endfacet
facet normal -1.0 6.47690243886173e-035 1.92318821601979e-018
outer loop
vertex 55.7 119.3 -3.0
vertex 55.7 213.5 -2.8199664825479e-015
vertex 55.7 213.5 -3.0
endloop
endfacet
facet normal 0.999998840403746 -0.00152288908423188 -1.93966002068975e-018
outer loop
vertex 4.32169481007957 133.545807621172 -3.00000000000001
vertex 4.3 119.3 0.0
vertex 4.3 119.3 -3.0
endloop
endfacet
facet normal 0.999998840403746 -0.00152288908423188 -1.93966002068975e-018
outer loop
vertex 4.3 119.3 0.0
vertex 4.32169481007957 133.545807621172 -3.00000000000001
vertex 4.32169481007957 133.545807621172 -5.63993296509579e-015
endloop
endfacet
facet normal 0.999224564925762 0.039373453606742 -1.49576986533897e-018
outer loop
vertex 4.30627700915805 133.937082554069 -3.0
vertex 4.32169481007957 133.545807621172 -5.63993296509579e-015
vertex 4.32169481007957 133.545807621172 -3.00000000000001
endloop
endfacet
facet normal 0.999224564925762 0.039373453606742 -1.49576986533897e-018
outer loop
vertex 4.32169481007957 133.545807621172 -5.63993296509579e-015
vertex 4.30627700915805 133.937082554069 -3.0
vertex 4.30627700915805 133.937082554069 0.0
endloop
endfacet
facet normal 0.99999999249346 0.000122527872130758 -1.92186274167335e-018
outer loop
vertex 4.2973646076021 206.674830578783 -3.0
vertex 4.30627700915805 133.937082554069 0.0
vertex 4.30627700915805 133.937082554069 -3.0
endloop
endfacet
facet normal 0.99999999249346 0.000122527872130758 -1.92186274167335e-018
outer loop
vertex 4.30627700915805 133.937082554069 0.0
vertex 4.2973646076021 206.674830578783 -3.0
vertex 4.2973646076021 206.674830578783 0.0
endloop
endfacet
facet normal 0.999998695507163 -0.00161523495888155 -1.94065870456907e-018
outer loop
vertex 4.3 208.306412996909 -3.0
vertex 4.2973646076021 206.674830578783 0.0
vertex 4.2973646076021 206.674830578783 -3.0
endloop
endfacet
facet normal 0.999998695507163 -0.00161523495888155 -1.94065870456907e-018
outer loop
vertex 4.2973646076021 206.674830578783 0.0
vertex 4.3 208.306412996909 -3.0
vertex 4.3 208.306412996909 0.0
endloop
endfacet
facet normal 1.0 0.0 -1.92318821601979e-018
outer loop
vertex 4.3 213.585786437627 -3.0
vertex 4.3 208.306412996909 0.0
vertex 4.3 208.306412996909 -3.0
endloop
endfacet
facet normal 1.0 0.0 -1.92318821601979e-018
outer loop
vertex 4.3 208.306412996909 0.0
vertex 4.3 213.585786437627 -3.0
vertex 4.3 213.585786437627 0.0
endloop
endfacet
facet normal 0.707106781186548 -0.707106781186548 -9.00911159781729e-018
outer loop
vertex 6.7142135623731 216.0 -3.0
vertex 4.3 213.585786437627 0.0
vertex 4.3 213.585786437627 -3.0
endloop
endfacet
facet normal 0.707106781186548 -0.707106781186548 -9.00911159781729e-018
outer loop
vertex 4.3 213.585786437627 0.0
vertex 6.7142135623731 216.0 -3.0
vertex 6.7142135623731 216.0 0.0
endloop
endfacet
facet normal 0.707106781186547 -0.707106781186548 -9.00911159781729e-018
outer loop
vertex 18.7142135623731 219.0 0.0
vertex 15.7142135623731 216.0 -3.0
vertex 18.7142135623731 219.0 -3.0
endloop
endfacet
facet normal 0.707106781186547 -0.707106781186548 -9.00911159781729e-018
outer loop
vertex 15.7142135623731 216.0 -3.0
vertex 18.7142135623731 219.0 0.0
vertex 15.7142135623731 216.0 0.0
endloop
endfacet
facet normal -0.0 -1.0 -1.08176195905462e-017
outer loop
vertex 52.2316250540156 219.0 0.0
vertex 18.7142135623731 219.0 -3.0
vertex 52.2316250540156 219.0 -3.0
endloop
endfacet
facet normal -0.0 -1.0 -1.08176195905462e-017
outer loop
vertex 18.7142135623731 219.0 -3.0
vertex 52.2316250540156 219.0 0.0
vertex 18.7142135623731 219.0 0.0
endloop
endfacet
facet normal 0.0 1.0 1.08176195905462e-017
outer loop
vertex 4.3 119.3 0.0
vertex 55.7 119.3 -3.0
vertex 4.3 119.3 -3.0
endloop
endfacet
facet normal 0.0 1.0 1.08176195905462e-017
outer loop
vertex 55.7 119.3 -3.0
vertex 4.3 119.3 0.0
vertex 55.7 119.3 0.0
endloop
endfacet
facet normal 0.0 1.0 0.0
outer loop
vertex 28.4335427535692 127.811083213028 -0.499999999999996
vertex 31.9335427535692 127.811083213028 -3.00000000000001
vertex 28.4335427535692 127.811083213028 -3.00000000000001
endloop
endfacet
facet normal 0.0 1.0 0.0
outer loop
vertex 31.9335427535692 127.811083213028 -3.00000000000001
vertex 28.4335427535692 127.811083213028 -0.499999999999996
vertex 31.9335427535692 127.811083213028 -0.499999999999996
endloop
endfacet
facet normal -0.0 -1.0 -1.08176195905462e-017
outer loop
vertex 15.7142135623731 216.0 0.0
vertex 6.7142135623731 216.0 -3.0
vertex 15.7142135623731 216.0 -3.0
endloop
endfacet
facet normal -0.0 -1.0 -1.08176195905462e-017
outer loop
vertex 6.7142135623731 216.0 -3.0
vertex 15.7142135623731 216.0 0.0
vertex 6.7142135623731 216.0 0.0
endloop
endfacet
facet normal -1.04557257556738e-018 -6.74073230581445e-018 1.0
outer loop
vertex 4.3 119.3 0.0
vertex 3.3 214.2 0.0
vertex 3.3 118.3 0.0
endloop
endfacet
facet normal -1.04557257556738e-018 -6.74073230581445e-018 1.0
outer loop
vertex 3.3 214.2 0.0
vertex 4.3 119.3 0.0
vertex 4.2973646076021 206.674830578783 0.0
endloop
endfacet
facet normal -1.04557257556738e-018 -6.74073230581445e-018 1.0
outer loop
vertex 4.2973646076021 206.674830578783 0.0
vertex 4.3 119.3 0.0
vertex 4.30627700915805 133.937082554069 0.0
endloop
endfacet
facet normal -1.04557257556738e-018 -6.74073230581445e-018 1.0
outer loop
vertex 4.30627700915805 133.937082554069 0.0
vertex 4.3 119.3 0.0
vertex 4.32169481007957 133.545807621172 -5.63993296509579e-015
endloop
endfacet
facet normal -1.04557257556738e-018 -6.74073230581445e-018 1.0
outer loop
vertex 56.7 118.3 0.0
vertex 55.7 213.5 -2.8199664825479e-015
vertex 55.7 119.3 0.0
endloop
endfacet
facet normal -1.04557257556738e-018 -6.74073230581445e-018 1.0
outer loop
vertex 55.7 213.5 -2.8199664825479e-015
vertex 56.7 118.3 0.0
vertex 55.7 216.0 0.0
endloop
endfacet
facet normal -1.04557257556738e-018 -6.74073230581445e-018 1.0
outer loop
vertex 3.3 214.2 0.0
vertex 4.3 213.585786437627 0.0
vertex 6.3 217.2 0.0
endloop
endfacet
facet normal -1.04557257556738e-018 -6.74073230581445e-018 1.0
outer loop
vertex 4.3 213.585786437627 0.0
vertex 3.3 214.2 0.0
vertex 4.2973646076021 206.674830578783 0.0
endloop
endfacet
facet normal -1.04557257556738e-018 -6.74073230581445e-018 1.0
outer loop
vertex 4.3 213.585786437627 0.0
vertex 4.2973646076021 206.674830578783 0.0
vertex 4.3 208.306412996909 0.0
endloop
endfacet
facet normal -1.04557257556738e-018 -6.74073230581445e-018 1.0
outer loop
vertex 6.3 217.2 0.0
vertex 4.3 213.585786437627 0.0
vertex 6.7142135623731 216.0 0.0
endloop
endfacet
facet normal -1.04557257556738e-018 -6.74073230581445e-018 1.0
outer loop
vertex 6.3 217.2 0.0
vertex 6.7142135623731 216.0 0.0
vertex 15.5 217.2 0.0
endloop
endfacet
facet normal -1.04557257556738e-018 -6.74073230581445e-018 1.0
outer loop
vertex 15.5 217.2 0.0
vertex 6.7142135623731 216.0 0.0
vertex 15.7142135623731 216.0 0.0
endloop
endfacet
facet normal -1.04557257556738e-018 -6.74073230581445e-018 1.0
outer loop
vertex 15.5 217.2 0.0
vertex 15.7142135623731 216.0 0.0
vertex 18.3 220.0 0.0
endloop
endfacet
facet normal -1.04557257556738e-018 -6.74073230581445e-018 1.0
outer loop
vertex 18.3 220.0 0.0
vertex 15.7142135623731 216.0 0.0
vertex 18.7142135623731 219.0 0.0
endloop
endfacet
facet normal -1.04557257556738e-018 -6.74073230581445e-018 1.0
outer loop
vertex 18.3 220.0 0.0
vertex 18.7142135623731 219.0 0.0
vertex 53.1 220.0 0.0
endloop
endfacet
facet normal -1.04557257556738e-018 -6.74073230581445e-018 1.0
outer loop
vertex 53.1 220.0 0.0
vertex 18.7142135623731 219.0 0.0
vertex 52.2316250540156 219.0 0.0
endloop
endfacet
facet normal -1.04557257556738e-018 -6.74073230581445e-018 1.0
outer loop
vertex 53.1 220.0 0.0
vertex 52.2316250540156 219.0 0.0
vertex 54.7316250540156 216.0 0.0
endloop
endfacet
facet normal -1.04557257556738e-018 -6.74073230581445e-018 1.0
outer loop
vertex 53.1 220.0 0.0
vertex 54.7316250540156 216.0 0.0
vertex 55.2 217.4 0.0
endloop
endfacet
facet normal -1.04557257556738e-018 -6.74073230581445e-018 1.0
outer loop
vertex 55.2 217.4 0.0
vertex 54.7316250540156 216.0 0.0
vertex 55.7 216.0 0.0
endloop
endfacet
facet normal -1.04557257556738e-018 -6.74073230581445e-018 1.0
outer loop
vertex 55.2 217.4 0.0
vertex 55.7 216.0 0.0
vertex 56.7 217.4 0.0
endloop
endfacet
facet normal -1.04557257556738e-018 -6.74073230581445e-018 1.0
outer loop
vertex 56.7 217.4 0.0
vertex 55.7 216.0 0.0
vertex 56.7 118.3 0.0
endloop
endfacet
facet normal -1.0 -0.0 -0.0
outer loop
vertex 23.1987586056481 172.512007823287 -0.499999999999989
vertex 23.1987586056481 144.890188094179 -3.00000000000001
vertex 23.1987586056481 144.890188094179 -0.499999999999989
endloop
endfacet
facet normal -1.0 -0.0 -0.0
outer loop
vertex 23.1987586056481 144.890188094179 -3.00000000000001
vertex 23.1987586056481 172.512007823287 -0.499999999999989
vertex 23.1987586056481 172.512007823287 -3.00000000000001
endloop
endfacet
facet normal 0.0 -1.0 0.0
outer loop
vertex 39.020578334756 144.890188094179 -0.499999999999989
vertex 23.1987586056481 144.890188094179 -3.00000000000001
vertex 39.020578334756 144.890188094179 -3.00000000000001
endloop
endfacet
facet normal 0.0 -1.0 0.0
outer loop
vertex 23.1987586056481 144.890188094179 -3.00000000000001
vertex 39.020578334756 144.890188094179 -0.499999999999989
vertex 23.1987586056481 144.890188094179 -0.499999999999989
endloop
endfacet
facet normal 1.0 0.0 0.0
outer loop
vertex 39.020578334756 172.512007823287 -3.00000000000001
vertex 39.020578334756 144.890188094179 -0.499999999999989
vertex 39.020578334756 144.890188094179 -3.00000000000001
endloop
endfacet
facet normal 1.0 0.0 0.0
outer loop
vertex 39.020578334756 144.890188094179 -0.499999999999989
vertex 39.020578334756 172.512007823287 -3.00000000000001
vertex 39.020578334756 172.512007823287 -0.499999999999989
endloop
endfacet
facet normal 0.0 1.0 0.0
outer loop
vertex 23.1987586056481 172.512007823287 -0.499999999999989
vertex 39.020578334756 172.512007823287 -3.00000000000001
vertex 23.1987586056481 172.512007823287 -3.00000000000001
endloop
endfacet
facet normal 0.0 1.0 0.0
outer loop
vertex 39.020578334756 172.512007823287 -3.00000000000001
vertex 23.1987586056481 172.512007823287 -0.499999999999989
vertex 39.020578334756 172.512007823287 -0.499999999999989
endloop
endfacet
facet normal 0.0 0.0 1.0
outer loop
vertex 23.1987586056481 144.890188094179 -0.499999999999989
vertex 24.6987586056481 146.390188094179 -0.499999999999989
vertex 23.1987586056481 172.512007823287 -0.499999999999989
endloop
endfacet
facet normal 0.0 0.0 1.0
outer loop
vertex 24.6987586056481 146.390188094179 -0.499999999999989
vertex 23.1987586056481 144.890188094179 -0.499999999999989
vertex 39.020578334756 144.890188094179 -0.499999999999989
endloop
endfacet
facet normal 0.0 0.0 1.0
outer loop
vertex 24.6987586056481 146.390188094179 -0.499999999999989
vertex 39.020578334756 144.890188094179 -0.499999999999989
vertex 37.520578334756 146.390188094179 -0.499999999999989
endloop
endfacet
facet normal 0.0 0.0 1.0
outer loop
vertex 37.520578334756 146.390188094179 -0.499999999999989
vertex 39.020578334756 144.890188094179 -0.499999999999989
vertex 37.520578334756 171.012007823287 -0.499999999999989
endloop
endfacet
facet normal 0.0 0.0 1.0
outer loop
vertex 23.1987586056481 172.512007823287 -0.499999999999989
vertex 24.6987586056481 171.012007823287 -0.499999999999989
vertex 39.020578334756 172.512007823287 -0.499999999999989
endloop
endfacet
facet normal 0.0 0.0 1.0
outer loop
vertex 24.6987586056481 171.012007823287 -0.499999999999989
vertex 23.1987586056481 172.512007823287 -0.499999999999989
vertex 24.6987586056481 146.390188094179 -0.499999999999989
endloop
endfacet
facet normal 0.0 0.0 1.0
outer loop
vertex 39.020578334756 172.512007823287 -0.499999999999989
vertex 24.6987586056481 171.012007823287 -0.499999999999989
vertex 37.520578334756 171.012007823287 -0.499999999999989
endloop
endfacet
facet normal 0.0 0.0 1.0
outer loop
vertex 39.020578334756 172.512007823287 -0.499999999999989
vertex 37.520578334756 171.012007823287 -0.499999999999989
vertex 39.020578334756 144.890188094179 -0.499999999999989
endloop
endfacet
facet normal 0.0 -1.0 0.0
outer loop
vertex 31.9335427535692 120.811083213028 -0.499999999999996
vertex 28.4335427535692 120.811083213028 -3.00000000000001
vertex 31.9335427535692 120.811083213028 -3.00000000000001
endloop
endfacet
facet normal 0.0 -1.0 0.0
outer loop
vertex 28.4335427535692 120.811083213028 -3.00000000000001
vertex 31.9335427535692 120.811083213028 -0.499999999999996
vertex 28.4335427535692 120.811083213028 -0.499999999999996
endloop
endfacet
facet normal 0.0 0.0 1.0
outer loop
vertex 28.4335427535692 120.811083213028 -0.499999999999996
vertex 29.4335427535692 121.811083213028 -0.499999999999996
vertex 28.4335427535692 127.811083213028 -0.499999999999996
endloop
endfacet
facet normal 0.0 0.0 1.0
outer loop
vertex 29.4335427535692 121.811083213028 -0.499999999999996
vertex 28.4335427535692 120.811083213028 -0.499999999999996
vertex 31.9335427535692 120.811083213028 -0.499999999999996
endloop
endfacet
facet normal 0.0 0.0 1.0
outer loop
vertex 29.4335427535692 121.811083213028 -0.499999999999996
vertex 31.9335427535692 120.811083213028 -0.499999999999996
vertex 30.9335427535692 121.811083213028 -0.499999999999996
endloop
endfacet
facet normal 0.0 0.0 1.0
outer loop
vertex 30.9335427535692 121.811083213028 -0.499999999999996
vertex 31.9335427535692 120.811083213028 -0.499999999999996
vertex 30.9335427535692 126.811083213028 -0.499999999999996
endloop
endfacet
facet normal 0.0 0.0 1.0
outer loop
vertex 28.4335427535692 127.811083213028 -0.499999999999996
vertex 29.4335427535692 126.811083213028 -0.499999999999996
vertex 31.9335427535692 127.811083213028 -0.499999999999996
endloop
endfacet
facet normal 0.0 0.0 1.0
outer loop
vertex 29.4335427535692 126.811083213028 -0.499999999999996
vertex 28.4335427535692 127.811083213028 -0.499999999999996
vertex 29.4335427535692 121.811083213028 -0.499999999999996
endloop
endfacet
facet normal 0.0 0.0 1.0
outer loop
vertex 31.9335427535692 127.811083213028 -0.499999999999996
vertex 29.4335427535692 126.811083213028 -0.499999999999996
vertex 30.9335427535692 126.811083213028 -0.499999999999996
endloop
endfacet
facet normal 0.0 0.0 1.0
outer loop
vertex 31.9335427535692 127.811083213028 -0.499999999999996
vertex 30.9335427535692 126.811083213028 -0.499999999999996
vertex 31.9335427535692 120.811083213028 -0.499999999999996
endloop
endfacet
facet normal 0.0 0.0 1.0
outer loop
vertex 37.520578334756 146.390188094179 -3.00000000000001
vertex 24.6987586056481 171.012007823287 -3.00000000000001
vertex 24.6987586056481 146.390188094179 -3.00000000000001
endloop
endfacet
facet normal 0.0 0.0 1.0
outer loop
vertex 24.6987586056481 171.012007823287 -3.00000000000001
vertex 37.520578334756 146.390188094179 -3.00000000000001
vertex 37.520578334756 171.012007823287 -3.00000000000001
endloop
endfacet
facet normal -1.0 0.0 0.0
outer loop
vertex 37.520578334756 171.012007823287 -0.499999999999989
vertex 37.520578334756 146.390188094179 -3.00000000000001
vertex 37.520578334756 146.390188094179 -0.499999999999989
endloop
endfacet
facet normal -1.0 0.0 0.0
outer loop
vertex 37.520578334756 146.390188094179 -3.00000000000001
vertex 37.520578334756 171.012007823287 -0.499999999999989
vertex 37.520578334756 171.012007823287 -3.00000000000001
endloop
endfacet
facet normal -0.0 -1.0 -0.0
outer loop
vertex 37.520578334756 171.012007823287 -0.499999999999989
vertex 24.6987586056481 171.012007823287 -3.00000000000001
vertex 37.520578334756 171.012007823287 -3.00000000000001
endloop
endfacet
facet normal -0.0 -1.0 -0.0
outer loop
vertex 24.6987586056481 171.012007823287 -3.00000000000001
vertex 37.520578334756 171.012007823287 -0.499999999999989
vertex 24.6987586056481 171.012007823287 -0.499999999999989
endloop
endfacet
facet normal 1.0 0.0 0.0
outer loop
vertex 24.6987586056481 171.012007823287 -3.00000000000001
vertex 24.6987586056481 146.390188094179 -0.499999999999989
vertex 24.6987586056481 146.390188094179 -3.00000000000001
endloop
endfacet
facet normal 1.0 0.0 0.0
outer loop
vertex 24.6987586056481 146.390188094179 -0.499999999999989
vertex 24.6987586056481 171.012007823287 -3.00000000000001
vertex 24.6987586056481 171.012007823287 -0.499999999999989
endloop
endfacet
facet normal 0.0 1.0 0.0
outer loop
vertex 24.6987586056481 146.390188094179 -0.499999999999989
vertex 37.520578334756 146.390188094179 -3.00000000000001
vertex 24.6987586056481 146.390188094179 -3.00000000000001
endloop
endfacet
facet normal 0.0 1.0 0.0
outer loop
vertex 37.520578334756 146.390188094179 -3.00000000000001
vertex 24.6987586056481 146.390188094179 -0.499999999999989
vertex 37.520578334756 146.390188094179 -0.499999999999989
endloop
endfacet
facet normal 0.0 0.0 1.0
outer loop
vertex 42.665507752408 196.479684852764 -3.0
vertex 19.1655077524079 205.379684852764 -3.0
vertex 19.1655077524079 196.479684852764 -3.0
endloop
endfacet
facet normal 0.0 0.0 1.0
outer loop
vertex 19.1655077524079 205.379684852764 -3.0
vertex 42.665507752408 196.479684852764 -3.0
vertex 42.665507752408 205.379684852764 -3.0
endloop
endfacet
facet normal -1.0 0.0 0.0
outer loop
vertex 42.665507752408 205.379684852764 -0.499999999999995
vertex 42.665507752408 196.479684852764 -3.0
vertex 42.665507752408 196.479684852764 -0.499999999999995
endloop
endfacet
facet normal -1.0 0.0 0.0
outer loop
vertex 42.665507752408 196.479684852764 -3.0
vertex 42.665507752408 205.379684852764 -0.499999999999995
vertex 42.665507752408 205.379684852764 -3.0
endloop
endfacet
facet normal -0.0 -1.0 -0.0
outer loop
vertex 42.665507752408 205.379684852764 -0.499999999999995
vertex 19.1655077524079 205.379684852764 -3.0
vertex 42.665507752408 205.379684852764 -3.0
endloop
endfacet
facet normal -0.0 -1.0 -0.0
outer loop
vertex 19.1655077524079 205.379684852764 -3.0
vertex 42.665507752408 205.379684852764 -0.499999999999995
vertex 19.1655077524079 205.379684852764 -0.499999999999995
endloop
endfacet
facet normal 1.0 0.0 0.0
outer loop
vertex 19.1655077524079 205.379684852764 -3.0
vertex 19.1655077524079 196.479684852764 -0.499999999999995
vertex 19.1655077524079 196.479684852764 -3.0
endloop
endfacet
facet normal 1.0 0.0 0.0
outer loop
vertex 19.1655077524079 196.479684852764 -0.499999999999995
vertex 19.1655077524079 205.379684852764 -3.0
vertex 19.1655077524079 205.379684852764 -0.499999999999995
endloop
endfacet
facet normal 0.0 1.0 0.0
outer loop
vertex 19.1655077524079 196.479684852764 -0.499999999999995
vertex 42.665507752408 196.479684852764 -3.0
vertex 19.1655077524079 196.479684852764 -3.0
endloop
endfacet
facet normal 0.0 1.0 0.0
outer loop
vertex 42.665507752408 196.479684852764 -3.0
vertex 19.1655077524079 196.479684852764 -0.499999999999995
vertex 42.665507752408 196.479684852764 -0.499999999999995
endloop
endfacet
facet normal 0.0 0.0 1.0
outer loop
vertex 30.9335427535692 121.811083213028 -3.00000000000001
vertex 29.4335427535692 126.811083213028 -3.00000000000001
vertex 29.4335427535692 121.811083213028 -3.00000000000001
endloop
endfacet
facet normal 0.0 0.0 1.0
outer loop
vertex 29.4335427535692 126.811083213028 -3.00000000000001
vertex 30.9335427535692 121.811083213028 -3.00000000000001
vertex 30.9335427535692 126.811083213028 -3.00000000000001
endloop
endfacet
facet normal 0.0 1.0 0.0
outer loop
vertex 29.4335427535692 121.811083213028 -0.499999999999996
vertex 30.9335427535692 121.811083213028 -3.00000000000001
vertex 29.4335427535692 121.811083213028 -3.00000000000001
endloop
endfacet
facet normal 0.0 1.0 0.0
outer loop
vertex 30.9335427535692 121.811083213028 -3.00000000000001
vertex 29.4335427535692 121.811083213028 -0.499999999999996
vertex 30.9335427535692 121.811083213028 -0.499999999999996
endloop
endfacet
facet normal -1.0 0.0 0.0
outer loop
vertex 30.9335427535692 126.811083213028 -0.499999999999996
vertex 30.9335427535692 121.811083213028 -3.00000000000001
vertex 30.9335427535692 121.811083213028 -0.499999999999996
endloop
endfacet
facet normal -1.0 0.0 0.0
outer loop
vertex 30.9335427535692 121.811083213028 -3.00000000000001
vertex 30.9335427535692 126.811083213028 -0.499999999999996
vertex 30.9335427535692 126.811083213028 -3.00000000000001
endloop
endfacet
facet normal -0.0 -1.0 -0.0
outer loop
vertex 30.9335427535692 126.811083213028 -0.499999999999996
vertex 29.4335427535692 126.811083213028 -3.00000000000001
vertex 30.9335427535692 126.811083213028 -3.00000000000001
endloop
endfacet
facet normal -0.0 -1.0 -0.0
outer loop
vertex 29.4335427535692 126.811083213028 -3.00000000000001
vertex 30.9335427535692 126.811083213028 -0.499999999999996
vertex 29.4335427535692 126.811083213028 -0.499999999999996
endloop
endfacet
facet normal 1.0 0.0 0.0
outer loop
vertex 29.4335427535692 126.811083213028 -3.00000000000001
vertex 29.4335427535692 121.811083213028 -0.499999999999996
vertex 29.4335427535692 121.811083213028 -3.00000000000001
endloop
endfacet
facet normal 1.0 0.0 0.0
outer loop
vertex 29.4335427535692 121.811083213028 -0.499999999999996
vertex 29.4335427535692 126.811083213028 -3.00000000000001
vertex 29.4335427535692 126.811083213028 -0.499999999999996
endloop
endfacet
facet normal -1.0 0.0 0.0
outer loop
vertex 0.299999999999998 214.2 1.6
vertex 0.299999999999998 115.3 -3.9
vertex 0.299999999999998 115.3 1.6
endloop
endfacet
facet normal -1.0 0.0 0.0
outer loop
vertex 0.299999999999998 115.3 -3.9
vertex 0.299999999999998 214.2 1.6
vertex 0.299999999999998 214.2 -3.9
endloop
endfacet
facet normal 1.0 0.0 0.0
outer loop
vertex 59.7 217.4 -3.9
vertex 59.7 115.3 1.6
vertex 59.7 115.3 -3.9
endloop
endfacet
facet normal 1.0 0.0 0.0
outer loop
vertex 59.7 115.3 1.6
vertex 59.7 217.4 -3.9
vertex 59.7 217.4 1.6
endloop
endfacet
facet normal 0.0 1.0 0.0
outer loop
vertex 18.3 222.8 1.6
vertex 53.1 222.8 -3.9
vertex 18.3 222.8 -3.9
endloop
endfacet
facet normal 0.0 1.0 0.0
outer loop
vertex 53.1 222.8 -3.9
vertex 18.3 222.8 1.6
vertex 53.1 222.8 1.6
endloop
endfacet
facet normal 0.0 1.0 0.0
outer loop
vertex 6.3 220.0 1.6
vertex 15.5 220.0 -3.9
vertex 6.3 220.0 -3.9
endloop
endfacet
facet normal 0.0 1.0 0.0
outer loop
vertex 15.5 220.0 -3.9
vertex 6.3 220.0 1.6
vertex 15.5 220.0 1.6
endloop
endfacet
facet normal -0.707106781186547 0.707106781186548 0.0
outer loop
vertex 15.5 220.0 1.6
vertex 18.3 222.8 -3.9
vertex 15.5 220.0 -3.9
endloop
endfacet
facet normal -0.707106781186547 0.707106781186548 0.0
outer loop
vertex 18.3 222.8 -3.9
vertex 15.5 220.0 1.6
vertex 18.3 222.8 1.6
endloop
endfacet
facet normal 0.0 1.0 0.0
outer loop
vertex 56.4071067811866 219.943294146247 1.6
vertex 57.3689647316224 219.943294146247 -3.9
vertex 56.4071067811866 219.943294146247 -3.9
endloop
endfacet
facet normal 0.0 1.0 0.0
outer loop
vertex 57.3689647316224 219.943294146247 -3.9
vertex 56.4071067811866 219.943294146247 1.6
vertex 57.3689647316224 219.943294146247 1.6
endloop
endfacet
facet normal -8.19383731460741e-018 2.49416724785447e-017 -1.0
outer loop
vertex 0.607468171810285 214.921387321031 -3.9
vertex 0.299999999999998 115.3 -3.9
vertex 0.299999999999998 214.2 -3.9
endloop
endfacet
facet normal -8.19383731460741e-018 2.49416724785447e-017 -1.0
outer loop
vertex 0.299999999999998 115.3 -3.9
vertex 0.607468171810285 214.921387321031 -3.9
vertex 59.7 115.3 -3.9
endloop
endfacet
facet normal -8.19383731460741e-018 2.49416724785447e-017 -1.0
outer loop
vertex 59.7 115.3 -3.9
vertex 0.607468171810285 214.921387321031 -3.9
vertex 5.60746817181029 219.721387321031 -3.9
endloop
endfacet
facet normal -8.19383731460741e-018 2.49416724785447e-017 -1.0
outer loop
vertex 59.7 115.3 -3.9
vertex 5.60746817181029 219.721387321031 -3.9
vertex 6.3 220.0 -3.9
endloop
endfacet
facet normal -8.19383731460741e-018 2.49416724785447e-017 -1.0
outer loop
vertex 59.7 115.3 -3.9
vertex 6.3 220.0 -3.9
vertex 15.5 220.0 -3.9
endloop
endfacet
facet normal -8.19383731460741e-018 2.49416724785447e-017 -1.0
outer loop
vertex 59.7 115.3 -3.9
vertex 15.5 220.0 -3.9
vertex 18.3 222.8 -3.9
endloop
endfacet
facet normal -8.19383731460741e-018 2.49416724785447e-017 -1.0
outer loop
vertex 59.7 115.3 -3.9
vertex 18.3 222.8 -3.9
vertex 53.1 222.8 -3.9
endloop
endfacet
facet normal -8.19383731460741e-018 2.49416724785447e-017 -1.0
outer loop
vertex 59.7 115.3 -3.9
vertex 53.1 222.8 -3.9
vertex 53.8071067811866 222.507106781187 -3.9
endloop
endfacet
facet normal -8.19383731460741e-018 2.49416724785447e-017 -1.0
outer loop
vertex 59.7 115.3 -3.9
vertex 53.8071067811866 222.507106781187 -3.9
vertex 56.4071067811866 219.943294146247 -3.9
endloop
endfacet
facet normal -8.19383731460741e-018 2.49416724785447e-017 -1.0
outer loop
vertex 59.7 115.3 -3.9
vertex 56.4071067811866 219.943294146247 -3.9
vertex 57.3689647316224 219.943294146247 -3.9
endloop
endfacet
facet normal -8.19383731460741e-018 2.49416724785447e-017 -1.0
outer loop
vertex 59.7 115.3 -3.9
vertex 57.3689647316224 219.943294146247 -3.9
vertex 59.3689647316224 218.143294146247 -3.9
endloop
endfacet
facet normal -8.19383731460741e-018 2.49416724785447e-017 -1.0
outer loop
vertex 59.7 115.3 -3.9
vertex 59.3689647316224 218.143294146247 -3.9
vertex 59.7 217.4 -3.9
endloop
endfacet
facet normal 0.382683432365186 0.923879532511247 0.0
outer loop
vertex 53.1 222.8 1.6
vertex 53.8071067811866 222.507106781187 -3.9
vertex 53.1 222.8 -3.9
endloop
endfacet
facet normal 0.382683432365186 0.923879532511247 0.0
outer loop
vertex 53.8071067811866 222.507106781187 -3.9
vertex 53.1 222.8 1.6
vertex 53.8071067811866 222.507106781187 1.6
endloop
endfacet
facet normal 0.66896473162245 0.743294146247166 0.0
outer loop
vertex 57.3689647316224 219.943294146247 1.6
vertex 59.3689647316224 218.143294146247 -3.9
vertex 57.3689647316224 219.943294146247 -3.9
endloop
endfacet
facet normal 0.66896473162245 0.743294146247166 0.0
outer loop
vertex 59.3689647316224 218.143294146247 -3.9
vertex 57.3689647316224 219.943294146247 1.6
vertex 59.3689647316224 218.143294146247 1.6
endloop
endfacet
facet normal 0.913500063388742 0.406838584931129 0.0
outer loop
vertex 59.3689647316224 218.143294146247 -3.9
vertex 59.7 217.4 1.6
vertex 59.7 217.4 -3.9
endloop
endfacet
facet normal 0.913500063388742 0.406838584931129 0.0
outer loop
vertex 59.7 217.4 1.6
vertex 59.3689647316224 218.143294146247 -3.9
vertex 59.3689647316224 218.143294146247 1.6
endloop
endfacet
facet normal -0.373237644784842 0.927735770850442 0.0
outer loop
vertex 5.60746817181029 219.721387321031 1.6
vertex 6.3 220.0 -3.9
vertex 5.60746817181029 219.721387321031 -3.9
endloop
endfacet
facet normal -0.373237644784842 0.927735770850442 0.0
outer loop
vertex 6.3 220.0 -3.9
vertex 5.60746817181029 219.721387321031 1.6
vertex 6.3 220.0 1.6
endloop
endfacet
facet normal -0.919927124339133 0.392089385096222 0.0
outer loop
vertex 0.607468171810285 214.921387321031 1.6
vertex 0.299999999999998 214.2 -3.9
vertex 0.299999999999998 214.2 1.6
endloop
endfacet
facet normal -0.919927124339133 0.392089385096222 0.0
outer loop
vertex 0.299999999999998 214.2 -3.9
vertex 0.607468171810285 214.921387321031 1.6
vertex 0.607468171810285 214.921387321031 -3.9
endloop
endfacet
facet normal -0.692531828189713 0.721387321030953 0.0
outer loop
vertex 0.607468171810285 214.921387321031 1.6
vertex 5.60746817181029 219.721387321031 -3.9
vertex 0.607468171810285 214.921387321031 -3.9
endloop
endfacet
facet normal -0.692531828189713 0.721387321030953 0.0
outer loop
vertex 5.60746817181029 219.721387321031 -3.9
vertex 0.607468171810285 214.921387321031 1.6
vertex 5.60746817181029 219.721387321031 1.6
endloop
endfacet
facet normal 0.0 0.0 1.0
outer loop
vertex 0.299999999999998 115.3 1.6
vertex 3.3 117.3 1.6
vertex 0.299999999999998 214.2 1.6
endloop
endfacet
facet normal 0.0 0.0 1.0
outer loop
vertex 3.3 117.3 1.6
vertex 0.299999999999998 115.3 1.6
vertex 22.0 115.3 1.6
endloop
endfacet
facet normal 0.0 0.0 1.0
outer loop
vertex 0.299999999999998 214.2 1.6
vertex 3.3 117.3 1.6
vertex 0.607468171810285 214.921387321031 1.6
endloop
endfacet
facet normal 0.0 0.0 1.0
outer loop
vertex 3.3 117.3 1.6
vertex 22.0 115.3 1.6
vertex 56.7 117.3 1.6
endloop
endfacet
facet normal 0.0 0.0 1.0
outer loop
vertex 56.7 117.3 1.6
vertex 22.0 115.3 1.6
vertex 37.0 115.3 1.6
endloop
endfacet
facet normal 0.0 0.0 1.0
outer loop
vertex 56.7 117.3 1.6
vertex 37.0 115.3 1.6
vertex 59.7 115.3 1.6
endloop
endfacet
facet normal 0.0 0.0 1.0
outer loop
vertex 56.7 117.3 1.6
vertex 59.7 115.3 1.6
vertex 56.7 217.4 1.6
endloop
endfacet
facet normal 0.0 0.0 1.0
outer loop
vertex 56.7 217.4 1.6
vertex 59.7 115.3 1.6
vertex 57.3689647316224 219.943294146247 1.6
endloop
endfacet
facet normal 0.0 0.0 1.0
outer loop
vertex 57.3689647316224 219.943294146247 1.6
vertex 59.7 115.3 1.6
vertex 59.3689647316224 218.143294146247 1.6
endloop
endfacet
facet normal 0.0 0.0 1.0
outer loop
vertex 59.3689647316224 218.143294146247 1.6
vertex 59.7 115.3 1.6
vertex 59.7 217.4 1.6
endloop
endfacet
facet normal 0.0 0.0 1.0
outer loop
vertex 0.607468171810285 214.921387321031 1.6
vertex 3.3 214.2 1.6
vertex 5.60746817181029 219.721387321031 1.6
endloop
endfacet
facet normal 0.0 0.0 1.0
outer loop
vertex 3.3 214.2 1.6
vertex 0.607468171810285 214.921387321031 1.6
vertex 3.3 117.3 1.6
endloop
endfacet
facet normal 0.0 0.0 1.0
outer loop
vertex 5.60746817181029 219.721387321031 1.6
vertex 3.3 214.2 1.6
vertex 6.3 217.2 1.6
endloop
endfacet
facet normal 0.0 0.0 1.0
outer loop
vertex 5.60746817181029 219.721387321031 1.6
vertex 6.3 217.2 1.6
vertex 6.3 220.0 1.6
endloop
endfacet
facet normal 0.0 0.0 1.0
outer loop
vertex 6.3 220.0 1.6
vertex 6.3 217.2 1.6
vertex 15.5 217.2 1.6
endloop
endfacet
facet normal 0.0 0.0 1.0
outer loop
vertex 6.3 220.0 1.6
vertex 15.5 217.2 1.6
vertex 15.5 220.0 1.6
endloop
endfacet
facet normal 0.0 0.0 1.0
outer loop
vertex 15.5 220.0 1.6
vertex 15.5 217.2 1.6
vertex 18.3 220.0 1.6
endloop
endfacet
facet normal 0.0 0.0 1.0
outer loop
vertex 15.5 220.0 1.6
vertex 18.3 220.0 1.6
vertex 18.3 222.8 1.6
endloop
endfacet
facet normal 0.0 0.0 1.0
outer loop
vertex 18.3 222.8 1.6
vertex 18.3 220.0 1.6
vertex 53.1 220.0 1.6
endloop
endfacet
facet normal 0.0 0.0 1.0
outer loop
vertex 18.3 222.8 1.6
vertex 53.1 220.0 1.6
vertex 53.1 222.8 1.6
endloop
endfacet
facet normal 0.0 0.0 1.0
outer loop
vertex 53.1 222.8 1.6
vertex 53.1 220.0 1.6
vertex 55.2 217.4 1.6
endloop
endfacet
facet normal 0.0 0.0 1.0
outer loop
vertex 53.1 222.8 1.6
vertex 55.2 217.4 1.6
vertex 53.8071067811866 222.507106781187 1.6
endloop
endfacet
facet normal 0.0 0.0 1.0
outer loop
vertex 53.8071067811866 222.507106781187 1.6
vertex 55.2 217.4 1.6
vertex 56.4071067811866 219.943294146247 1.6
endloop
endfacet
facet normal 0.0 0.0 1.0
outer loop
vertex 56.4071067811866 219.943294146247 1.6
vertex 55.2 217.4 1.6
vertex 56.7 217.4 1.6
endloop
endfacet
facet normal 0.0 0.0 1.0
outer loop
vertex 56.4071067811866 219.943294146247 1.6
vertex 56.7 217.4 1.6
vertex 57.3689647316224 219.943294146247 1.6
endloop
endfacet
facet normal 0.702134222850287 0.71204461454492 1.18886244220349e-017
outer loop
vertex 53.8071067811866 222.507106781187 -3.9
vertex 56.4071067811866 219.943294146247 1.6
vertex 56.4071067811866 219.943294146247 -3.9
endloop
endfacet
facet normal 0.702134222850287 0.71204461454492 1.18886244220349e-017
outer loop
vertex 56.4071067811866 219.943294146247 1.6
vertex 53.8071067811866 222.507106781187 -3.9
vertex 53.8071067811866 222.507106781187 1.6
endloop
endfacet
endsolid arduino mega basev2
