  0
SECTION
  2
HEADER
  9
$ACADVER
  1
AC1009
  9
$INSBASE
 10
0.0
 20
0.0
 30
0.0
  9
$EXTMIN
 10
0.0
 20
0.0
 30
0.0
  9
$EXTMAX
 10
0.0
 20
0.0
 30
0.0
  0
ENDSEC
  0
SECTION
  2
TABLES
  0
TABLE
  2
VPORT
 70
0
  0
ENDTAB
  0
TABLE
  2
LTYPE
 70
1
  0
LTYPE
  2
CONTINUOUS
 70
0
  3
Solid line
 72
65
 73
0
 40
0.0
  0
ENDTAB
  0
TABLE
  2
LAYER
 70
1
  0
LAYER
  2
0
 70
64
 62
7
  6
continuous
  0
ENDTAB
  0
TABLE
  2
STYLE
 70
1
  0
STYLE
  2
STANDARD
 70
0
 40
0
 41
1.0
 50
0.0
 71
0
 42
1
 3
ARIAL.TTF
 4

  0
ENDTAB
  0
TABLE
  2
VIEW
 70
0
  0
ENDTAB
  0
ENDSEC
  0
SECTION
  2
BLOCKS
  0
BLOCK
  8
CorteLaser
  2
CLONE020
 70
0
 10
0.0
 20
0.0
 30
0.0
  3
CLONE020
  0
LINE
  8
CorteLaser
 62
0
 10
750.0
 20
450.0
 30
0.0
 11
750.0
 21
475.0
 31
0.0
  0
LINE
  8
CorteLaser
 62
0
 10
750.0
 20
475.0
 30
0.0
 11
756.0
 21
475.0
 31
0.0
  0
LINE
  8
CorteLaser
 62
0
 10
500.0
 20
500.0
 30
0.0
 11
500.0
 21
475.0
 31
0.0
  0
LINE
  8
CorteLaser
 62
0
 10
500.0
 20
500.0
 30
0.0
 11
524.8
 21
500.0
 31
0.0
  0
LINE
  8
CorteLaser
 62
0
 10
494.0
 20
475.0
 30
0.0
 11
500.0
 21
475.0
 31
0.0
  0
LINE
  8
CorteLaser
 62
0
 10
524.8
 20
493.8
 30
0.0
 11
524.8
 21
500.0
 31
0.0
  0
LINE
  8
CorteLaser
 62
0
 10
494.0
 20
450.0
 30
0.0
 11
494.0
 21
475.0
 31
0.0
  0
ARC
  8
CorteLaser
 62
0
 10
527.9
 20
493.8
 30
0.0
 40
3.1
 50
-180.0
 51
-0.0
  0
LINE
  8
CorteLaser
 62
0
 10
494.0
 20
450.0
 30
0.0
 11
500.0
 21
450.0
 31
0.0
  0
LINE
  8
CorteLaser
 62
0
 10
531.0
 20
500.0
 30
0.0
 11
531.0
 21
493.8
 31
0.0
  0
LINE
  8
CorteLaser
 62
0
 10
500.0
 20
450.0
 30
0.0
 11
500.0
 21
425.0
 31
0.0
  0
LINE
  8
CorteLaser
 62
0
 10
531.0
 20
500.0
 30
0.0
 11
719.0
 21
500.0
 31
0.0
  0
LINE
  8
CorteLaser
 62
0
 10
494.0
 20
425.0
 30
0.0
 11
500.0
 21
425.0
 31
0.0
  0
LINE
  8
CorteLaser
 62
0
 10
719.0
 20
493.8
 30
0.0
 11
719.0
 21
500.0
 31
0.0
  0
LINE
  8
CorteLaser
 62
0
 10
494.0
 20
400.0
 30
0.0
 11
494.0
 21
425.0
 31
0.0
  0
ARC
  8
CorteLaser
 62
0
 10
722.1
 20
493.8
 30
0.0
 40
3.1
 50
180.0
 51
0.0
  0
LINE
  8
CorteLaser
 62
0
 10
494.0
 20
400.0
 30
0.0
 11
500.0
 21
400.0
 31
0.0
  0
LINE
  8
CorteLaser
 62
0
 10
725.2
 20
500.0
 30
0.0
 11
725.2
 21
493.8
 31
0.0
  0
LINE
  8
CorteLaser
 62
0
 10
500.0
 20
400.0
 30
0.0
 11
500.0
 21
375.0
 31
0.0
  0
LINE
  8
CorteLaser
 62
0
 10
756.0
 20
500.0
 30
0.0
 11
725.2
 21
500.0
 31
0.0
  0
LINE
  8
CorteLaser
 62
0
 10
494.0
 20
375.0
 30
0.0
 11
500.0
 21
375.0
 31
0.0
  0
LINE
  8
CorteLaser
 62
0
 10
756.0
 20
475.0
 30
0.0
 11
756.0
 21
500.0
 31
0.0
  0
LINE
  8
CorteLaser
 62
0
 10
494.0
 20
350.0
 30
0.0
 11
494.0
 21
375.0
 31
0.0
  0
LINE
  8
CorteLaser
 62
0
 10
494.0
 20
350.0
 30
0.0
 11
500.0
 21
350.0
 31
0.0
  0
LINE
  8
CorteLaser
 62
0
 10
500.0
 20
350.0
 30
0.0
 11
500.0
 21
325.0
 31
0.0
  0
LINE
  8
CorteLaser
 62
0
 10
750.0
 20
450.0
 30
0.0
 11
756.0
 21
450.0
 31
0.0
  0
LINE
  8
CorteLaser
 62
0
 10
494.0
 20
325.0
 30
0.0
 11
500.0
 21
325.0
 31
0.0
  0
LINE
  8
CorteLaser
 62
0
 10
756.0
 20
425.0
 30
0.0
 11
756.0
 21
450.0
 31
0.0
  0
LINE
  8
CorteLaser
 62
0
 10
494.0
 20
300.0
 30
0.0
 11
494.0
 21
325.0
 31
0.0
  0
LINE
  8
CorteLaser
 62
0
 10
750.0
 20
425.0
 30
0.0
 11
756.0
 21
425.0
 31
0.0
  0
LINE
  8
CorteLaser
 62
0
 10
494.0
 20
300.0
 30
0.0
 11
500.0
 21
300.0
 31
0.0
  0
LINE
  8
CorteLaser
 62
0
 10
750.0
 20
400.0
 30
0.0
 11
750.0
 21
425.0
 31
0.0
  0
LINE
  8
CorteLaser
 62
0
 10
500.0
 20
300.0
 30
0.0
 11
500.0
 21
275.0
 31
0.0
  0
LINE
  8
CorteLaser
 62
0
 10
750.0
 20
400.0
 30
0.0
 11
756.0
 21
400.0
 31
0.0
  0
LINE
  8
CorteLaser
 62
0
 10
494.0
 20
275.0
 30
0.0
 11
500.0
 21
275.0
 31
0.0
  0
LINE
  8
CorteLaser
 62
0
 10
756.0
 20
375.0
 30
0.0
 11
756.0
 21
400.0
 31
0.0
  0
LINE
  8
CorteLaser
 62
0
 10
494.0
 20
250.0
 30
0.0
 11
494.0
 21
275.0
 31
0.0
  0
LINE
  8
CorteLaser
 62
0
 10
750.0
 20
375.0
 30
0.0
 11
756.0
 21
375.0
 31
0.0
  0
LINE
  8
CorteLaser
 62
0
 10
494.0
 20
250.0
 30
0.0
 11
500.0
 21
250.0
 31
0.0
  0
LINE
  8
CorteLaser
 62
0
 10
750.0
 20
350.0
 30
0.0
 11
750.0
 21
375.0
 31
0.0
  0
LINE
  8
CorteLaser
 62
0
 10
500.0
 20
250.0
 30
0.0
 11
500.0
 21
225.0
 31
0.0
  0
LINE
  8
CorteLaser
 62
0
 10
750.0
 20
350.0
 30
0.0
 11
756.0
 21
350.0
 31
0.0
  0
LINE
  8
CorteLaser
 62
0
 10
494.0
 20
225.0
 30
0.0
 11
500.0
 21
225.0
 31
0.0
  0
LINE
  8
CorteLaser
 62
0
 10
756.0
 20
325.0
 30
0.0
 11
756.0
 21
350.0
 31
0.0
  0
LINE
  8
CorteLaser
 62
0
 10
494.0
 20
200.0
 30
0.0
 11
494.0
 21
225.0
 31
0.0
  0
LINE
  8
CorteLaser
 62
0
 10
750.0
 20
325.0
 30
0.0
 11
756.0
 21
325.0
 31
0.0
  0
LINE
  8
CorteLaser
 62
0
 10
494.0
 20
200.0
 30
0.0
 11
524.8
 21
200.0
 31
0.0
  0
LINE
  8
CorteLaser
 62
0
 10
750.0
 20
300.0
 30
0.0
 11
750.0
 21
325.0
 31
0.0
  0
LINE
  8
CorteLaser
 62
0
 10
524.8
 20
206.2
 30
0.0
 11
524.8
 21
200.0
 31
0.0
  0
LINE
  8
CorteLaser
 62
0
 10
750.0
 20
300.0
 30
0.0
 11
756.0
 21
300.0
 31
0.0
  0
ARC
  8
CorteLaser
 62
0
 10
527.9
 20
206.2
 30
0.0
 40
3.1
 50
0.0
 51
180.0
  0
LINE
  8
CorteLaser
 62
0
 10
756.0
 20
275.0
 30
0.0
 11
756.0
 21
300.0
 31
0.0
  0
LINE
  8
CorteLaser
 62
0
 10
531.0
 20
200.0
 30
0.0
 11
531.0
 21
206.2
 31
0.0
  0
LINE
  8
CorteLaser
 62
0
 10
750.0
 20
275.0
 30
0.0
 11
756.0
 21
275.0
 31
0.0
  0
LINE
  8
CorteLaser
 62
0
 10
531.0
 20
200.0
 30
0.0
 11
719.0
 21
200.0
 31
0.0
  0
LINE
  8
CorteLaser
 62
0
 10
750.0
 20
250.0
 30
0.0
 11
750.0
 21
275.0
 31
0.0
  0
LINE
  8
CorteLaser
 62
0
 10
719.0
 20
200.0
 30
0.0
 11
719.0
 21
206.2
 31
0.0
  0
LINE
  8
CorteLaser
 62
0
 10
750.0
 20
250.0
 30
0.0
 11
756.0
 21
250.0
 31
0.0
  0
ARC
  8
CorteLaser
 62
0
 10
722.1
 20
206.2
 30
0.0
 40
3.1
 50
0.0
 51
180.0
  0
LINE
  8
CorteLaser
 62
0
 10
756.0
 20
225.0
 30
0.0
 11
756.0
 21
250.0
 31
0.0
  0
LINE
  8
CorteLaser
 62
0
 10
725.2
 20
206.2
 30
0.0
 11
725.2
 21
200.0
 31
0.0
  0
LINE
  8
CorteLaser
 62
0
 10
750.0
 20
225.0
 30
0.0
 11
756.0
 21
225.0
 31
0.0
  0
LINE
  8
CorteLaser
 62
0
 10
725.2
 20
200.0
 30
0.0
 11
750.0
 21
200.0
 31
0.0
  0
LINE
  8
CorteLaser
 62
0
 10
750.0
 20
200.0
 30
0.0
 11
750.0
 21
225.0
 31
0.0
  0
CIRCLE
  8
CorteLaser
 62
0
 10
628.0
 20
278.0
 30
0.0
 40
2.2
  0
CIRCLE
  8
CorteLaser
 62
0
 10
625.0
 20
212.0
 30
0.0
 40
2.1
  0
CIRCLE
  8
CorteLaser
 62
0
 10
625.0
 20
204.0
 30
0.0
 40
2.1
  0
CIRCLE
  8
CorteLaser
 62
0
 10
628.0
 20
230.0
 30
0.0
 40
2.2
  0
CIRCLE
  8
CorteLaser
 62
0
 10
730.0
 20
212.0
 30
0.0
 40
2.2
  0
CIRCLE
  8
CorteLaser
 62
0
 10
677.5
 20
204.0
 30
0.0
 40
2.1
  0
CIRCLE
  8
CorteLaser
 62
0
 10
715.0
 20
484.0
 30
0.0
 40
2.2
  0
CIRCLE
  8
CorteLaser
 62
0
 10
572.5
 20
204.0
 30
0.0
 40
2.1
  0
ARC
  8
CorteLaser
 62
0
 10
618.8
 20
268.8
 30
0.0
 40
10.0
 50
0.0
 51
90.0
  0
LINE
  8
CorteLaser
 62
0
 10
529.2
 20
278.8
 30
0.0
 11
618.8
 21
278.8
 31
0.0
  0
ARC
  8
CorteLaser
 62
0
 10
529.2
 20
268.8
 30
0.0
 40
10.0
 50
90.0
 51
-180.0
  0
LINE
  8
CorteLaser
 62
0
 10
519.2
 20
239.2
 30
0.0
 11
519.2
 21
268.8
 31
0.0
  0
ARC
  8
CorteLaser
 62
0
 10
529.2
 20
239.2
 30
0.0
 40
10.0
 50
-180.0
 51
-90.0
  0
LINE
  8
CorteLaser
 62
0
 10
618.8
 20
229.2
 30
0.0
 11
529.2
 21
229.2
 31
0.0
  0
ARC
  8
CorteLaser
 62
0
 10
618.8
 20
239.2
 30
0.0
 40
10.0
 50
-90.0
 51
0.0
  0
LINE
  8
CorteLaser
 62
0
 10
628.8
 20
268.8
 30
0.0
 11
628.8
 21
239.2
 31
0.0
  0
CIRCLE
  8
CorteLaser
 62
0
 10
572.5
 20
212.0
 30
0.0
 40
2.1
  0
CIRCLE
  8
CorteLaser
 62
0
 10
535.0
 20
484.0
 30
0.0
 40
2.2
  0
CIRCLE
  8
CorteLaser
 62
0
 10
535.0
 20
456.0
 30
0.0
 40
2.2
  0
CIRCLE
  8
CorteLaser
 62
0
 10
677.5
 20
212.0
 30
0.0
 40
2.1
  0
CIRCLE
  8
CorteLaser
 62
0
 10
520.0
 20
212.0
 30
0.0
 40
2.2
  0
CIRCLE
  8
CorteLaser
 62
0
 10
520.0
 20
278.0
 30
0.0
 40
2.2
  0
ARC
  8
CorteLaser
 62
0
 10
723.0
 20
325.0
 30
0.0
 40
15.0
 50
-90.0
 51
0.0
  0
LINE
  8
CorteLaser
 62
0
 10
738.0
 20
430.0
 30
0.0
 11
738.0
 21
325.0
 31
0.0
  0
ARC
  8
CorteLaser
 62
0
 10
723.0
 20
430.0
 30
0.0
 40
15.0
 50
0.0
 51
90.0
  0
LINE
  8
CorteLaser
 62
0
 10
527.0
 20
445.0
 30
0.0
 11
723.0
 21
445.0
 31
0.0
  0
ARC
  8
CorteLaser
 62
0
 10
527.0
 20
430.0
 30
0.0
 40
15.0
 50
90.0
 51
-180.0
  0
LINE
  8
CorteLaser
 62
0
 10
512.0
 20
325.0
 30
0.0
 11
512.0
 21
430.0
 31
0.0
  0
ARC
  8
CorteLaser
 62
0
 10
527.0
 20
325.0
 30
0.0
 40
15.0
 50
-180.0
 51
-90.0
  0
LINE
  8
CorteLaser
 62
0
 10
723.0
 20
310.0
 30
0.0
 11
527.0
 21
310.0
 31
0.0
  0
LINE
  8
CorteLaser
 62
0
 10
747.0
 20
225.0
 30
0.0
 11
667.0
 21
225.0
 31
0.0
  0
LINE
  8
CorteLaser
 62
0
 10
747.0
 20
285.0
 30
0.0
 11
747.0
 21
225.0
 31
0.0
  0
LINE
  8
CorteLaser
 62
0
 10
667.0
 20
285.0
 30
0.0
 11
747.0
 21
285.0
 31
0.0
  0
LINE
  8
CorteLaser
 62
0
 10
667.0
 20
225.0
 30
0.0
 11
667.0
 21
285.0
 31
0.0
  0
CIRCLE
  8
CorteLaser
 62
0
 10
520.0
 20
230.0
 30
0.0
 40
2.2
  0
CIRCLE
  8
CorteLaser
 62
0
 10
715.0
 20
456.0
 30
0.0
 40
2.2
  0
ENDBLK
  0
ENDSEC
  0
SECTION
  2
ENTITIES
  0
INSERT
  2
CLONE020
  8
0
 10
0.0
 20
0.0
 30
0.0
  0
ENDSEC
  0
EOF
