  0
SECTION
  2
HEADER
  9
$ACADVER
  1
AC1009
  9
$INSBASE
 10
0.0
 20
0.0
 30
0.0
  9
$EXTMIN
 10
0.0
 20
0.0
 30
0.0
  9
$EXTMAX
 10
0.0
 20
0.0
 30
0.0
  0
ENDSEC
  0
SECTION
  2
TABLES
  0
TABLE
  2
VPORT
 70
0
  0
ENDTAB
  0
TABLE
  2
LTYPE
 70
1
  0
LTYPE
  2
CONTINUOUS
 70
0
  3
Solid line
 72
65
 73
0
 40
0.0
  0
ENDTAB
  0
TABLE
  2
LAYER
 70
1
  0
LAYER
  2
0
 70
64
 62
7
  6
continuous
  0
ENDTAB
  0
TABLE
  2
STYLE
 70
1
  0
STYLE
  2
STANDARD
 70
0
 40
0
 41
1.0
 50
0.0
 71
0
 42
1
 3
ARIAL.TTF
 4

  0
ENDTAB
  0
TABLE
  2
VIEW
 70
0
  0
ENDTAB
  0
ENDSEC
  0
SECTION
  2
BLOCKS
  0
ENDSEC
  0
SECTION
  2
ENTITIES
  0
POLYLINE
  8
CorteLaser
 62
0
 70
1
 66
1
 10
0.0
 20
0.0
 30
0.0
  0
VERTEX
  8
CorteLaser
 10
500.0
 20
500.0
 30
-44.0
  0
VERTEX
  8
CorteLaser
 10
524.8
 20
500.0
 30
-44.0
  0
VERTEX
  8
CorteLaser
 10
524.8
 20
493.8
 30
-44.0
 42
1.0
  0
VERTEX
  8
CorteLaser
 10
531.0
 20
493.8
 30
-44.0
  0
VERTEX
  8
CorteLaser
 10
531.0
 20
500.0
 30
-44.0
  0
VERTEX
  8
CorteLaser
 10
719.0
 20
500.0
 30
-44.0
  0
VERTEX
  8
CorteLaser
 10
719.0
 20
493.8
 30
-44.0
 42
1.0
  0
VERTEX
  8
CorteLaser
 10
725.2
 20
493.8
 30
-44.0
  0
VERTEX
  8
CorteLaser
 10
725.2
 20
500.0
 30
-44.0
  0
VERTEX
  8
CorteLaser
 10
756.0
 20
500.0
 30
-44.0
  0
VERTEX
  8
CorteLaser
 10
756.0
 20
475.0
 30
-44.0
  0
VERTEX
  8
CorteLaser
 10
750.0
 20
475.0
 30
-44.0
  0
VERTEX
  8
CorteLaser
 10
750.0
 20
450.0
 30
-44.0
  0
VERTEX
  8
CorteLaser
 10
756.0
 20
450.0
 30
-44.0
  0
VERTEX
  8
CorteLaser
 10
756.0
 20
425.0
 30
-44.0
  0
VERTEX
  8
CorteLaser
 10
750.0
 20
425.0
 30
-44.0
  0
VERTEX
  8
CorteLaser
 10
750.0
 20
400.0
 30
-44.0
  0
VERTEX
  8
CorteLaser
 10
756.0
 20
400.0
 30
-44.0
  0
VERTEX
  8
CorteLaser
 10
756.0
 20
375.0
 30
-44.0
  0
VERTEX
  8
CorteLaser
 10
750.0
 20
375.0
 30
-44.0
  0
VERTEX
  8
CorteLaser
 10
750.0
 20
350.0
 30
-44.0
  0
VERTEX
  8
CorteLaser
 10
756.0
 20
350.0
 30
-44.0
  0
VERTEX
  8
CorteLaser
 10
756.0
 20
325.0
 30
-44.0
  0
VERTEX
  8
CorteLaser
 10
750.0
 20
325.0
 30
-44.0
  0
VERTEX
  8
CorteLaser
 10
750.0
 20
300.0
 30
-44.0
  0
VERTEX
  8
CorteLaser
 10
756.0
 20
300.0
 30
-44.0
  0
VERTEX
  8
CorteLaser
 10
756.0
 20
275.0
 30
-44.0
  0
VERTEX
  8
CorteLaser
 10
750.0
 20
275.0
 30
-44.0
  0
VERTEX
  8
CorteLaser
 10
750.0
 20
250.0
 30
-44.0
  0
VERTEX
  8
CorteLaser
 10
756.0
 20
250.0
 30
-44.0
  0
VERTEX
  8
CorteLaser
 10
756.0
 20
225.0
 30
-44.0
  0
VERTEX
  8
CorteLaser
 10
750.0
 20
225.0
 30
-44.0
  0
VERTEX
  8
CorteLaser
 10
750.0
 20
200.0
 30
-44.0
  0
VERTEX
  8
CorteLaser
 10
725.2
 20
200.0
 30
-44.0
  0
VERTEX
  8
CorteLaser
 10
725.2
 20
206.2
 30
-44.0
 42
1.0
  0
VERTEX
  8
CorteLaser
 10
719.0
 20
206.2
 30
-44.0
  0
VERTEX
  8
CorteLaser
 10
719.0
 20
200.0
 30
-44.0
  0
VERTEX
  8
CorteLaser
 10
655.25
 20
200.0
 30
-44.0
  0
VERTEX
  8
CorteLaser
 10
655.25
 20
205.0
 30
-44.0
 42
1.0
  0
VERTEX
  8
CorteLaser
 10
647.25
 20
205.0
 30
-44.0
  0
VERTEX
  8
CorteLaser
 10
647.25
 20
200.0
 30
-44.0
  0
VERTEX
  8
CorteLaser
 10
531.0
 20
200.0
 30
-44.0
  0
VERTEX
  8
CorteLaser
 10
531.0
 20
206.2
 30
-44.0
 42
1.0
  0
VERTEX
  8
CorteLaser
 10
524.8
 20
206.2
 30
-44.0
  0
VERTEX
  8
CorteLaser
 10
524.8
 20
200.0
 30
-44.0
  0
VERTEX
  8
CorteLaser
 10
494.0
 20
200.0
 30
-44.0
  0
VERTEX
  8
CorteLaser
 10
494.0
 20
225.0
 30
-44.0
  0
VERTEX
  8
CorteLaser
 10
500.0
 20
225.0
 30
-44.0
  0
VERTEX
  8
CorteLaser
 10
500.0
 20
250.0
 30
-44.0
  0
VERTEX
  8
CorteLaser
 10
494.0
 20
250.0
 30
-44.0
  0
VERTEX
  8
CorteLaser
 10
494.0
 20
275.0
 30
-44.0
  0
VERTEX
  8
CorteLaser
 10
500.0
 20
275.0
 30
-44.0
  0
VERTEX
  8
CorteLaser
 10
500.0
 20
300.0
 30
-44.0
  0
VERTEX
  8
CorteLaser
 10
494.0
 20
300.0
 30
-44.0
  0
VERTEX
  8
CorteLaser
 10
494.0
 20
325.0
 30
-44.0
  0
VERTEX
  8
CorteLaser
 10
500.0
 20
325.0
 30
-44.0
  0
VERTEX
  8
CorteLaser
 10
500.0
 20
350.0
 30
-44.0
  0
VERTEX
  8
CorteLaser
 10
494.0
 20
350.0
 30
-44.0
  0
VERTEX
  8
CorteLaser
 10
494.0
 20
375.0
 30
-44.0
  0
VERTEX
  8
CorteLaser
 10
500.0
 20
375.0
 30
-44.0
  0
VERTEX
  8
CorteLaser
 10
500.0
 20
400.0
 30
-44.0
  0
VERTEX
  8
CorteLaser
 10
494.0
 20
400.0
 30
-44.0
  0
VERTEX
  8
CorteLaser
 10
494.0
 20
425.0
 30
-44.0
  0
VERTEX
  8
CorteLaser
 10
500.0
 20
425.0
 30
-44.0
  0
VERTEX
  8
CorteLaser
 10
500.0
 20
450.0
 30
-44.0
  0
VERTEX
  8
CorteLaser
 10
494.0
 20
450.0
 30
-44.0
  0
VERTEX
  8
CorteLaser
 10
494.0
 20
475.0
 30
-44.0
  0
VERTEX
  8
CorteLaser
 10
500.0
 20
475.0
 30
-44.0
  0
SEQEND
  8
CorteLaser
  0
CIRCLE
  8
CorteLaser
 62
0
 10
715.0
 20
484.0
 30
-44.0
 40
2.2
  0
CIRCLE
  8
CorteLaser
 62
0
 10
635.25
 20
205.0
 30
-44.0
 40
2.2
  0
CIRCLE
  8
CorteLaser
 62
0
 10
520.0
 20
230.0
 30
-44.0
 40
2.2
  0
POLYLINE
  8
CorteLaser
 62
0
 70
1
 66
1
 10
0.0
 20
0.0
 30
0.0
  0
VERTEX
  8
CorteLaser
 10
723.0
 20
310.0
 30
-44.0
 42
0.414213562373
  0
VERTEX
  8
CorteLaser
 10
738.0
 20
325.0
 30
-44.0
  0
VERTEX
  8
CorteLaser
 10
738.0
 20
430.0
 30
-44.0
 42
0.414213562373
  0
VERTEX
  8
CorteLaser
 10
723.0
 20
445.0
 30
-44.0
  0
VERTEX
  8
CorteLaser
 10
527.0
 20
445.0
 30
-44.0
 42
0.414213562373
  0
VERTEX
  8
CorteLaser
 10
512.0
 20
430.0
 30
-44.0
  0
VERTEX
  8
CorteLaser
 10
512.0
 20
325.0
 30
-44.0
 42
0.414213562373
  0
VERTEX
  8
CorteLaser
 10
527.0
 20
310.0
 30
-44.0
  0
SEQEND
  8
CorteLaser
  0
CIRCLE
  8
CorteLaser
 62
0
 10
628.0
 20
230.0
 30
-44.0
 40
2.2
  0
CIRCLE
  8
CorteLaser
 62
0
 10
535.0
 20
456.0
 30
-44.0
 40
2.2
  0
CIRCLE
  8
CorteLaser
 62
0
 10
715.0
 20
456.0
 30
-44.0
 40
2.2
  0
CIRCLE
  8
CorteLaser
 62
0
 10
625.0
 20
212.0
 30
-44.0
 40
2.1
  0
CIRCLE
  8
CorteLaser
 62
0
 10
667.25
 20
205.0
 30
-44.0
 40
2.2
  0
POLYLINE
  8
CorteLaser
 62
0
 70
1
 66
1
 10
0.0
 20
0.0
 30
0.0
  0
VERTEX
  8
CorteLaser
 10
747.0
 20
225.0
 30
-44.0
  0
VERTEX
  8
CorteLaser
 10
667.0
 20
225.0
 30
-44.0
  0
VERTEX
  8
CorteLaser
 10
667.0
 20
285.0
 30
-44.0
  0
VERTEX
  8
CorteLaser
 10
747.0
 20
285.0
 30
-44.0
  0
SEQEND
  8
CorteLaser
  0
CIRCLE
  8
CorteLaser
 62
0
 10
677.5
 20
204.0
 30
-44.0
 40
2.1
  0
CIRCLE
  8
CorteLaser
 62
0
 10
625.0
 20
204.0
 30
-44.0
 40
2.1
  0
CIRCLE
  8
CorteLaser
 62
0
 10
730.0
 20
212.0
 30
-44.0
 40
2.2
  0
POLYLINE
  8
CorteLaser
 62
0
 70
1
 66
1
 10
0.0
 20
0.0
 30
0.0
  0
VERTEX
  8
CorteLaser
 10
628.8
 20
268.8
 30
-44.0
 42
0.414213562373
  0
VERTEX
  8
CorteLaser
 10
618.8
 20
278.8
 30
-44.0
  0
VERTEX
  8
CorteLaser
 10
529.2
 20
278.8
 30
-44.0
 42
0.414213562373
  0
VERTEX
  8
CorteLaser
 10
519.2
 20
268.8
 30
-44.0
  0
VERTEX
  8
CorteLaser
 10
519.2
 20
239.2
 30
-44.0
 42
0.414213562373
  0
VERTEX
  8
CorteLaser
 10
529.2
 20
229.2
 30
-44.0
  0
VERTEX
  8
CorteLaser
 10
618.8
 20
229.2
 30
-44.0
 42
0.414213562373
  0
VERTEX
  8
CorteLaser
 10
628.8
 20
239.2
 30
-44.0
  0
SEQEND
  8
CorteLaser
  0
CIRCLE
  8
CorteLaser
 62
0
 10
572.5
 20
204.0
 30
-44.0
 40
2.1
  0
CIRCLE
  8
CorteLaser
 62
0
 10
628.0
 20
278.0
 30
-44.0
 40
2.2
  0
CIRCLE
  8
CorteLaser
 62
0
 10
535.0
 20
484.0
 30
-44.0
 40
2.2
  0
CIRCLE
  8
CorteLaser
 62
0
 10
677.5
 20
212.0
 30
-44.0
 40
2.1
  0
CIRCLE
  8
CorteLaser
 62
0
 10
520.0
 20
212.0
 30
-44.0
 40
2.2
  0
CIRCLE
  8
CorteLaser
 62
0
 10
520.0
 20
278.0
 30
-44.0
 40
2.2
  0
CIRCLE
  8
CorteLaser
 62
0
 10
572.5
 20
212.0
 30
-44.0
 40
2.1
  0
ENDSEC
  0
EOF
