  0
SECTION
  2
HEADER
  9
$ACADVER
  1
AC1009
  9
$INSBASE
 10
0.0
 20
0.0
 30
0.0
  9
$EXTMIN
 10
0.0
 20
0.0
 30
0.0
  9
$EXTMAX
 10
0.0
 20
0.0
 30
0.0
  0
ENDSEC
  0
SECTION
  2
TABLES
  0
TABLE
  2
VPORT
 70
0
  0
ENDTAB
  0
TABLE
  2
LTYPE
 70
1
  0
LTYPE
  2
CONTINUOUS
 70
0
  3
Solid line
 72
65
 73
0
 40
0.0
  0
ENDTAB
  0
TABLE
  2
LAYER
 70
1
  0
LAYER
  2
0
 70
64
 62
7
  6
continuous
  0
ENDTAB
  0
TABLE
  2
STYLE
 70
1
  0
STYLE
  2
STANDARD
 70
0
 40
0
 41
1.0
 50
0.0
 71
0
 42
1
 3
ARIAL.TTF
 4

  0
ENDTAB
  0
TABLE
  2
VIEW
 70
0
  0
ENDTAB
  0
ENDSEC
  0
SECTION
  2
BLOCKS
  0
BLOCK
  8
CorteLaser
  2
FACEBINDER004
 70
0
 10
0.0
 20
0.0
 30
0.0
  3
FACEBINDER004
  0
LINE
  8
CorteLaser
 62
0
 10
500.0
 20
150.0
 30
0.0
 11
500.0
 21
125.0
 31
0.0
  0
LINE
  8
CorteLaser
 62
0
 10
500.0
 20
150.0
 30
0.0
 11
524.8
 21
150.0
 31
0.0
  0
LINE
  8
CorteLaser
 62
0
 10
494.0
 20
125.0
 30
0.0
 11
500.0
 21
125.0
 31
0.0
  0
LINE
  8
CorteLaser
 62
0
 10
524.8
 20
143.8
 30
0.0
 11
524.8
 21
150.0
 31
0.0
  0
LINE
  8
CorteLaser
 62
0
 10
494.0
 20
100.0
 30
0.0
 11
494.0
 21
125.0
 31
0.0
  0
ARC
  8
CorteLaser
 62
0
 10
527.9
 20
143.8
 30
0.0
 40
3.1
 50
-180.0
 51
-0.0
  0
LINE
  8
CorteLaser
 62
0
 10
494.0
 20
100.0
 30
0.0
 11
500.0
 21
100.0
 31
0.0
  0
LINE
  8
CorteLaser
 62
0
 10
531.0
 20
150.0
 30
0.0
 11
531.0
 21
143.8
 31
0.0
  0
LINE
  8
CorteLaser
 62
0
 10
500.0
 20
100.0
 30
0.0
 11
500.0
 21
75.0
 31
0.0
  0
LINE
  8
CorteLaser
 62
0
 10
531.0
 20
150.0
 30
0.0
 11
719.0
 21
150.0
 31
0.0
  0
LINE
  8
CorteLaser
 62
0
 10
494.0
 20
75.0
 30
0.0
 11
500.0
 21
75.0
 31
0.0
  0
LINE
  8
CorteLaser
 62
0
 10
719.0
 20
143.8
 30
0.0
 11
719.0
 21
150.0
 31
0.0
  0
LINE
  8
CorteLaser
 62
0
 10
494.0
 20
50.0
 30
0.0
 11
494.0
 21
75.0
 31
0.0
  0
ARC
  8
CorteLaser
 62
0
 10
722.1
 20
143.8
 30
0.0
 40
3.1
 50
180.0
 51
0.0
  0
LINE
  8
CorteLaser
 62
0
 10
494.0
 20
50.0
 30
0.0
 11
500.0
 21
50.0
 31
0.0
  0
LINE
  8
CorteLaser
 62
0
 10
725.2
 20
150.0
 30
0.0
 11
725.2
 21
143.8
 31
0.0
  0
LINE
  8
CorteLaser
 62
0
 10
500.0
 20
50.0
 30
0.0
 11
500.0
 21
25.0
 31
0.0
  0
LINE
  8
CorteLaser
 62
0
 10
725.2
 20
150.0
 30
0.0
 11
756.0
 21
150.0
 31
0.0
  0
LINE
  8
CorteLaser
 62
0
 10
494.0
 20
25.0
 30
0.0
 11
500.0
 21
25.0
 31
0.0
  0
LINE
  8
CorteLaser
 62
0
 10
756.0
 20
125.0
 30
0.0
 11
756.0
 21
150.0
 31
0.0
  0
LINE
  8
CorteLaser
 62
0
 10
494.0
 20
2.975397706e-14
 30
0.0
 11
494.0
 21
25.0
 31
0.0
  0
LINE
  8
CorteLaser
 62
0
 10
750.0
 20
125.0
 30
0.0
 11
756.0
 21
125.0
 31
0.0
  0
LINE
  8
CorteLaser
 62
0
 10
494.0
 20
2.975397706e-14
 30
0.0
 11
500.0
 21
2.84217094304e-14
 31
0.0
  0
LINE
  8
CorteLaser
 62
0
 10
750.0
 20
100.0
 30
0.0
 11
750.0
 21
125.0
 31
0.0
  0
LINE
  8
CorteLaser
 62
0
 10
500.0
 20
0.0
 30
0.0
 11
500.0
 21
-25.0
 31
0.0
  0
LINE
  8
CorteLaser
 62
0
 10
750.0
 20
100.0
 30
0.0
 11
756.0
 21
100.0
 31
0.0
  0
LINE
  8
CorteLaser
 62
0
 10
494.0
 20
-25.0
 30
0.0
 11
500.0
 21
-25.0
 31
0.0
  0
LINE
  8
CorteLaser
 62
0
 10
756.0
 20
75.0
 30
0.0
 11
756.0
 21
100.0
 31
0.0
  0
LINE
  8
CorteLaser
 62
0
 10
494.0
 20
-50.0
 30
0.0
 11
494.0
 21
-25.0
 31
0.0
  0
LINE
  8
CorteLaser
 62
0
 10
750.0
 20
75.0
 30
0.0
 11
756.0
 21
75.0
 31
0.0
  0
LINE
  8
CorteLaser
 62
0
 10
494.0
 20
-50.0
 30
0.0
 11
500.0
 21
-50.0
 31
0.0
  0
LINE
  8
CorteLaser
 62
0
 10
750.0
 20
50.0
 30
0.0
 11
750.0
 21
75.0
 31
0.0
  0
LINE
  8
CorteLaser
 62
0
 10
500.0
 20
-50.0
 30
0.0
 11
500.0
 21
-75.0
 31
0.0
  0
LINE
  8
CorteLaser
 62
0
 10
750.0
 20
50.0
 30
0.0
 11
756.0
 21
50.0
 31
0.0
  0
LINE
  8
CorteLaser
 62
0
 10
494.0
 20
-75.0
 30
0.0
 11
500.0
 21
-75.0
 31
0.0
  0
LINE
  8
CorteLaser
 62
0
 10
756.0
 20
25.0
 30
0.0
 11
756.0
 21
50.0
 31
0.0
  0
LINE
  8
CorteLaser
 62
0
 10
494.0
 20
-100.0
 30
0.0
 11
494.0
 21
-75.0
 31
0.0
  0
LINE
  8
CorteLaser
 62
0
 10
750.0
 20
25.0
 30
0.0
 11
756.0
 21
25.0
 31
0.0
  0
LINE
  8
CorteLaser
 62
0
 10
494.0
 20
-100.0
 30
0.0
 11
500.0
 21
-100.0
 31
0.0
  0
LINE
  8
CorteLaser
 62
0
 10
750.0
 20
0.0
 30
0.0
 11
750.0
 21
25.0
 31
0.0
  0
LINE
  8
CorteLaser
 62
0
 10
500.0
 20
-100.0
 30
0.0
 11
500.0
 21
-125.0
 31
0.0
  0
LINE
  8
CorteLaser
 62
0
 10
750.0
 20
-1.7763568394e-14
 30
0.0
 11
756.0
 21
-1.90958360236e-14
 31
0.0
  0
LINE
  8
CorteLaser
 62
0
 10
494.0
 20
-125.0
 30
0.0
 11
500.0
 21
-125.0
 31
0.0
  0
LINE
  8
CorteLaser
 62
0
 10
756.0
 20
-25.0
 30
0.0
 11
756.0
 21
-1.42108547152e-14
 31
0.0
  0
LINE
  8
CorteLaser
 62
0
 10
494.0
 20
-150.0
 30
0.0
 11
494.0
 21
-125.0
 31
0.0
  0
LINE
  8
CorteLaser
 62
0
 10
750.0
 20
-25.0
 30
0.0
 11
756.0
 21
-25.0
 31
0.0
  0
LINE
  8
CorteLaser
 62
0
 10
494.0
 20
-150.0
 30
0.0
 11
524.8
 21
-150.0
 31
0.0
  0
LINE
  8
CorteLaser
 62
0
 10
750.0
 20
-50.0
 30
0.0
 11
750.0
 21
-25.0
 31
0.0
  0
LINE
  8
CorteLaser
 62
0
 10
524.8
 20
-143.8
 30
0.0
 11
524.8
 21
-150.0
 31
0.0
  0
LINE
  8
CorteLaser
 62
0
 10
750.0
 20
-50.0
 30
0.0
 11
756.0
 21
-50.0
 31
0.0
  0
ARC
  8
CorteLaser
 62
0
 10
527.9
 20
-143.8
 30
0.0
 40
3.1
 50
0.0
 51
180.0
  0
LINE
  8
CorteLaser
 62
0
 10
756.0
 20
-75.0
 30
0.0
 11
756.0
 21
-50.0
 31
0.0
  0
LINE
  8
CorteLaser
 62
0
 10
531.0
 20
-150.0
 30
0.0
 11
531.0
 21
-143.8
 31
0.0
  0
LINE
  8
CorteLaser
 62
0
 10
750.0
 20
-75.0
 30
0.0
 11
756.0
 21
-75.0
 31
0.0
  0
LINE
  8
CorteLaser
 62
0
 10
531.0
 20
-150.0
 30
0.0
 11
719.0
 21
-150.0
 31
0.0
  0
LINE
  8
CorteLaser
 62
0
 10
750.0
 20
-100.0
 30
0.0
 11
750.0
 21
-75.0
 31
0.0
  0
LINE
  8
CorteLaser
 62
0
 10
719.0
 20
-150.0
 30
0.0
 11
719.0
 21
-143.8
 31
0.0
  0
LINE
  8
CorteLaser
 62
0
 10
750.0
 20
-100.0
 30
0.0
 11
756.0
 21
-100.0
 31
0.0
  0
ARC
  8
CorteLaser
 62
0
 10
722.1
 20
-143.8
 30
0.0
 40
3.1
 50
-0.0
 51
-180.0
  0
LINE
  8
CorteLaser
 62
0
 10
756.0
 20
-125.0
 30
0.0
 11
756.0
 21
-100.0
 31
0.0
  0
LINE
  8
CorteLaser
 62
0
 10
725.2
 20
-143.8
 30
0.0
 11
725.2
 21
-150.0
 31
0.0
  0
LINE
  8
CorteLaser
 62
0
 10
750.0
 20
-125.0
 30
0.0
 11
756.0
 21
-125.0
 31
0.0
  0
LINE
  8
CorteLaser
 62
0
 10
725.2
 20
-150.0
 30
0.0
 11
750.0
 21
-150.0
 31
0.0
  0
LINE
  8
CorteLaser
 62
0
 10
750.0
 20
-150.0
 30
0.0
 11
750.0
 21
-125.0
 31
0.0
  0
CIRCLE
  8
CorteLaser
 62
0
 10
508.5
 20
-124.0
 30
0.0
 40
2.1
  0
CIRCLE
  8
CorteLaser
 62
0
 10
538.5
 20
-124.0
 30
0.0
 40
2.1
  0
CIRCLE
  8
CorteLaser
 62
0
 10
572.5
 20
-138.0
 30
0.0
 40
2.1
  0
CIRCLE
  8
CorteLaser
 62
0
 10
617.0
 20
-134.0
 30
0.0
 40
2.1
  0
CIRCLE
  8
CorteLaser
 62
0
 10
544.0
 20
24.0
 30
0.0
 40
2.2
  0
CIRCLE
  8
CorteLaser
 62
0
 10
677.5
 20
-146.0
 30
0.0
 40
2.1
  0
CIRCLE
  8
CorteLaser
 62
0
 10
508.5
 20
-36.0
 30
0.0
 40
2.1
  0
CIRCLE
  8
CorteLaser
 62
0
 10
520.0
 20
-138.0
 30
0.0
 40
2.2
  0
CIRCLE
  8
CorteLaser
 62
0
 10
722.0
 20
44.0
 30
0.0
 40
2.2
  0
CIRCLE
  8
CorteLaser
 62
0
 10
530.0
 20
48.0
 30
0.0
 40
2.2
  0
CIRCLE
  8
CorteLaser
 62
0
 10
538.5
 20
-36.0
 30
0.0
 40
2.1
  0
CIRCLE
  8
CorteLaser
 62
0
 10
705.0
 20
-134.0
 30
0.0
 40
2.1
  0
CIRCLE
  8
CorteLaser
 62
0
 10
597.0
 20
-134.0
 30
0.0
 40
2.1
  0
CIRCLE
  8
CorteLaser
 62
0
 10
625.0
 20
-146.0
 30
0.0
 40
2.1
  0
CIRCLE
  8
CorteLaser
 62
0
 10
730.0
 20
-138.0
 30
0.0
 40
2.2
  0
CIRCLE
  8
CorteLaser
 62
0
 10
530.0
 20
-8.52651282912e-14
 30
0.0
 40
2.2
  0
CIRCLE
  8
CorteLaser
 62
0
 10
715.0
 20
106.0
 30
0.0
 40
2.2
  0
CIRCLE
  8
CorteLaser
 62
0
 10
535.0
 20
134.0
 30
0.0
 40
2.2
  0
LINE
  8
CorteLaser
 62
0
 10
712.0
 20
34.0
 30
0.0
 11
732.0
 21
34.0
 31
0.0
  0
LINE
  8
CorteLaser
 62
0
 10
712.0
 20
34.0
 30
0.0
 11
712.0
 21
95.0
 31
0.0
  0
LINE
  8
CorteLaser
 62
0
 10
732.0
 20
34.0
 30
0.0
 11
732.0
 21
14.0
 31
0.0
  0
LINE
  8
CorteLaser
 62
0
 10
712.0
 20
95.0
 30
0.0
 11
554.0
 21
95.0
 31
0.0
  0
LINE
  8
CorteLaser
 62
0
 10
732.0
 20
14.0
 30
0.0
 11
712.0
 21
14.0
 31
0.0
  0
LINE
  8
CorteLaser
 62
0
 10
554.0
 20
95.0
 30
0.0
 11
554.0
 21
42.0
 31
0.0
  0
LINE
  8
CorteLaser
 62
0
 10
712.0
 20
-47.0
 30
0.0
 11
712.0
 21
14.0
 31
0.0
  0
LINE
  8
CorteLaser
 62
0
 10
554.0
 20
42.0
 30
0.0
 11
519.0
 21
42.0
 31
0.0
  0
LINE
  8
CorteLaser
 62
0
 10
554.0
 20
-47.0
 30
0.0
 11
712.0
 21
-47.0
 31
0.0
  0
LINE
  8
CorteLaser
 62
0
 10
519.0
 20
42.0
 30
0.0
 11
519.0
 21
33.0
 31
0.0
  0
LINE
  8
CorteLaser
 62
0
 10
554.0
 20
6.0
 30
0.0
 11
554.0
 21
-47.0
 31
0.0
  0
LINE
  8
CorteLaser
 62
0
 10
519.0
 20
33.0
 30
0.0
 11
554.0
 21
33.0
 31
0.0
  0
LINE
  8
CorteLaser
 62
0
 10
519.0
 20
6.0
 30
0.0
 11
554.0
 21
6.0
 31
0.0
  0
LINE
  8
CorteLaser
 62
0
 10
554.0
 20
33.0
 30
0.0
 11
554.0
 21
15.0
 31
0.0
  0
LINE
  8
CorteLaser
 62
0
 10
519.0
 20
15.0
 30
0.0
 11
519.0
 21
6.0
 31
0.0
  0
LINE
  8
CorteLaser
 62
0
 10
554.0
 20
15.0
 30
0.0
 11
519.0
 21
15.0
 31
0.0
  0
CIRCLE
  8
CorteLaser
 62
0
 10
508.5
 20
-89.0
 30
0.0
 40
2.1
  0
CIRCLE
  8
CorteLaser
 62
0
 10
538.5
 20
-89.0
 30
0.0
 40
2.1
  0
CIRCLE
  8
CorteLaser
 62
0
 10
535.0
 20
106.0
 30
0.0
 40
2.2
  0
CIRCLE
  8
CorteLaser
 62
0
 10
572.5
 20
-146.0
 30
0.0
 40
2.1
  0
LINE
  8
CorteLaser
 62
0
 10
534.5
 20
-44.0
 30
0.0
 11
522.5
 21
-44.0
 31
0.0
  0
LINE
  8
CorteLaser
 62
0
 10
534.5
 20
-99.0
 30
0.0
 11
534.5
 21
-44.0
 31
0.0
  0
LINE
  8
CorteLaser
 62
0
 10
522.5
 20
-44.0
 30
0.0
 11
522.5
 21
-99.0
 31
0.0
  0
LINE
  8
CorteLaser
 62
0
 10
522.5
 20
-99.0
 30
0.0
 11
534.5
 21
-99.0
 31
0.0
  0
CIRCLE
  8
CorteLaser
 62
0
 10
677.5
 20
-138.0
 30
0.0
 40
2.1
  0
CIRCLE
  8
CorteLaser
 62
0
 10
625.0
 20
-138.0
 30
0.0
 40
2.1
  0
CIRCLE
  8
CorteLaser
 62
0
 10
715.0
 20
134.0
 30
0.0
 40
2.2
  0
CIRCLE
  8
CorteLaser
 62
0
 10
685.0
 20
-134.0
 30
0.0
 40
2.1
  0
CIRCLE
  8
CorteLaser
 62
0
 10
722.0
 20
4.0
 30
0.0
 40
2.2
  0
ENDBLK
  0
ENDSEC
  0
SECTION
  2
ENTITIES
  0
INSERT
  2
FACEBINDER004
  8
0
 10
0.0
 20
0.0
 30
0.0
  0
ENDSEC
  0
EOF
