  0
SECTION
  2
HEADER
  9
$ACADVER
  1
AC1009
  9
$INSBASE
 10
0.0
 20
0.0
 30
0.0
  9
$EXTMIN
 10
0.0
 20
0.0
 30
0.0
  9
$EXTMAX
 10
0.0
 20
0.0
 30
0.0
  0
ENDSEC
  0
SECTION
  2
TABLES
  0
TABLE
  2
VPORT
 70
0
  0
ENDTAB
  0
TABLE
  2
LTYPE
 70
1
  0
LTYPE
  2
CONTINUOUS
 70
0
  3
Solid line
 72
65
 73
0
 40
0.0
  0
ENDTAB
  0
TABLE
  2
LAYER
 70
1
  0
LAYER
  2
0
 70
64
 62
7
  6
continuous
  0
ENDTAB
  0
TABLE
  2
STYLE
 70
1
  0
STYLE
  2
STANDARD
 70
0
 40
0
 41
1.0
 50
0.0
 71
0
 42
1
 3
ARIAL.TTF
 4

  0
ENDTAB
  0
TABLE
  2
VIEW
 70
0
  0
ENDTAB
  0
ENDSEC
  0
SECTION
  2
BLOCKS
  0
BLOCK
  8
CorteLaser
  2
CLONE031
 70
0
 10
0.0
 20
0.0
 30
0.0
  3
CLONE031
  0
LINE
  8
CorteLaser
 62
0
 10
1050.0
 20
100.0
 30
0.0
 11
1050.0
 21
125.0
 31
0.0
  0
LINE
  8
CorteLaser
 62
0
 10
1050.0
 20
125.0
 30
0.0
 11
1056.0
 21
125.0
 31
0.0
  0
LINE
  8
CorteLaser
 62
0
 10
800.0
 20
150.0
 30
0.0
 11
800.0
 21
125.0
 31
0.0
  0
LINE
  8
CorteLaser
 62
0
 10
800.0
 20
150.0
 30
0.0
 11
824.8
 21
150.0
 31
0.0
  0
LINE
  8
CorteLaser
 62
0
 10
794.0
 20
125.0
 30
0.0
 11
800.0
 21
125.0
 31
0.0
  0
LINE
  8
CorteLaser
 62
0
 10
824.8
 20
143.8
 30
0.0
 11
824.8
 21
150.0
 31
0.0
  0
LINE
  8
CorteLaser
 62
0
 10
794.0
 20
100.0
 30
0.0
 11
794.0
 21
125.0
 31
0.0
  0
ARC
  8
CorteLaser
 62
0
 10
827.9
 20
143.8
 30
0.0
 40
3.1
 50
-180.0
 51
-0.0
  0
LINE
  8
CorteLaser
 62
0
 10
794.0
 20
100.0
 30
0.0
 11
800.0
 21
100.0
 31
0.0
  0
LINE
  8
CorteLaser
 62
0
 10
831.0
 20
150.0
 30
0.0
 11
831.0
 21
143.8
 31
0.0
  0
LINE
  8
CorteLaser
 62
0
 10
800.0
 20
100.0
 30
0.0
 11
800.0
 21
75.0
 31
0.0
  0
LINE
  8
CorteLaser
 62
0
 10
831.0
 20
150.0
 30
0.0
 11
1019.0
 21
150.0
 31
0.0
  0
LINE
  8
CorteLaser
 62
0
 10
794.0
 20
75.0
 30
0.0
 11
800.0
 21
75.0
 31
0.0
  0
LINE
  8
CorteLaser
 62
0
 10
1019.0
 20
143.8
 30
0.0
 11
1019.0
 21
150.0
 31
0.0
  0
LINE
  8
CorteLaser
 62
0
 10
794.0
 20
50.0
 30
0.0
 11
794.0
 21
75.0
 31
0.0
  0
ARC
  8
CorteLaser
 62
0
 10
1022.1
 20
143.8
 30
0.0
 40
3.1
 50
180.0
 51
0.0
  0
LINE
  8
CorteLaser
 62
0
 10
794.0
 20
50.0
 30
0.0
 11
800.0
 21
50.0
 31
0.0
  0
LINE
  8
CorteLaser
 62
0
 10
1025.2
 20
150.0
 30
0.0
 11
1025.2
 21
143.8
 31
0.0
  0
LINE
  8
CorteLaser
 62
0
 10
800.0
 20
50.0
 30
0.0
 11
800.0
 21
25.0
 31
0.0
  0
LINE
  8
CorteLaser
 62
0
 10
1056.0
 20
150.0
 30
0.0
 11
1025.2
 21
150.0
 31
0.0
  0
LINE
  8
CorteLaser
 62
0
 10
794.0
 20
25.0
 30
0.0
 11
800.0
 21
25.0
 31
0.0
  0
LINE
  8
CorteLaser
 62
0
 10
1056.0
 20
125.0
 30
0.0
 11
1056.0
 21
150.0
 31
0.0
  0
LINE
  8
CorteLaser
 62
0
 10
794.0
 20
0.0
 30
0.0
 11
794.0
 21
25.0
 31
0.0
  0
LINE
  8
CorteLaser
 62
0
 10
794.0
 20
0.0
 30
0.0
 11
800.0
 21
0.0
 31
0.0
  0
LINE
  8
CorteLaser
 62
0
 10
800.0
 20
0.0
 30
0.0
 11
800.0
 21
-25.0
 31
0.0
  0
LINE
  8
CorteLaser
 62
0
 10
1050.0
 20
100.0
 30
0.0
 11
1056.0
 21
100.0
 31
0.0
  0
LINE
  8
CorteLaser
 62
0
 10
794.0
 20
-25.0
 30
0.0
 11
800.0
 21
-25.0
 31
0.0
  0
LINE
  8
CorteLaser
 62
0
 10
1056.0
 20
75.0
 30
0.0
 11
1056.0
 21
100.0
 31
0.0
  0
LINE
  8
CorteLaser
 62
0
 10
794.0
 20
-50.0
 30
0.0
 11
794.0
 21
-25.0
 31
0.0
  0
LINE
  8
CorteLaser
 62
0
 10
1050.0
 20
75.0
 30
0.0
 11
1056.0
 21
75.0
 31
0.0
  0
LINE
  8
CorteLaser
 62
0
 10
794.0
 20
-50.0
 30
0.0
 11
800.0
 21
-50.0
 31
0.0
  0
LINE
  8
CorteLaser
 62
0
 10
1050.0
 20
50.0
 30
0.0
 11
1050.0
 21
75.0
 31
0.0
  0
LINE
  8
CorteLaser
 62
0
 10
800.0
 20
-50.0
 30
0.0
 11
800.0
 21
-75.0
 31
0.0
  0
LINE
  8
CorteLaser
 62
0
 10
1050.0
 20
50.0
 30
0.0
 11
1056.0
 21
50.0
 31
0.0
  0
LINE
  8
CorteLaser
 62
0
 10
794.0
 20
-75.0
 30
0.0
 11
800.0
 21
-75.0
 31
0.0
  0
LINE
  8
CorteLaser
 62
0
 10
1056.0
 20
25.0
 30
0.0
 11
1056.0
 21
50.0
 31
0.0
  0
LINE
  8
CorteLaser
 62
0
 10
794.0
 20
-100.0
 30
0.0
 11
794.0
 21
-75.0
 31
0.0
  0
LINE
  8
CorteLaser
 62
0
 10
1050.0
 20
25.0
 30
0.0
 11
1056.0
 21
25.0
 31
0.0
  0
LINE
  8
CorteLaser
 62
0
 10
794.0
 20
-100.0
 30
0.0
 11
800.0
 21
-100.0
 31
0.0
  0
LINE
  8
CorteLaser
 62
0
 10
1050.0
 20
0.0
 30
0.0
 11
1050.0
 21
25.0
 31
0.0
  0
LINE
  8
CorteLaser
 62
0
 10
800.0
 20
-100.0
 30
0.0
 11
800.0
 21
-125.0
 31
0.0
  0
LINE
  8
CorteLaser
 62
0
 10
1050.0
 20
0.0
 30
0.0
 11
1056.0
 21
0.0
 31
0.0
  0
LINE
  8
CorteLaser
 62
0
 10
794.0
 20
-125.0
 30
0.0
 11
800.0
 21
-125.0
 31
0.0
  0
LINE
  8
CorteLaser
 62
0
 10
1056.0
 20
-25.0
 30
0.0
 11
1056.0
 21
0.0
 31
0.0
  0
LINE
  8
CorteLaser
 62
0
 10
794.0
 20
-150.0
 30
0.0
 11
794.0
 21
-125.0
 31
0.0
  0
LINE
  8
CorteLaser
 62
0
 10
1050.0
 20
-25.0
 30
0.0
 11
1056.0
 21
-25.0
 31
0.0
  0
LINE
  8
CorteLaser
 62
0
 10
794.0
 20
-150.0
 30
0.0
 11
824.8
 21
-150.0
 31
0.0
  0
LINE
  8
CorteLaser
 62
0
 10
1050.0
 20
-50.0
 30
0.0
 11
1050.0
 21
-25.0
 31
0.0
  0
LINE
  8
CorteLaser
 62
0
 10
824.8
 20
-143.8
 30
0.0
 11
824.8
 21
-150.0
 31
0.0
  0
LINE
  8
CorteLaser
 62
0
 10
1050.0
 20
-50.0
 30
0.0
 11
1056.0
 21
-50.0
 31
0.0
  0
ARC
  8
CorteLaser
 62
0
 10
827.9
 20
-143.8
 30
0.0
 40
3.1
 50
0.0
 51
180.0
  0
LINE
  8
CorteLaser
 62
0
 10
1056.0
 20
-75.0
 30
0.0
 11
1056.0
 21
-50.0
 31
0.0
  0
LINE
  8
CorteLaser
 62
0
 10
831.0
 20
-150.0
 30
0.0
 11
831.0
 21
-143.8
 31
0.0
  0
LINE
  8
CorteLaser
 62
0
 10
1050.0
 20
-75.0
 30
0.0
 11
1056.0
 21
-75.0
 31
0.0
  0
LINE
  8
CorteLaser
 62
0
 10
831.0
 20
-150.0
 30
0.0
 11
1019.0
 21
-150.0
 31
0.0
  0
LINE
  8
CorteLaser
 62
0
 10
1050.0
 20
-100.0
 30
0.0
 11
1050.0
 21
-75.0
 31
0.0
  0
LINE
  8
CorteLaser
 62
0
 10
1019.0
 20
-150.0
 30
0.0
 11
1019.0
 21
-143.8
 31
0.0
  0
LINE
  8
CorteLaser
 62
0
 10
1050.0
 20
-100.0
 30
0.0
 11
1056.0
 21
-100.0
 31
0.0
  0
ARC
  8
CorteLaser
 62
0
 10
1022.1
 20
-143.8
 30
0.0
 40
3.1
 50
0.0
 51
180.0
  0
LINE
  8
CorteLaser
 62
0
 10
1056.0
 20
-125.0
 30
0.0
 11
1056.0
 21
-100.0
 31
0.0
  0
LINE
  8
CorteLaser
 62
0
 10
1025.2
 20
-143.8
 30
0.0
 11
1025.2
 21
-150.0
 31
0.0
  0
LINE
  8
CorteLaser
 62
0
 10
1050.0
 20
-125.0
 30
0.0
 11
1056.0
 21
-125.0
 31
0.0
  0
LINE
  8
CorteLaser
 62
0
 10
1025.2
 20
-150.0
 30
0.0
 11
1050.0
 21
-150.0
 31
0.0
  0
LINE
  8
CorteLaser
 62
0
 10
1050.0
 20
-150.0
 30
0.0
 11
1050.0
 21
-125.0
 31
0.0
  0
CIRCLE
  8
CorteLaser
 62
0
 10
820.0
 20
-138.0
 30
0.0
 40
2.2
  0
CIRCLE
  8
CorteLaser
 62
0
 10
872.5
 20
-146.0
 30
0.0
 40
2.1
  0
CIRCLE
  8
CorteLaser
 62
0
 10
1041.5
 20
-124.0
 30
0.0
 40
2.1
  0
CIRCLE
  8
CorteLaser
 62
0
 10
920.0
 20
-83.0
 30
0.0
 40
2.1
  0
LINE
  8
CorteLaser
 62
0
 10
838.0
 20
34.0
 30
0.0
 11
818.0
 21
34.0
 31
0.0
  0
LINE
  8
CorteLaser
 62
0
 10
838.0
 20
34.0
 30
0.0
 11
838.0
 21
95.0
 31
0.0
  0
LINE
  8
CorteLaser
 62
0
 10
818.0
 20
34.0
 30
0.0
 11
818.0
 21
14.0
 31
0.0
  0
LINE
  8
CorteLaser
 62
0
 10
838.0
 20
95.0
 30
0.0
 11
996.0
 21
95.0
 31
0.0
  0
LINE
  8
CorteLaser
 62
0
 10
818.0
 20
14.0
 30
0.0
 11
838.0
 21
14.0
 31
0.0
  0
LINE
  8
CorteLaser
 62
0
 10
996.0
 20
95.0
 30
0.0
 11
996.0
 21
42.0
 31
0.0
  0
LINE
  8
CorteLaser
 62
0
 10
838.0
 20
-47.0
 30
0.0
 11
838.0
 21
14.0
 31
0.0
  0
LINE
  8
CorteLaser
 62
0
 10
996.0
 20
42.0
 30
0.0
 11
1031.0
 21
42.0
 31
0.0
  0
LINE
  8
CorteLaser
 62
0
 10
996.0
 20
-47.0
 30
0.0
 11
838.0
 21
-47.0
 31
0.0
  0
LINE
  8
CorteLaser
 62
0
 10
1031.0
 20
42.0
 30
0.0
 11
1031.0
 21
33.0
 31
0.0
  0
LINE
  8
CorteLaser
 62
0
 10
996.0
 20
6.0
 30
0.0
 11
996.0
 21
-47.0
 31
0.0
  0
LINE
  8
CorteLaser
 62
0
 10
1031.0
 20
33.0
 30
0.0
 11
996.0
 21
33.0
 31
0.0
  0
LINE
  8
CorteLaser
 62
0
 10
1031.0
 20
6.0
 30
0.0
 11
996.0
 21
6.0
 31
0.0
  0
LINE
  8
CorteLaser
 62
0
 10
996.0
 20
33.0
 30
0.0
 11
996.0
 21
15.0
 31
0.0
  0
LINE
  8
CorteLaser
 62
0
 10
1031.0
 20
15.0
 30
0.0
 11
1031.0
 21
6.0
 31
0.0
  0
LINE
  8
CorteLaser
 62
0
 10
996.0
 20
15.0
 30
0.0
 11
1031.0
 21
15.0
 31
0.0
  0
CIRCLE
  8
CorteLaser
 62
0
 10
977.5
 20
-146.0
 30
0.0
 40
2.1
  0
CIRCLE
  8
CorteLaser
 62
0
 10
835.0
 20
106.0
 30
0.0
 40
2.2
  0
LINE
  8
CorteLaser
 62
0
 10
1014.5
 20
-99.0
 30
0.0
 11
1014.5
 21
-44.0
 31
0.0
  0
LINE
  8
CorteLaser
 62
0
 10
1026.5
 20
-99.0
 30
0.0
 11
1014.5
 21
-99.0
 31
0.0
  0
LINE
  8
CorteLaser
 62
0
 10
1014.5
 20
-44.0
 30
0.0
 11
1026.5
 21
-44.0
 31
0.0
  0
LINE
  8
CorteLaser
 62
0
 10
1026.5
 20
-44.0
 30
0.0
 11
1026.5
 21
-99.0
 31
0.0
  0
CIRCLE
  8
CorteLaser
 62
0
 10
1020.0
 20
-5.68434188608e-14
 30
0.0
 40
2.2
  0
CIRCLE
  8
CorteLaser
 62
0
 10
925.0
 20
-138.0
 30
0.0
 40
2.1
  0
CIRCLE
  8
CorteLaser
 62
0
 10
908.0
 20
-105.0
 30
0.0
 40
2.1
  0
CIRCLE
  8
CorteLaser
 62
0
 10
925.0
 20
-146.0
 30
0.0
 40
2.1
  0
CIRCLE
  8
CorteLaser
 62
0
 10
828.0
 20
44.0
 30
0.0
 40
2.2
  0
CIRCLE
  8
CorteLaser
 62
0
 10
872.5
 20
-138.0
 30
0.0
 40
2.1
  0
CIRCLE
  8
CorteLaser
 62
0
 10
1041.5
 20
-36.0
 30
0.0
 40
2.1
  0
CIRCLE
  8
CorteLaser
 62
0
 10
1015.0
 20
134.0
 30
0.0
 40
2.2
  0
CIRCLE
  8
CorteLaser
 62
0
 10
977.5
 20
-138.0
 30
0.0
 40
2.1
  0
CIRCLE
  8
CorteLaser
 62
0
 10
908.0
 20
-83.0
 30
0.0
 40
2.1
  0
CIRCLE
  8
CorteLaser
 62
0
 10
828.0
 20
4.0
 30
0.0
 40
2.2
  0
CIRCLE
  8
CorteLaser
 62
0
 10
1006.0
 20
24.0
 30
0.0
 40
2.2
  0
CIRCLE
  8
CorteLaser
 62
0
 10
1030.0
 20
-138.0
 30
0.0
 40
2.2
  0
CIRCLE
  8
CorteLaser
 62
0
 10
1011.5
 20
-124.0
 30
0.0
 40
2.1
  0
CIRCLE
  8
CorteLaser
 62
0
 10
1011.5
 20
-36.0
 30
0.0
 40
2.1
  0
CIRCLE
  8
CorteLaser
 62
0
 10
920.0
 20
-105.0
 30
0.0
 40
2.1
  0
CIRCLE
  8
CorteLaser
 62
0
 10
1020.0
 20
48.0
 30
0.0
 40
2.2
  0
CIRCLE
  8
CorteLaser
 62
0
 10
835.0
 20
134.0
 30
0.0
 40
2.2
  0
CIRCLE
  8
CorteLaser
 62
0
 10
1015.0
 20
106.0
 30
0.0
 40
2.2
  0
ENDBLK
  0
ENDSEC
  0
SECTION
  2
ENTITIES
  0
INSERT
  2
CLONE031
  8
0
 10
0.0
 20
0.0
 30
0.0
  0
ENDSEC
  0
EOF
