solid OpenSCAD_Model
  facet normal -1 0 0
    outer loop
      vertex -135 3 150
      vertex -135 3 100
      vertex -135 -3 150
    endloop
  endfacet
  facet normal -1 0 0
    outer loop
      vertex -135 -3 150
      vertex -135 3 100
      vertex -135 -3 100
    endloop
  endfacet
  facet normal 0 1 -1.22465e-16
    outer loop
      vertex -75 3 -25
      vertex -125 3 50
      vertex -125 3 100
    endloop
  endfacet
  facet normal 0 1 -1.22465e-16
    outer loop
      vertex 125 3 100
      vertex 135 3 150
      vertex 135 3 100
    endloop
  endfacet
  facet normal 0 1 -1.22465e-16
    outer loop
      vertex -125 3 100
      vertex -135 3 100
      vertex -75 3 125
    endloop
  endfacet
  facet normal 0 1 -1.22465e-16
    outer loop
      vertex -75 3 125
      vertex 135 3 150
      vertex 75 3 125
    endloop
  endfacet
  facet normal 0 1 -1.22465e-16
    outer loop
      vertex 125 3 50
      vertex 135 3 50
      vertex 135 3 -3.67394e-16
    endloop
  endfacet
  facet normal 0 1 -1.22465e-16
    outer loop
      vertex 125 3 -50
      vertex 135 3 -50
      vertex 135 3 -100
    endloop
  endfacet
  facet normal 0 1 -1.22465e-16
    outer loop
      vertex -125 3 -100
      vertex 125 3 -150
      vertex -125 3 -150
    endloop
  endfacet
  facet normal 0 1 -1.22465e-16
    outer loop
      vertex -125 3 -50
      vertex 125 3 -150
      vertex -125 3 -100
    endloop
  endfacet
  facet normal 0 1 -1.22465e-16
    outer loop
      vertex 75 3 125
      vertex 125 3 -50
      vertex 75 3 -25
    endloop
  endfacet
  facet normal 0 1 -1.22465e-16
    outer loop
      vertex -125 3 -50
      vertex -125 3 -100
      vertex -135 3 -50
    endloop
  endfacet
  facet normal 0 1 -1.22465e-16
    outer loop
      vertex -125 3 -3.67394e-16
      vertex 125 3 -150
      vertex -125 3 -50
    endloop
  endfacet
  facet normal 0 1 -1.22465e-16
    outer loop
      vertex -75 3 -25
      vertex 125 3 -150
      vertex -125 3 -3.67394e-16
    endloop
  endfacet
  facet normal 0 1 -1.22465e-16
    outer loop
      vertex -125 3 50
      vertex -125 3 -3.67394e-16
      vertex -135 3 50
    endloop
  endfacet
  facet normal 0 1 -1.22465e-16
    outer loop
      vertex -75 3 -25
      vertex -125 3 100
      vertex -75 3 125
    endloop
  endfacet
  facet normal 0 1 -1.22465e-16
    outer loop
      vertex -135 3 150
      vertex 135 3 150
      vertex -75 3 125
    endloop
  endfacet
  facet normal 0 1 -1.22465e-16
    outer loop
      vertex -135 3 150
      vertex -75 3 125
      vertex -135 3 100
    endloop
  endfacet
  facet normal 0 1 -1.22465e-16
    outer loop
      vertex 75 3 -25
      vertex 135 3 -100
      vertex 125 3 -100
    endloop
  endfacet
  facet normal 0 1 -1.22465e-16
    outer loop
      vertex -125 3 50
      vertex -75 3 -25
      vertex -125 3 -3.67394e-16
    endloop
  endfacet
  facet normal 0 1 -1.22465e-16
    outer loop
      vertex 125 3 -50
      vertex 135 3 -100
      vertex 75 3 -25
    endloop
  endfacet
  facet normal 0 1 -1.22465e-16
    outer loop
      vertex 125 3 100
      vertex 75 3 125
      vertex 135 3 150
    endloop
  endfacet
  facet normal 0 1 -1.22465e-16
    outer loop
      vertex -135 3 -3.67394e-16
      vertex -135 3 50
      vertex -125 3 -3.67394e-16
    endloop
  endfacet
  facet normal 0 1 -1.22465e-16
    outer loop
      vertex -135 3 -100
      vertex -135 3 -50
      vertex -125 3 -100
    endloop
  endfacet
  facet normal 0 1 -1.22465e-16
    outer loop
      vertex 75 3 -25
      vertex 125 3 -150
      vertex -75 3 -25
    endloop
  endfacet
  facet normal 0 1 -1.22465e-16
    outer loop
      vertex 75 3 -25
      vertex 125 3 -100
      vertex 125 3 -150
    endloop
  endfacet
  facet normal 0 1 -1.22465e-16
    outer loop
      vertex 75 3 125
      vertex 125 3 100
      vertex 125 3 50
    endloop
  endfacet
  facet normal 0 1 -1.22465e-16
    outer loop
      vertex 75 3 125
      vertex 125 3 50
      vertex 135 3 -3.67394e-16
    endloop
  endfacet
  facet normal 0 1 -1.22465e-16
    outer loop
      vertex 75 3 125
      vertex 135 3 -3.67394e-16
      vertex 125 3 -3.67394e-16
    endloop
  endfacet
  facet normal 0 1 -1.22465e-16
    outer loop
      vertex 75 3 125
      vertex 125 3 -3.67394e-16
      vertex 125 3 -50
    endloop
  endfacet
  facet normal 0 1.22465e-16 1
    outer loop
      vertex 135 3 150
      vertex -135 3 150
      vertex -135 -3 150
    endloop
  endfacet
  facet normal 0 1.22465e-16 1
    outer loop
      vertex 135 -3 150
      vertex 135 3 150
      vertex -135 -3 150
    endloop
  endfacet
  facet normal 0 -1 1.22465e-16
    outer loop
      vertex -75 -3 125
      vertex -135 -3 150
      vertex -135 -3 100
    endloop
  endfacet
  facet normal 0 -1 1.22465e-16
    outer loop
      vertex 75 -3 125
      vertex 125 -3 50
      vertex 125 -3 100
    endloop
  endfacet
  facet normal 0 -1 1.22465e-16
    outer loop
      vertex 75 -3 125
      vertex 125 -3 100
      vertex 135 -3 150
    endloop
  endfacet
  facet normal 0 -1 1.22465e-16
    outer loop
      vertex 75 -3 125
      vertex 75 -3 -25
      vertex 125 -3 50
    endloop
  endfacet
  facet normal 0 -1 1.22465e-16
    outer loop
      vertex -135 -3 3.67394e-16
      vertex -125 -3 50
      vertex -135 -3 50
    endloop
  endfacet
  facet normal 0 -1 1.22465e-16
    outer loop
      vertex -135 -3 -100
      vertex -125 -3 -50
      vertex -135 -3 -50
    endloop
  endfacet
  facet normal 0 -1 1.22465e-16
    outer loop
      vertex -75 -3 -25
      vertex -125 -3 3.67394e-16
      vertex -125 -3 -50
    endloop
  endfacet
  facet normal 0 -1 1.22465e-16
    outer loop
      vertex 135 -3 -50
      vertex 125 -3 -50
      vertex 125 -3 -100
    endloop
  endfacet
  facet normal 0 -1 1.22465e-16
    outer loop
      vertex 125 -3 -150
      vertex 125 -3 -100
      vertex -125 -3 -150
    endloop
  endfacet
  facet normal 0 -1 1.22465e-16
    outer loop
      vertex 75 -3 -25
      vertex -75 -3 -25
      vertex -135 -3 -100
    endloop
  endfacet
  facet normal 0 -1 1.22465e-16
    outer loop
      vertex 135 -3 50
      vertex 125 -3 50
      vertex 125 -3 3.67394e-16
    endloop
  endfacet
  facet normal 0 -1 1.22465e-16
    outer loop
      vertex 125 -3 -100
      vertex 125 -3 -50
      vertex -125 -3 -150
    endloop
  endfacet
  facet normal 0 -1 1.22465e-16
    outer loop
      vertex 125 -3 -50
      vertex 125 -3 3.67394e-16
      vertex -125 -3 -150
    endloop
  endfacet
  facet normal 0 -1 1.22465e-16
    outer loop
      vertex 75 -3 -25
      vertex -125 -3 -100
      vertex -125 -3 -150
    endloop
  endfacet
  facet normal 0 -1 1.22465e-16
    outer loop
      vertex -75 -3 -25
      vertex -125 -3 50
      vertex -125 -3 3.67394e-16
    endloop
  endfacet
  facet normal 0 -1 1.22465e-16
    outer loop
      vertex -125 -3 3.67394e-16
      vertex -125 -3 50
      vertex -135 -3 3.67394e-16
    endloop
  endfacet
  facet normal 0 -1 1.22465e-16
    outer loop
      vertex -135 -3 -100
      vertex -75 -3 -25
      vertex -125 -3 -50
    endloop
  endfacet
  facet normal 0 -1 1.22465e-16
    outer loop
      vertex -75 -3 125
      vertex 75 -3 125
      vertex 135 -3 150
    endloop
  endfacet
  facet normal 0 -1 1.22465e-16
    outer loop
      vertex 135 -3 150
      vertex -135 -3 150
      vertex -75 -3 125
    endloop
  endfacet
  facet normal 0 -1 1.22465e-16
    outer loop
      vertex 125 -3 3.67394e-16
      vertex 75 -3 -25
      vertex -125 -3 -150
    endloop
  endfacet
  facet normal 0 -1 1.22465e-16
    outer loop
      vertex 125 -3 3.67394e-16
      vertex 125 -3 50
      vertex 75 -3 -25
    endloop
  endfacet
  facet normal 0 -1 1.22465e-16
    outer loop
      vertex 125 -3 100
      vertex 135 -3 100
      vertex 135 -3 150
    endloop
  endfacet
  facet normal 0 -1 1.22465e-16
    outer loop
      vertex 125 -3 3.67394e-16
      vertex 135 -3 3.67394e-16
      vertex 135 -3 50
    endloop
  endfacet
  facet normal 0 -1 1.22465e-16
    outer loop
      vertex 75 -3 -25
      vertex -135 -3 -100
      vertex -125 -3 -100
    endloop
  endfacet
  facet normal 0 -1 1.22465e-16
    outer loop
      vertex 125 -3 -100
      vertex 135 -3 -100
      vertex 135 -3 -50
    endloop
  endfacet
  facet normal 0 -1 1.22465e-16
    outer loop
      vertex -75 -3 -25
      vertex -125 -3 100
      vertex -125 -3 50
    endloop
  endfacet
  facet normal 0 -1 1.22465e-16
    outer loop
      vertex -125 -3 100
      vertex -75 -3 125
      vertex -135 -3 100
    endloop
  endfacet
  facet normal 0 -1 1.22465e-16
    outer loop
      vertex -75 -3 -25
      vertex -75 -3 125
      vertex -125 -3 100
    endloop
  endfacet
  facet normal 0 -1.22465e-16 -1
    outer loop
      vertex -135 3 100
      vertex -125 3 100
      vertex -135 -3 100
    endloop
  endfacet
  facet normal 0 -1.22465e-16 -1
    outer loop
      vertex -135 -3 100
      vertex -125 3 100
      vertex -125 -3 100
    endloop
  endfacet
  facet normal -1 0 0
    outer loop
      vertex -125 3 100
      vertex -125 3 50
      vertex -125 -3 100
    endloop
  endfacet
  facet normal -1 0 0
    outer loop
      vertex -125 -3 100
      vertex -125 3 50
      vertex -125 -3 50
    endloop
  endfacet
  facet normal 0 1.22465e-16 1
    outer loop
      vertex -125 3 50
      vertex -135 3 50
      vertex -135 -3 50
    endloop
  endfacet
  facet normal 0 1.22465e-16 1
    outer loop
      vertex -125 -3 50
      vertex -125 3 50
      vertex -135 -3 50
    endloop
  endfacet
  facet normal -1 0 0
    outer loop
      vertex -135 3 50
      vertex -135 3 -3.67394e-16
      vertex -135 -3 50
    endloop
  endfacet
  facet normal -1 0 0
    outer loop
      vertex -135 -3 50
      vertex -135 3 -3.67394e-16
      vertex -135 -3 3.67394e-16
    endloop
  endfacet
  facet normal 0 -1.22465e-16 -1
    outer loop
      vertex -135 3 -3.67394e-16
      vertex -125 3 -3.67394e-16
      vertex -135 -3 3.67394e-16
    endloop
  endfacet
  facet normal 0 -1.22465e-16 -1
    outer loop
      vertex -135 -3 3.67394e-16
      vertex -125 3 -3.67394e-16
      vertex -125 -3 3.67394e-16
    endloop
  endfacet
  facet normal -1 0 0
    outer loop
      vertex -125 3 -3.67394e-16
      vertex -125 3 -50
      vertex -125 -3 3.67394e-16
    endloop
  endfacet
  facet normal -1 0 0
    outer loop
      vertex -125 -3 3.67394e-16
      vertex -125 3 -50
      vertex -125 -3 -50
    endloop
  endfacet
  facet normal 0 1.22465e-16 1
    outer loop
      vertex -125 3 -50
      vertex -135 3 -50
      vertex -135 -3 -50
    endloop
  endfacet
  facet normal 0 1.22465e-16 1
    outer loop
      vertex -125 -3 -50
      vertex -125 3 -50
      vertex -135 -3 -50
    endloop
  endfacet
  facet normal -1 0 0
    outer loop
      vertex -135 3 -50
      vertex -135 3 -100
      vertex -135 -3 -50
    endloop
  endfacet
  facet normal -1 0 0
    outer loop
      vertex -135 -3 -50
      vertex -135 3 -100
      vertex -135 -3 -100
    endloop
  endfacet
  facet normal 0 -1.22465e-16 -1
    outer loop
      vertex -135 3 -100
      vertex -125 3 -100
      vertex -135 -3 -100
    endloop
  endfacet
  facet normal 0 -1.22465e-16 -1
    outer loop
      vertex -135 -3 -100
      vertex -125 3 -100
      vertex -125 -3 -100
    endloop
  endfacet
  facet normal -1 0 0
    outer loop
      vertex -125 3 -100
      vertex -125 3 -150
      vertex -125 -3 -100
    endloop
  endfacet
  facet normal -1 0 0
    outer loop
      vertex -125 -3 -100
      vertex -125 3 -150
      vertex -125 -3 -150
    endloop
  endfacet
  facet normal 0 -1.22465e-16 -1
    outer loop
      vertex -125 3 -150
      vertex 125 3 -150
      vertex -125 -3 -150
    endloop
  endfacet
  facet normal 0 -1.22465e-16 -1
    outer loop
      vertex -125 -3 -150
      vertex 125 3 -150
      vertex 125 -3 -150
    endloop
  endfacet
  facet normal 1 0 0
    outer loop
      vertex 125 3 -150
      vertex 125 3 -100
      vertex 125 -3 -100
    endloop
  endfacet
  facet normal 1 0 0
    outer loop
      vertex 125 -3 -150
      vertex 125 3 -150
      vertex 125 -3 -100
    endloop
  endfacet
  facet normal 0 -1.22465e-16 -1
    outer loop
      vertex 125 3 -100
      vertex 135 3 -100
      vertex 125 -3 -100
    endloop
  endfacet
  facet normal 0 -1.22465e-16 -1
    outer loop
      vertex 125 -3 -100
      vertex 135 3 -100
      vertex 135 -3 -100
    endloop
  endfacet
  facet normal 1 0 0
    outer loop
      vertex 135 3 -100
      vertex 135 3 -50
      vertex 135 -3 -50
    endloop
  endfacet
  facet normal 1 0 0
    outer loop
      vertex 135 -3 -100
      vertex 135 3 -100
      vertex 135 -3 -50
    endloop
  endfacet
  facet normal 0 1.22465e-16 1
    outer loop
      vertex 135 3 -50
      vertex 125 3 -50
      vertex 125 -3 -50
    endloop
  endfacet
  facet normal 0 1.22465e-16 1
    outer loop
      vertex 135 -3 -50
      vertex 135 3 -50
      vertex 125 -3 -50
    endloop
  endfacet
  facet normal 1 0 0
    outer loop
      vertex 125 3 -50
      vertex 125 3 -3.67394e-16
      vertex 125 -3 3.67394e-16
    endloop
  endfacet
  facet normal 1 0 0
    outer loop
      vertex 125 -3 -50
      vertex 125 3 -50
      vertex 125 -3 3.67394e-16
    endloop
  endfacet
  facet normal 0 -1.22465e-16 -1
    outer loop
      vertex 125 3 -3.67394e-16
      vertex 135 3 -3.67394e-16
      vertex 125 -3 3.67394e-16
    endloop
  endfacet
  facet normal 0 -1.22465e-16 -1
    outer loop
      vertex 125 -3 3.67394e-16
      vertex 135 3 -3.67394e-16
      vertex 135 -3 3.67394e-16
    endloop
  endfacet
  facet normal 1 0 0
    outer loop
      vertex 135 3 -3.67394e-16
      vertex 135 3 50
      vertex 135 -3 50
    endloop
  endfacet
  facet normal 1 0 0
    outer loop
      vertex 135 -3 3.67394e-16
      vertex 135 3 -3.67394e-16
      vertex 135 -3 50
    endloop
  endfacet
  facet normal 0 1.22465e-16 1
    outer loop
      vertex 135 3 50
      vertex 125 3 50
      vertex 125 -3 50
    endloop
  endfacet
  facet normal 0 1.22465e-16 1
    outer loop
      vertex 135 -3 50
      vertex 135 3 50
      vertex 125 -3 50
    endloop
  endfacet
  facet normal 1 0 0
    outer loop
      vertex 125 3 50
      vertex 125 3 100
      vertex 125 -3 100
    endloop
  endfacet
  facet normal 1 0 0
    outer loop
      vertex 125 -3 50
      vertex 125 3 50
      vertex 125 -3 100
    endloop
  endfacet
  facet normal 0 -1.22465e-16 -1
    outer loop
      vertex 125 3 100
      vertex 135 3 100
      vertex 125 -3 100
    endloop
  endfacet
  facet normal 0 -1.22465e-16 -1
    outer loop
      vertex 125 -3 100
      vertex 135 3 100
      vertex 135 -3 100
    endloop
  endfacet
  facet normal 1 0 0
    outer loop
      vertex 135 3 100
      vertex 135 3 150
      vertex 135 -3 150
    endloop
  endfacet
  facet normal 1 0 0
    outer loop
      vertex 135 -3 100
      vertex 135 3 100
      vertex 135 -3 150
    endloop
  endfacet
  facet normal 1 0 0
    outer loop
      vertex -75 -3 125
      vertex -75 -3 -25
      vertex -75 3 -25
    endloop
  endfacet
  facet normal 1 0 0
    outer loop
      vertex -75 3 125
      vertex -75 -3 125
      vertex -75 3 -25
    endloop
  endfacet
  facet normal 0 -1.22465e-16 -1
    outer loop
      vertex 75 -3 125
      vertex -75 -3 125
      vertex 75 3 125
    endloop
  endfacet
  facet normal 0 -1.22465e-16 -1
    outer loop
      vertex 75 3 125
      vertex -75 -3 125
      vertex -75 3 125
    endloop
  endfacet
  facet normal -1 0 0
    outer loop
      vertex 75 -3 -25
      vertex 75 -3 125
      vertex 75 3 -25
    endloop
  endfacet
  facet normal -1 0 0
    outer loop
      vertex 75 3 -25
      vertex 75 -3 125
      vertex 75 3 125
    endloop
  endfacet
  facet normal 0 1.22465e-16 1
    outer loop
      vertex -75 -3 -25
      vertex 75 -3 -25
      vertex 75 3 -25
    endloop
  endfacet
  facet normal 0 1.22465e-16 1
    outer loop
      vertex -75 3 -25
      vertex -75 -3 -25
      vertex 75 3 -25
    endloop
  endfacet
endsolid OpenSCAD_Model
