  0
SECTION
  2
HEADER
  9
$ACADVER
  1
AC1009
  9
$INSBASE
 10
0.0
 20
0.0
 30
0.0
  9
$EXTMIN
 10
0.0
 20
0.0
 30
0.0
  9
$EXTMAX
 10
0.0
 20
0.0
 30
0.0
  0
ENDSEC
  0
SECTION
  2
TABLES
  0
TABLE
  2
VPORT
 70
0
  0
ENDTAB
  0
TABLE
  2
LTYPE
 70
1
  0
LTYPE
  2
CONTINUOUS
 70
0
  3
Solid line
 72
65
 73
0
 40
0.0
  0
ENDTAB
  0
TABLE
  2
LAYER
 70
1
  0
LAYER
  2
0
 70
64
 62
7
  6
continuous
  0
ENDTAB
  0
TABLE
  2
STYLE
 70
1
  0
STYLE
  2
STANDARD
 70
0
 40
0
 41
1.0
 50
0.0
 71
0
 42
1
 3
ARIAL.TTF
 4

  0
ENDTAB
  0
TABLE
  2
VIEW
 70
0
  0
ENDTAB
  0
ENDSEC
  0
SECTION
  2
BLOCKS
  0
ENDSEC
  0
SECTION
  2
ENTITIES
  0
POLYLINE
  8
CorteLaser
 62
0
 70
1
 66
1
 10
0.0
 20
0.0
 30
0.0
  0
VERTEX
  8
CorteLaser
 10
800.0
 20
150.0
 30
-50.0
  0
VERTEX
  8
CorteLaser
 10
800.0
 20
125.0
 30
-50.0
  0
VERTEX
  8
CorteLaser
 10
794.0
 20
125.0
 30
-50.0
  0
VERTEX
  8
CorteLaser
 10
794.0
 20
100.0
 30
-50.0
  0
VERTEX
  8
CorteLaser
 10
800.0
 20
100.0
 30
-50.0
  0
VERTEX
  8
CorteLaser
 10
800.0
 20
75.0
 30
-50.0
  0
VERTEX
  8
CorteLaser
 10
794.0
 20
75.0
 30
-50.0
  0
VERTEX
  8
CorteLaser
 10
794.0
 20
50.0
 30
-50.0
  0
VERTEX
  8
CorteLaser
 10
800.0
 20
50.0
 30
-50.0
  0
VERTEX
  8
CorteLaser
 10
800.0
 20
25.0
 30
-50.0
  0
VERTEX
  8
CorteLaser
 10
794.0
 20
25.0
 30
-50.0
  0
VERTEX
  8
CorteLaser
 10
794.0
 20
2.84217094304e-14
 30
-50.0
  0
VERTEX
  8
CorteLaser
 10
800.0
 20
2.84217094304e-14
 30
-50.0
  0
VERTEX
  8
CorteLaser
 10
800.0
 20
-25.0
 30
-50.0
  0
VERTEX
  8
CorteLaser
 10
794.0
 20
-25.0
 30
-50.0
  0
VERTEX
  8
CorteLaser
 10
794.0
 20
-50.0
 30
-50.0
  0
VERTEX
  8
CorteLaser
 10
800.0
 20
-50.0
 30
-50.0
  0
VERTEX
  8
CorteLaser
 10
800.0
 20
-75.0
 30
-50.0
  0
VERTEX
  8
CorteLaser
 10
794.0
 20
-75.0
 30
-50.0
  0
VERTEX
  8
CorteLaser
 10
794.0
 20
-100.0
 30
-50.0
  0
VERTEX
  8
CorteLaser
 10
800.0
 20
-100.0
 30
-50.0
  0
VERTEX
  8
CorteLaser
 10
800.0
 20
-125.0
 30
-50.0
  0
VERTEX
  8
CorteLaser
 10
794.0
 20
-125.0
 30
-50.0
  0
VERTEX
  8
CorteLaser
 10
794.0
 20
-150.0
 30
-50.0
  0
VERTEX
  8
CorteLaser
 10
824.8
 20
-150.0
 30
-50.0
  0
VERTEX
  8
CorteLaser
 10
824.8
 20
-143.8
 30
-50.0
 42
-1.0
  0
VERTEX
  8
CorteLaser
 10
831.0
 20
-143.8
 30
-50.0
  0
VERTEX
  8
CorteLaser
 10
831.0
 20
-150.0
 30
-50.0
  0
VERTEX
  8
CorteLaser
 10
1019.0
 20
-150.0
 30
-50.0
  0
VERTEX
  8
CorteLaser
 10
1019.0
 20
-143.8
 30
-50.0
 42
-1.0
  0
VERTEX
  8
CorteLaser
 10
1025.2
 20
-143.8
 30
-50.0
  0
VERTEX
  8
CorteLaser
 10
1025.2
 20
-150.0
 30
-50.0
  0
VERTEX
  8
CorteLaser
 10
1050.0
 20
-150.0
 30
-50.0
  0
VERTEX
  8
CorteLaser
 10
1050.0
 20
-125.0
 30
-50.0
  0
VERTEX
  8
CorteLaser
 10
1056.0
 20
-125.0
 30
-50.0
  0
VERTEX
  8
CorteLaser
 10
1056.0
 20
-100.0
 30
-50.0
  0
VERTEX
  8
CorteLaser
 10
1050.0
 20
-100.0
 30
-50.0
  0
VERTEX
  8
CorteLaser
 10
1050.0
 20
-75.0
 30
-50.0
  0
VERTEX
  8
CorteLaser
 10
1056.0
 20
-75.0
 30
-50.0
  0
VERTEX
  8
CorteLaser
 10
1056.0
 20
-50.0
 30
-50.0
  0
VERTEX
  8
CorteLaser
 10
1050.0
 20
-50.0
 30
-50.0
  0
VERTEX
  8
CorteLaser
 10
1050.0
 20
-25.0
 30
-50.0
  0
VERTEX
  8
CorteLaser
 10
1056.0
 20
-25.0
 30
-50.0
  0
VERTEX
  8
CorteLaser
 10
1056.0
 20
2.84217094304e-14
 30
-50.0
  0
VERTEX
  8
CorteLaser
 10
1050.0
 20
2.84217094304e-14
 30
-50.0
  0
VERTEX
  8
CorteLaser
 10
1050.0
 20
25.0
 30
-50.0
  0
VERTEX
  8
CorteLaser
 10
1056.0
 20
25.0
 30
-50.0
  0
VERTEX
  8
CorteLaser
 10
1056.0
 20
50.0
 30
-50.0
  0
VERTEX
  8
CorteLaser
 10
1050.0
 20
50.0
 30
-50.0
  0
VERTEX
  8
CorteLaser
 10
1050.0
 20
75.0
 30
-50.0
  0
VERTEX
  8
CorteLaser
 10
1056.0
 20
75.0
 30
-50.0
  0
VERTEX
  8
CorteLaser
 10
1056.0
 20
100.0
 30
-50.0
  0
VERTEX
  8
CorteLaser
 10
1050.0
 20
100.0
 30
-50.0
  0
VERTEX
  8
CorteLaser
 10
1050.0
 20
125.0
 30
-50.0
  0
VERTEX
  8
CorteLaser
 10
1056.0
 20
125.0
 30
-50.0
  0
VERTEX
  8
CorteLaser
 10
1056.0
 20
150.0
 30
-50.0
  0
VERTEX
  8
CorteLaser
 10
1025.2
 20
150.0
 30
-50.0
  0
VERTEX
  8
CorteLaser
 10
1025.2
 20
143.8
 30
-50.0
 42
-1.0
  0
VERTEX
  8
CorteLaser
 10
1019.0
 20
143.8
 30
-50.0
  0
VERTEX
  8
CorteLaser
 10
1019.0
 20
150.0
 30
-50.0
  0
VERTEX
  8
CorteLaser
 10
831.0
 20
150.0
 30
-50.0
  0
VERTEX
  8
CorteLaser
 10
831.0
 20
143.8
 30
-50.0
 42
-1.0
  0
VERTEX
  8
CorteLaser
 10
824.8
 20
143.8
 30
-50.0
  0
VERTEX
  8
CorteLaser
 10
824.8
 20
150.0
 30
-50.0
  0
SEQEND
  8
CorteLaser
  0
CIRCLE
  8
CorteLaser
 62
0
 10
828.0
 20
4.0
 30
-50.0
 40
2.2
  0
CIRCLE
  8
CorteLaser
 62
0
 10
835.0
 20
134.0
 30
-50.0
 40
2.2
  0
CIRCLE
  8
CorteLaser
 62
0
 10
1030.0
 20
-138.0
 30
-50.0
 40
2.2
  0
CIRCLE
  8
CorteLaser
 62
0
 10
925.0
 20
-138.0
 30
-50.0
 40
2.1
  0
POLYLINE
  8
CorteLaser
 62
0
 70
1
 66
1
 10
0.0
 20
0.0
 30
0.0
  0
VERTEX
  8
CorteLaser
 10
1027.5
 20
-44.0
 30
-50.0
  0
VERTEX
  8
CorteLaser
 10
1027.5
 20
-99.0
 30
-50.0
  0
VERTEX
  8
CorteLaser
 10
1015.5
 20
-99.0
 30
-50.0
  0
VERTEX
  8
CorteLaser
 10
1015.5
 20
-44.0
 30
-50.0
  0
SEQEND
  8
CorteLaser
  0
CIRCLE
  8
CorteLaser
 62
0
 10
920.0
 20
-83.0
 30
-50.0
 40
2.1
  0
CIRCLE
  8
CorteLaser
 62
0
 10
908.0
 20
-105.0
 30
-50.0
 40
2.1
  0
CIRCLE
  8
CorteLaser
 62
0
 10
1015.0
 20
134.0
 30
-50.0
 40
2.2
  0
CIRCLE
  8
CorteLaser
 62
0
 10
1011.5
 20
-36.0
 30
-50.0
 40
2.1
  0
CIRCLE
  8
CorteLaser
 62
0
 10
1020.0
 20
-8.52651282912e-14
 30
-50.0
 40
2.2
  0
CIRCLE
  8
CorteLaser
 62
0
 10
920.0
 20
-105.0
 30
-50.0
 40
2.1
  0
CIRCLE
  8
CorteLaser
 62
0
 10
1006.0
 20
24.0
 30
-50.0
 40
2.2
  0
CIRCLE
  8
CorteLaser
 62
0
 10
1041.5
 20
-89.0
 30
-50.0
 40
2.1
  0
CIRCLE
  8
CorteLaser
 62
0
 10
1020.0
 20
48.0
 30
-50.0
 40
2.2
  0
CIRCLE
  8
CorteLaser
 62
0
 10
872.5
 20
-146.0
 30
-50.0
 40
2.1
  0
CIRCLE
  8
CorteLaser
 62
0
 10
1041.5
 20
-124.0
 30
-50.0
 40
2.1
  0
CIRCLE
  8
CorteLaser
 62
0
 10
925.0
 20
-146.0
 30
-50.0
 40
2.1
  0
CIRCLE
  8
CorteLaser
 62
0
 10
1011.5
 20
-124.0
 30
-50.0
 40
2.1
  0
CIRCLE
  8
CorteLaser
 62
0
 10
828.0
 20
44.0
 30
-50.0
 40
2.2
  0
CIRCLE
  8
CorteLaser
 62
0
 10
872.5
 20
-138.0
 30
-50.0
 40
2.1
  0
POLYLINE
  8
CorteLaser
 62
0
 70
1
 66
1
 10
0.0
 20
0.0
 30
0.0
  0
VERTEX
  8
CorteLaser
 10
996.0
 20
15.0
 30
-50.0
  0
VERTEX
  8
CorteLaser
 10
1031.0
 20
15.0
 30
-50.0
  0
VERTEX
  8
CorteLaser
 10
1031.0
 20
6.0
 30
-50.0
  0
VERTEX
  8
CorteLaser
 10
996.0
 20
6.0
 30
-50.0
  0
VERTEX
  8
CorteLaser
 10
996.0
 20
-47.0
 30
-50.0
  0
VERTEX
  8
CorteLaser
 10
838.0
 20
-47.0
 30
-50.0
  0
VERTEX
  8
CorteLaser
 10
838.0
 20
14.0
 30
-50.0
  0
VERTEX
  8
CorteLaser
 10
818.0
 20
14.0
 30
-50.0
  0
VERTEX
  8
CorteLaser
 10
818.0
 20
34.0
 30
-50.0
  0
VERTEX
  8
CorteLaser
 10
838.0
 20
34.0
 30
-50.0
  0
VERTEX
  8
CorteLaser
 10
838.0
 20
95.0
 30
-50.0
  0
VERTEX
  8
CorteLaser
 10
996.0
 20
95.0
 30
-50.0
  0
VERTEX
  8
CorteLaser
 10
996.0
 20
42.0
 30
-50.0
  0
VERTEX
  8
CorteLaser
 10
1031.0
 20
42.0
 30
-50.0
  0
VERTEX
  8
CorteLaser
 10
1031.0
 20
33.0
 30
-50.0
  0
VERTEX
  8
CorteLaser
 10
996.0
 20
33.0
 30
-50.0
  0
SEQEND
  8
CorteLaser
  0
CIRCLE
  8
CorteLaser
 62
0
 10
835.0
 20
106.0
 30
-50.0
 40
2.2
  0
CIRCLE
  8
CorteLaser
 62
0
 10
1011.5
 20
-89.0
 30
-50.0
 40
2.1
  0
CIRCLE
  8
CorteLaser
 62
0
 10
1015.0
 20
106.0
 30
-50.0
 40
2.2
  0
CIRCLE
  8
CorteLaser
 62
0
 10
820.0
 20
-138.0
 30
-50.0
 40
2.2
  0
CIRCLE
  8
CorteLaser
 62
0
 10
1041.5
 20
-36.0
 30
-50.0
 40
2.1
  0
CIRCLE
  8
CorteLaser
 62
0
 10
977.5
 20
-138.0
 30
-50.0
 40
2.1
  0
CIRCLE
  8
CorteLaser
 62
0
 10
977.5
 20
-146.0
 30
-50.0
 40
2.1
  0
CIRCLE
  8
CorteLaser
 62
0
 10
908.0
 20
-83.0
 30
-50.0
 40
2.1
  0
ENDSEC
  0
EOF
