  0
SECTION
  2
HEADER
  9
$ACADVER
  1
AC1009
  9
$INSBASE
 10
0.0
 20
0.0
 30
0.0
  9
$EXTMIN
 10
0.0
 20
0.0
 30
0.0
  9
$EXTMAX
 10
0.0
 20
0.0
 30
0.0
  0
ENDSEC
  0
SECTION
  2
TABLES
  0
TABLE
  2
VPORT
 70
0
  0
ENDTAB
  0
TABLE
  2
LTYPE
 70
1
  0
LTYPE
  2
CONTINUOUS
 70
0
  3
Solid line
 72
65
 73
0
 40
0.0
  0
ENDTAB
  0
TABLE
  2
LAYER
 70
1
  0
LAYER
  2
0
 70
64
 62
7
  6
continuous
  0
ENDTAB
  0
TABLE
  2
STYLE
 70
1
  0
STYLE
  2
STANDARD
 70
0
 40
0
 41
1.0
 50
0.0
 71
0
 42
1
 3
ARIAL.TTF
 4

  0
ENDTAB
  0
TABLE
  2
VIEW
 70
0
  0
ENDTAB
  0
ENDSEC
  0
SECTION
  2
BLOCKS
  0
ENDSEC
  0
SECTION
  2
ENTITIES
  0
POLYLINE
  8
CorteLaser
 62
0
 70
1
 66
1
 10
0.0
 20
0.0
 30
0.0
  0
VERTEX
  8
CorteLaser
 10
1050.0
 20
500.0
 30
-50.0
  0
VERTEX
  8
CorteLaser
 10
1025.2
 20
500.0
 30
-50.0
  0
VERTEX
  8
CorteLaser
 10
1025.2
 20
493.8
 30
-50.0
 42
-1.0
  0
VERTEX
  8
CorteLaser
 10
1019.0
 20
493.8
 30
-50.0
  0
VERTEX
  8
CorteLaser
 10
1019.0
 20
500.0
 30
-50.0
  0
VERTEX
  8
CorteLaser
 10
831.0
 20
500.0
 30
-50.0
  0
VERTEX
  8
CorteLaser
 10
831.0
 20
493.8
 30
-50.0
 42
-1.0
  0
VERTEX
  8
CorteLaser
 10
824.8
 20
493.8
 30
-50.0
  0
VERTEX
  8
CorteLaser
 10
824.8
 20
500.0
 30
-50.0
  0
VERTEX
  8
CorteLaser
 10
794.0
 20
500.0
 30
-50.0
  0
VERTEX
  8
CorteLaser
 10
794.0
 20
475.0
 30
-50.0
  0
VERTEX
  8
CorteLaser
 10
800.0
 20
475.0
 30
-50.0
  0
VERTEX
  8
CorteLaser
 10
800.0
 20
450.0
 30
-50.0
  0
VERTEX
  8
CorteLaser
 10
794.0
 20
450.0
 30
-50.0
  0
VERTEX
  8
CorteLaser
 10
794.0
 20
425.0
 30
-50.0
  0
VERTEX
  8
CorteLaser
 10
800.0
 20
425.0
 30
-50.0
  0
VERTEX
  8
CorteLaser
 10
800.0
 20
400.0
 30
-50.0
  0
VERTEX
  8
CorteLaser
 10
794.0
 20
400.0
 30
-50.0
  0
VERTEX
  8
CorteLaser
 10
794.0
 20
375.0
 30
-50.0
  0
VERTEX
  8
CorteLaser
 10
800.0
 20
375.0
 30
-50.0
  0
VERTEX
  8
CorteLaser
 10
800.0
 20
350.0
 30
-50.0
  0
VERTEX
  8
CorteLaser
 10
794.0
 20
350.0
 30
-50.0
  0
VERTEX
  8
CorteLaser
 10
794.0
 20
325.0
 30
-50.0
  0
VERTEX
  8
CorteLaser
 10
800.0
 20
325.0
 30
-50.0
  0
VERTEX
  8
CorteLaser
 10
800.0
 20
300.0
 30
-50.0
  0
VERTEX
  8
CorteLaser
 10
794.0
 20
300.0
 30
-50.0
  0
VERTEX
  8
CorteLaser
 10
794.0
 20
275.0
 30
-50.0
  0
VERTEX
  8
CorteLaser
 10
800.0
 20
275.0
 30
-50.0
  0
VERTEX
  8
CorteLaser
 10
800.0
 20
250.0
 30
-50.0
  0
VERTEX
  8
CorteLaser
 10
794.0
 20
250.0
 30
-50.0
  0
VERTEX
  8
CorteLaser
 10
794.0
 20
225.0
 30
-50.0
  0
VERTEX
  8
CorteLaser
 10
800.0
 20
225.0
 30
-50.0
  0
VERTEX
  8
CorteLaser
 10
800.0
 20
200.0
 30
-50.0
  0
VERTEX
  8
CorteLaser
 10
824.8
 20
200.0
 30
-50.0
  0
VERTEX
  8
CorteLaser
 10
824.8
 20
206.2
 30
-50.0
 42
-1.0
  0
VERTEX
  8
CorteLaser
 10
831.0
 20
206.2
 30
-50.0
  0
VERTEX
  8
CorteLaser
 10
831.0
 20
200.0
 30
-50.0
  0
VERTEX
  8
CorteLaser
 10
888.8102805
 20
200.0
 30
-50.0
  0
VERTEX
  8
CorteLaser
 10
888.8102805
 20
205.0
 30
-50.0
 42
-1.0
  0
VERTEX
  8
CorteLaser
 10
896.8102805
 20
205.0
 30
-50.0
  0
VERTEX
  8
CorteLaser
 10
896.8102805
 20
200.0
 30
-50.0
  0
VERTEX
  8
CorteLaser
 10
1019.0
 20
200.0
 30
-50.0
  0
VERTEX
  8
CorteLaser
 10
1019.0
 20
206.2
 30
-50.0
 42
-1.0
  0
VERTEX
  8
CorteLaser
 10
1025.2
 20
206.2
 30
-50.0
  0
VERTEX
  8
CorteLaser
 10
1025.2
 20
200.0
 30
-50.0
  0
VERTEX
  8
CorteLaser
 10
1056.0
 20
200.0
 30
-50.0
  0
VERTEX
  8
CorteLaser
 10
1056.0
 20
225.0
 30
-50.0
  0
VERTEX
  8
CorteLaser
 10
1050.0
 20
225.0
 30
-50.0
  0
VERTEX
  8
CorteLaser
 10
1050.0
 20
250.0
 30
-50.0
  0
VERTEX
  8
CorteLaser
 10
1056.0
 20
250.0
 30
-50.0
  0
VERTEX
  8
CorteLaser
 10
1056.0
 20
275.0
 30
-50.0
  0
VERTEX
  8
CorteLaser
 10
1050.0
 20
275.0
 30
-50.0
  0
VERTEX
  8
CorteLaser
 10
1050.0
 20
300.0
 30
-50.0
  0
VERTEX
  8
CorteLaser
 10
1056.0
 20
300.0
 30
-50.0
  0
VERTEX
  8
CorteLaser
 10
1056.0
 20
325.0
 30
-50.0
  0
VERTEX
  8
CorteLaser
 10
1050.0
 20
325.0
 30
-50.0
  0
VERTEX
  8
CorteLaser
 10
1050.0
 20
350.0
 30
-50.0
  0
VERTEX
  8
CorteLaser
 10
1056.0
 20
350.0
 30
-50.0
  0
VERTEX
  8
CorteLaser
 10
1056.0
 20
375.0
 30
-50.0
  0
VERTEX
  8
CorteLaser
 10
1050.0
 20
375.0
 30
-50.0
  0
VERTEX
  8
CorteLaser
 10
1050.0
 20
400.0
 30
-50.0
  0
VERTEX
  8
CorteLaser
 10
1056.0
 20
400.0
 30
-50.0
  0
VERTEX
  8
CorteLaser
 10
1056.0
 20
425.0
 30
-50.0
  0
VERTEX
  8
CorteLaser
 10
1050.0
 20
425.0
 30
-50.0
  0
VERTEX
  8
CorteLaser
 10
1050.0
 20
450.0
 30
-50.0
  0
VERTEX
  8
CorteLaser
 10
1056.0
 20
450.0
 30
-50.0
  0
VERTEX
  8
CorteLaser
 10
1056.0
 20
475.0
 30
-50.0
  0
VERTEX
  8
CorteLaser
 10
1050.0
 20
475.0
 30
-50.0
  0
SEQEND
  8
CorteLaser
  0
POLYLINE
  8
CorteLaser
 62
0
 70
1
 66
1
 10
0.0
 20
0.0
 30
0.0
  0
VERTEX
  8
CorteLaser
 10
946.0
 20
406.419121089
 30
-50.0
  0
VERTEX
  8
CorteLaser
 10
931.5
 20
406.419121089
 30
-50.0
  0
VERTEX
  8
CorteLaser
 10
931.5
 20
351.019121089
 30
-50.0
  0
VERTEX
  8
CorteLaser
 10
946.0
 20
351.019121089
 30
-50.0
  0
VERTEX
  8
CorteLaser
 10
946.0
 20
305.419121089
 30
-50.0
  0
VERTEX
  8
CorteLaser
 10
994.5
 20
305.419121089
 30
-50.0
  0
VERTEX
  8
CorteLaser
 10
994.5
 20
406.419121089
 30
-50.0
  0
SEQEND
  8
CorteLaser
  0
CIRCLE
  8
CorteLaser
 62
0
 10
1015.0
 20
484.0
 30
-50.0
 40
2.2
  0
CIRCLE
  8
CorteLaser
 62
0
 10
881.5
 20
224.0
 30
-50.0
 40
2.1
  0
CIRCLE
  8
CorteLaser
 62
0
 10
925.030777
 20
204.0
 30
-50.0
 40
2.1
  0
CIRCLE
  8
CorteLaser
 62
0
 10
955.0
 20
484.999961986
 30
-50.0
 40
2.1
  0
CIRCLE
  8
CorteLaser
 62
0
 10
1038.0
 20
432.0
 30
-50.0
 40
2.1
  0
CIRCLE
  8
CorteLaser
 62
0
 10
955.0
 20
465.0
 30
-50.0
 40
2.1
  0
CIRCLE
  8
CorteLaser
 62
0
 10
872.5
 20
204.0
 30
-50.0
 40
2.1
  0
CIRCLE
  8
CorteLaser
 62
0
 10
980.0
 20
291.919121089
 30
-50.0
 40
2.1
  0
CIRCLE
  8
CorteLaser
 62
0
 10
881.8102805
 20
205.0
 30
-50.0
 40
2.2
  0
CIRCLE
  8
CorteLaser
 62
0
 10
925.339562
 20
386.232850052
 30
-50.0
 40
2.1
  0
CIRCLE
  8
CorteLaser
 62
0
 10
895.0
 20
484.999961986
 30
-50.0
 40
2.1
  0
CIRCLE
  8
CorteLaser
 62
0
 10
968.5
 20
224.0
 30
-50.0
 40
2.1
  0
CIRCLE
  8
CorteLaser
 62
0
 10
1038.0
 20
332.0
 30
-50.0
 40
2.1
  0
CIRCLE
  8
CorteLaser
 62
0
 10
881.5
 20
238.0
 30
-50.0
 40
2.1
  0
CIRCLE
  8
CorteLaser
 62
0
 10
968.5
 20
436.0
 30
-50.0
 40
2.1
  0
CIRCLE
  8
CorteLaser
 62
0
 10
1015.0
 20
456.0
 30
-50.0
 40
2.2
  0
CIRCLE
  8
CorteLaser
 62
0
 10
968.5
 20
238.0
 30
-50.0
 40
2.1
  0
POLYLINE
  8
CorteLaser
 62
0
 70
1
 66
1
 10
0.0
 20
0.0
 30
0.0
  0
VERTEX
  8
CorteLaser
 10
900.0
 20
478.749961986
 30
-50.0
 42
-0.414213562373
  0
VERTEX
  8
CorteLaser
 10
906.25
 20
484.999961986
 30
-50.0
  0
VERTEX
  8
CorteLaser
 10
943.75
 20
484.999961986
 30
-50.0
 42
-0.414213562373
  0
VERTEX
  8
CorteLaser
 10
950.0
 20
478.749961986
 30
-50.0
  0
VERTEX
  8
CorteLaser
 10
950.0
 20
471.249961986
 30
-50.0
 42
-0.414213562373
  0
VERTEX
  8
CorteLaser
 10
943.75
 20
464.999961986
 30
-50.0
  0
VERTEX
  8
CorteLaser
 10
906.25
 20
464.999961986
 30
-50.0
 42
-0.414213562373
  0
VERTEX
  8
CorteLaser
 10
900.0
 20
471.249961986
 30
-50.0
  0
SEQEND
  8
CorteLaser
  0
CIRCLE
  8
CorteLaser
 62
0
 10
812.0
 20
332.0
 30
-50.0
 40
2.1
  0
CIRCLE
  8
CorteLaser
 62
0
 10
925.339562
 20
372.232850052
 30
-50.0
 40
2.1
  0
CIRCLE
  8
CorteLaser
 62
0
 10
820.0
 20
212.0
 30
-50.0
 40
2.2
  0
CIRCLE
  8
CorteLaser
 62
0
 10
812.0
 20
432.0
 30
-50.0
 40
2.1
  0
CIRCLE
  8
CorteLaser
 62
0
 10
881.5
 20
450.0
 30
-50.0
 40
2.1
  0
CIRCLE
  8
CorteLaser
 62
0
 10
895.0
 20
465.0
 30
-50.0
 40
2.1
  0
CIRCLE
  8
CorteLaser
 62
0
 10
977.5
 20
204.0
 30
-50.0
 40
2.1
  0
CIRCLE
  8
CorteLaser
 62
0
 10
835.0
 20
484.0
 30
-50.0
 40
2.2
  0
CIRCLE
  8
CorteLaser
 62
0
 10
1030.0
 20
212.0
 30
-50.0
 40
2.2
  0
POLYLINE
  8
CorteLaser
 62
0
 70
1
 66
1
 10
0.0
 20
0.0
 30
0.0
  0
VERTEX
  8
CorteLaser
 10
864.0
 20
222.0
 30
-50.0
  0
VERTEX
  8
CorteLaser
 10
864.0
 20
243.0
 30
-50.0
  0
VERTEX
  8
CorteLaser
 10
835.0
 20
243.0
 30
-50.0
  0
VERTEX
  8
CorteLaser
 10
835.0
 20
222.0
 30
-50.0
  0
SEQEND
  8
CorteLaser
  0
CIRCLE
  8
CorteLaser
 62
0
 10
966.0
 20
291.919121089
 30
-50.0
 40
2.1
  0
CIRCLE
  8
CorteLaser
 62
0
 10
925.0
 20
212.0
 30
-50.0
 40
2.1
  0
CIRCLE
  8
CorteLaser
 62
0
 10
872.5
 20
212.0
 30
-50.0
 40
2.1
  0
CIRCLE
  8
CorteLaser
 62
0
 10
1018.0
 20
432.0
 30
-50.0
 40
2.1
  0
CIRCLE
  8
CorteLaser
 62
0
 10
903.8102805
 20
205.0
 30
-50.0
 40
2.2
  0
CIRCLE
  8
CorteLaser
 62
0
 10
832.0
 20
332.0
 30
-50.0
 40
2.1
  0
CIRCLE
  8
CorteLaser
 62
0
 10
835.0
 20
456.0
 30
-50.0
 40
2.2
  0
CIRCLE
  8
CorteLaser
 62
0
 10
881.5
 20
436.0
 30
-50.0
 40
2.1
  0
CIRCLE
  8
CorteLaser
 62
0
 10
968.5
 20
450.0
 30
-50.0
 40
2.1
  0
CIRCLE
  8
CorteLaser
 62
0
 10
1018.0
 20
332.0
 30
-50.0
 40
2.1
  0
CIRCLE
  8
CorteLaser
 62
0
 10
832.0
 20
432.0
 30
-50.0
 40
2.1
  0
CIRCLE
  8
CorteLaser
 62
0
 10
977.5
 20
212.0
 30
-50.0
 40
2.1
  0
ENDSEC
  0
EOF
