<?xml version="1.0" encoding="UTF-8" standalone="no"?>
<!-- Created with Inkscape (http://www.inkscape.org/) -->

<svg
   xmlns:dc="http://purl.org/dc/elements/1.1/"
   xmlns:cc="http://creativecommons.org/ns#"
   xmlns:rdf="http://www.w3.org/1999/02/22-rdf-syntax-ns#"
   xmlns:svg="http://www.w3.org/2000/svg"
   xmlns="http://www.w3.org/2000/svg"
   version="1.2"
   width="210mm"
   height="297mm"
   id="svg2">
  <defs
     id="defs4" />
  <metadata
     id="metadata7">
    <rdf:RDF>
      <cc:Work
         rdf:about="">
        <dc:format>image/svg+xml</dc:format>
        <dc:type
           rdf:resource="http://purl.org/dc/dcmitype/StillImage" />
        <dc:title></dc:title>
      </cc:Work>
    </rdf:RDF>
  </metadata>
  <g
     id="layer1">
    <g
       transform="matrix(0.82650261,0,0,1.3735065,-44.046934,-291.99651)"
       id="flowRoot2985"
       style="font-size:40px;font-style:normal;font-variant:normal;font-weight:normal;font-stretch:normal;text-align:start;line-height:125%;letter-spacing:0px;word-spacing:0px;writing-mode:lr-tb;text-anchor:start;fill:#000000;fill-opacity:1;stroke:none;font-family:cmsy10;-inkscape-font-specification:cmsy10">
      <path
         d="m 55.085937,214.49106 8.398438,0 6.679687,20.19531 3.925782,-20.19531 7.109375,0 -5.683594,29.16016 -8.398438,0 -6.679687,-20.19532 -3.90625,20.19532 -7.128906,0 5.683593,-29.16016"
         id="path2998"
         style="font-family:KacstOffice;-inkscape-font-specification:KacstOffice Bold Italic" />
      <path
         d="m 97.078125,226.24887 c -1.809909,2e-5 -3.300793,0.82033 -4.472656,2.46094 -1.171885,1.64064 -1.757822,3.73048 -1.757813,6.26953 -9e-6,1.38022 0.312491,2.4349 0.9375,3.16406 0.638011,0.71615 1.562489,1.07423 2.773438,1.07422 1.809881,1e-5 3.300765,-0.8203 4.472656,-2.46093 1.17186,-1.65364 1.75779,-3.7565 1.75781,-6.3086 -2e-5,-1.36717 -0.31903,-2.40884 -0.957029,-3.125 -0.625017,-0.71613 -1.542985,-1.0742 -2.753906,-1.07422 m 0.566406,-5 c 3.255189,3e-5 5.813779,0.82685 7.675779,2.48047 1.86196,1.65367 2.79295,3.90627 2.79297,6.75781 -2e-5,1.65366 -0.29299,3.26173 -0.8789,4.82422 -0.58597,1.54949 -1.43883,2.96876 -2.5586,4.25782 -1.32815,1.53646 -2.89715,2.69531 -4.70703,3.47656 -1.809912,0.78125 -3.828139,1.17187 -6.054688,1.17187 -3.216154,0 -5.755214,-0.82682 -7.617187,-2.48047 -1.848961,-1.65364 -2.773439,-3.90624 -2.773438,-6.75781 -10e-7,-1.64061 0.299478,-3.24217 0.898438,-4.80469 0.598955,-1.5755 1.45833,-3.0143 2.578125,-4.3164 1.302077,-1.5104 2.851555,-2.65623 4.648437,-3.4375 1.809885,-0.78123 3.808581,-1.17185 5.996094,-1.17188"
         id="path3000"
         style="font-style:italic;font-weight:bold;font-family:rsfs10;-inkscape-font-specification:rsfs10 Bold Italic" />
      <path
         d="m 123.97266,215.56528 -1.19141,6.21094 7.14844,0 -0.9961,5 -7.14843,0 -1.79688,9.25781 c -0.0521,0.20834 -0.0911,0.38412 -0.11719,0.52734 -0.013,0.14324 -0.0195,0.27996 -0.0195,0.41016 -1e-5,0.59896 0.1953,1.02865 0.58594,1.28906 0.40363,0.26042 1.07421,0.39063 2.01172,0.39063 l 3.61328,0 -0.99609,5 -5.87891,0 c -2.10938,0 -3.71745,-0.44271 -4.82422,-1.32813 -1.10677,-0.88541 -1.66016,-2.16145 -1.66015,-3.82812 -1e-5,-0.36458 0.0195,-0.75521 0.0586,-1.17188 0.0391,-0.41666 0.0977,-0.83984 0.17578,-1.26953 l 1.79688,-9.27734 -3.4375,0 0.95703,-5 3.47656,0 1.21094,-6.21094 7.03125,0"
         id="path3002"
         style="font-style:italic;font-weight:bold;font-family:rsfs10;-inkscape-font-specification:rsfs10 Bold Italic" />
      <path
         d="m 134.20703,221.77622 7.03125,0 -4.27734,21.875 -7.01172,0 4.25781,-21.875 m 1.64063,-8.51563 7.03125,0 -1.11329,5.70313 -7.05078,0 1.13282,-5.70313"
         id="path3004"
         style="font-style:italic;font-weight:bold;font-family:rsfs10;-inkscape-font-specification:rsfs10 Bold Italic" />
      <path
         d="m 149.59766,213.26059 7.03125,0 -5.91797,30.39063 -7.01172,0 5.89844,-30.39063"
         id="path3006"
         style="font-style:italic;font-weight:bold;font-family:rsfs10;-inkscape-font-specification:rsfs10 Bold Italic" />
      <path
         d="m 163.34766,213.26059 7.03125,0 -5.91797,30.39063 -7.01172,0 5.89844,-30.39063"
         id="path3008"
         style="font-style:italic;font-weight:bold;font-family:rsfs10;-inkscape-font-specification:rsfs10 Bold Italic" />
      <path
         d="m 172.68359,235.13559 2.5586,-13.35937 7.01172,0 -2.20704,11.38672 c -0.15625,0.74219 -0.27344,1.3737 -0.35156,1.89453 -0.0781,0.52084 -0.11719,0.93099 -0.11719,1.23047 0,0.82031 0.22786,1.45833 0.6836,1.91406 0.45572,0.45573 1.10676,0.6836 1.95312,0.68359 1.4453,1e-5 2.68879,-0.55989 3.73047,-1.67969 1.04165,-1.11978 1.7578,-2.67577 2.14844,-4.66796 l 2.10937,-10.76172 7.01172,0 -4.23828,21.875 -7.05078,0 0.64453,-3.20313 c -1.19793,1.26302 -2.45444,2.20703 -3.76953,2.83203 -1.31511,0.625 -2.70183,0.9375 -4.16016,0.9375 -1.99219,0 -3.53516,-0.52734 -4.6289,-1.58203 -1.09375,-1.05468 -1.64063,-2.54557 -1.64063,-4.47265 0,-0.45573 0.026,-0.9375 0.0781,-1.44532 0.0521,-0.5078 0.1302,-1.03515 0.23437,-1.58203"
         id="path3010"
         style="font-style:italic;font-weight:bold;font-family:rsfs10;-inkscape-font-specification:rsfs10 Bold Italic" />
      <path
         d="m 220.88672,222.45981 -1.03516,5.42969 c -1.36721,-0.65103 -2.72788,-1.14582 -4.08203,-1.48438 -1.35418,-0.33852 -2.63673,-0.50779 -3.84766,-0.50781 -1.38022,2e-5 -2.44792,0.18231 -3.20312,0.54688 -0.7422,0.35157 -1.11329,0.85939 -1.11328,1.52343 -1e-5,0.39064 0.20832,0.70314 0.625,0.9375 0.41666,0.23439 1.23697,0.48179 2.46094,0.74219 l 1.26953,0.23438 c 2.8255,0.59897 4.80467,1.37371 5.9375,2.32421 1.13279,0.93751 1.6992,2.24611 1.69922,3.92579 -2e-5,2.53906 -0.99612,4.52474 -2.98829,5.95703 -1.9922,1.41927 -4.77865,2.1289 -8.35937,2.1289 -1.4974,0 -3.02735,-0.11719 -4.58984,-0.35156 -1.56251,-0.23437 -3.15756,-0.58594 -4.78516,-1.05469 l 1.05469,-5.48828 c 1.26302,0.74219 2.61067,1.30209 4.04297,1.67969 1.4453,0.37761 2.92316,0.56641 4.43359,0.56641 1.47134,0 2.57811,-0.17578 3.32031,-0.52735 0.74218,-0.35156 1.11327,-0.86588 1.11328,-1.54297 -1e-5,-0.46874 -0.20834,-0.83332 -0.625,-1.09375 -0.41668,-0.26041 -1.27605,-0.52733 -2.57812,-0.80078 l -1.26953,-0.23437 c -2.50001,-0.52083 -4.28386,-1.28906 -5.35157,-2.30469 -1.06771,-1.01561 -1.60156,-2.42186 -1.60156,-4.21875 0,-2.43488 0.91797,-4.30988 2.75391,-5.625 1.84895,-1.31508 4.48567,-1.97263 7.91015,-1.97266 1.49739,3e-5 2.96874,0.10419 4.41407,0.3125 1.45831,0.19534 2.92315,0.49482 4.39453,0.89844"
         id="path3012"
         style="font-style:italic;font-weight:bold;font-family:rsfs10;-inkscape-font-specification:rsfs10 Bold Italic" />
    </g>
  </g>
</svg>
