<?xml version="1.0" encoding="UTF-8" standalone="no"?>
<!-- Created with Inkscape (http://www.inkscape.org/) -->

<svg
   xmlns:dc="http://purl.org/dc/elements/1.1/"
   xmlns:cc="http://creativecommons.org/ns#"
   xmlns:rdf="http://www.w3.org/1999/02/22-rdf-syntax-ns#"
   xmlns:svg="http://www.w3.org/2000/svg"
   xmlns="http://www.w3.org/2000/svg"
   version="1.2"
   width="210mm"
   height="297mm"
   id="svg2">
  <defs
     id="defs4" />
  <metadata
     id="metadata7">
    <rdf:RDF>
      <cc:Work
         rdf:about="">
        <dc:format>image/svg+xml</dc:format>
        <dc:type
           rdf:resource="http://purl.org/dc/dcmitype/StillImage" />
        <dc:title></dc:title>
      </cc:Work>
    </rdf:RDF>
  </metadata>
  <g
     id="layer1">
    <g
       transform="matrix(1.0305797,0,0,1.3088457,-20.646823,-333.05412)"
       id="flowRoot3019"
       style="font-size:40px;font-style:normal;font-variant:normal;font-weight:normal;font-stretch:normal;text-align:start;line-height:125%;letter-spacing:0px;word-spacing:0px;writing-mode:lr-tb;text-anchor:start;fill:#000000;fill-opacity:1;stroke:none;font-family:Droid Sans Mono;-inkscape-font-specification:Droid Sans Mono">
      <path
         d="m 39.44,257.48352 -18.144,0 0,3.96 c 3.239997,0.072 5.832002,1.44001 7.632,4.032 l 0,28.368 c 0,6.336 -0.360002,8.13601 -1.872,9.72 -1.151999,1.224 -2.808003,1.8 -5.904,1.944 l 0,3.888 20.52,0 0,-3.888 c -3.095997,-0.144 -4.896001,-0.72 -6.048,-1.944 -1.511998,-1.58399 -1.872,-3.384 -1.872,-9.72 l 0,-23.688 33.48,39.816 4.824,0 0,-36.864 c 0,-6.40799 0.360002,-8.208 1.872,-9.792 1.151999,-1.22399 3.168003,-1.872 6.048,-1.944 l 0,-3.888 -20.52,0 0,3.888 c 2.807997,0.072 4.752001,0.72001 5.904,1.944 1.511998,1.584 1.872,3.45601 1.872,9.792 l 0,16.92 -27.792,-32.544"
         id="path3028"
         style="font-size:72px;font-weight:bold;font-family:Century Schoolbook L;-inkscape-font-specification:Century Schoolbook L Bold" />
      <path
         d="m 110.07088,256.40352 c -6.984,0 -12.88801,2.01601 -17.568005,6.12 -6.047994,5.184 -9.648,13.32001 -9.648,21.744 0,15.26399 11.232016,26.28 26.856005,26.28 7.34399,0 13.032,-1.8 17.856,-5.616 6.19199,-4.96799 9.64799,-12.312 9.64799,-20.736 0,-8.35199 -3.672,-16.56 -9.64799,-21.672 -4.824,-4.17599 -10.44001,-6.12 -17.496,-6.12 m 0.072,3.744 c 3.88799,0 6.912,1.87201 9,5.544 2.37599,4.32 3.672,10.80001 3.672,18.576 0,14.61599 -4.46401,22.536 -12.672,22.536 -4.176,0 -7.20001,-1.8 -9.21601,-5.544 -2.375993,-4.46399 -3.671995,-10.8 -3.671995,-18.36 0,-7.77599 1.224002,-13.536 3.671995,-17.64 2.088,-3.52799 4.96801,-5.112 9.21601,-5.112"
         id="path3030"
         style="font-size:72px;font-weight:bold;font-family:Century Schoolbook L;-inkscape-font-specification:Century Schoolbook L Bold" />
      <path
         d="m 189.91775,257.48352 -47.664,0 -1.08,19.512 3.816,0 c 0.936,-5.32799 1.944,-8.136 3.672,-10.656 2.304,-3.45599 5.04,-5.112 8.352,-5.112 2.16,0 2.592,0.50401 2.592,2.952 l 0,34.92 c 0,4.536 0,4.82401 -0.504,5.4 -0.648,0.792 -2.16,1.08 -5.976,1.08 l -1.584,0 0,3.888 29.088,0 0,-3.888 -1.584,0 c -3.816,0 -5.328,-0.288 -5.976,-1.08 -0.504,-0.57599 -0.504,-0.864 -0.504,-5.4 l 0,-34.92 c 0,-2.44799 0.432,-2.952 2.592,-2.952 3.096,0 5.472,1.29601 7.776,4.248 2.016,2.664 3.168,5.68801 4.248,11.52 l 3.816,0 -1.08,-19.512"
         id="path3032"
         style="font-size:72px;font-weight:bold;font-family:Century Schoolbook L;-inkscape-font-specification:Century Schoolbook L Bold" />
      <path
         d="m 201.629,299.09952 c 0,4.536 0,4.82401 -0.504,5.4 -0.648,0.792 -2.16,1.08 -5.904,1.08 l -1.08,0 0,3.888 28.008,0 0,-3.888 -1.08,0 c -3.744,0 -5.328,-0.288 -5.976,-1.08 -0.504,-0.57599 -0.504,-0.792 -0.504,-5.4 l 0,-31.248 c 0,-4.60799 0,-4.824 0.504,-5.4 0.648,-0.79199 2.232,-1.08 5.976,-1.08 l 1.08,0 0,-3.888 -28.008,0 0,3.888 1.08,0 c 3.744,0 5.256,0.28801 5.904,1.08 0.504,0.576 0.504,0.86401 0.504,5.4 l 0,31.248"
         id="path3034"
         style="font-size:72px;font-weight:bold;font-family:Century Schoolbook L;-inkscape-font-specification:Century Schoolbook L Bold" />
      <path
         d="m 270.70287,290.09952 c -1.43999,4.968 -2.736,7.70401 -4.68,10.08 -2.95199,3.528 -7.056,5.4 -12.168,5.4 l -1.512,0 c -3.52799,0 -4.464,-0.144 -5.328,-1.008 -0.93599,-0.86399 -1.152,-1.656 -1.152,-4.032 l 0,-32.688 c 0,-4.53599 1e-5,-4.824 0.504,-5.4 0.648,-0.79199 2.16001,-1.08 5.976,-1.08 l 1.584,0 0,-3.888 -28.512,0 0,3.888 1.08,0 c 3.744,0 5.25601,0.28801 5.904,1.08 0.504,0.576 0.504,0.86401 0.504,5.4 l 0,31.176 c 0,4.608 0,4.89601 -0.504,5.472 -0.64799,0.792 -2.16,1.08 -5.904,1.08 l -1.08,0 0,3.888 48.24,0 0.864,-19.368 -3.816,0"
         id="path3036"
         style="font-size:72px;font-weight:bold;font-family:Century Schoolbook L;-inkscape-font-specification:Century Schoolbook L Bold" />
      <path
         d="m 322.73412,290.09952 c -1.43999,4.968 -2.736,7.70401 -4.68,10.08 -2.95199,3.528 -7.056,5.4 -12.168,5.4 l -1.512,0 c -3.52799,0 -4.464,-0.144 -5.32799,-1.008 -0.936,-0.86399 -1.15201,-1.656 -1.15201,-4.032 l 0,-32.688 c 0,-4.53599 1e-5,-4.824 0.504,-5.4 0.648,-0.79199 2.16001,-1.08 5.976,-1.08 l 1.584,0 0,-3.888 -28.512,0 0,3.888 1.08,0 c 3.744,0 5.25601,0.28801 5.904,1.08 0.504,0.576 0.504,0.86401 0.504,5.4 l 0,31.176 c 0,4.608 0,4.89601 -0.504,5.472 -0.64799,0.792 -2.16,1.08 -5.904,1.08 l -1.08,0 0,3.888 48.24,0 0.864,-19.368 -3.816,0"
         id="path3038"
         style="font-size:72px;font-weight:bold;font-family:Century Schoolbook L;-inkscape-font-specification:Century Schoolbook L Bold" />
      <path
         d="m 349.63738,267.85152 c 0,-4.53599 0,-4.824 0.50399,-5.4 0.648,-0.79199 2.23201,-1.08 5.976,-1.08 l 1.08001,0 0,-3.888 -28.00801,0 0,3.888 1.08001,0 c 3.74399,0 5.256,0.28801 5.904,1.08 0.50399,0.576 0.50399,0.86401 0.50399,5.4 l 0,22.824 c 0,6.048 0.50401,9.07201 1.872,11.592 2.952,5.4 9.93602,8.28 20.08801,8.28 9.21599,0 14.76,-2.448 18.288,-7.992 2.01599,-3.23999 2.592,-6.48 2.592,-14.976 l 0,-14.472 c 0,-6.33599 0.36,-8.208 1.87199,-9.792 1.152,-1.22399 3.16801,-1.872 6.048,-1.944 l 0,-3.888 -20.52,0 0,3.888 c 2.808,0.072 4.75201,0.72001 5.904,1.944 1.512,1.584 1.872,3.38401 1.872,9.792 l 0,14.472 c 0,5.904 -0.288,8.71201 -1.22399,10.728 -2.088,4.536 -6.26401,6.84 -12.24001,6.84 -4.10399,0 -7.2,-1.224 -9.216,-3.528 -1.58399,-1.94399 -2.37599,-5.472 -2.37599,-10.728 l 0,-23.04"
         id="path3040"
         style="font-size:72px;font-weight:bold;font-family:Century Schoolbook L;-inkscape-font-specification:Century Schoolbook L Bold" />
      <path
         d="m 430.49225,256.97952 -3.24,0 -3.744,3.312 c -4.032,-2.73599 -7.92001,-3.888 -12.96,-3.888 -11.08799,0 -18.648,6.48001 -18.648,16.056 0,8.784 6.48001,15.04801 17.784,17.136 l 4.464,0.864 c 4.608,0.864 6.048,1.22401 7.776,2.16 2.016,1.08 3.168,3.24001 3.168,5.76 0,5.04 -4.10401,8.424 -10.368,8.424 -8.13599,0 -15.264,-6.40801 -19.224,-17.208 l -3.672,0 0.432,20.376 3.24,0 4.464,-4.248 c 4.392,3.312 9.00001,4.824 14.76,4.824 11.23199,0 19.008,-7.05601 19.008,-17.136 0,-9.14399 -5.40001,-14.256 -17.856,-16.992 l -3.456,-0.792 c -5.54399,-1.07999 -5.544,-1.08 -7.344,-1.728 -3.24,-1.15199 -4.896,-3.24 -4.896,-6.192 0,-4.39199 4.03201,-7.56 9.72,-7.56 7.48799,0 13.464,5.25601 17.712,15.48 l 3.816,0 -0.936,-18.648"
         id="path3042"
         style="font-size:72px;font-weight:bold;font-family:Century Schoolbook L;-inkscape-font-specification:Century Schoolbook L Bold" />
    </g>
  </g>
</svg>
