<?xml version="1.0" encoding="UTF-8" standalone="no"?>
<!-- Created with Inkscape (http://www.inkscape.org/) -->

<svg
   xmlns:dc="http://purl.org/dc/elements/1.1/"
   xmlns:cc="http://creativecommons.org/ns#"
   xmlns:rdf="http://www.w3.org/1999/02/22-rdf-syntax-ns#"
   xmlns:svg="http://www.w3.org/2000/svg"
   xmlns="http://www.w3.org/2000/svg"
   version="1.2"
   width="210mm"
   height="297mm"
   id="svg2">
  <defs
     id="defs4" />
  <metadata
     id="metadata7">
    <rdf:RDF>
      <cc:Work
         rdf:about="">
        <dc:format>image/svg+xml</dc:format>
        <dc:type
           rdf:resource="http://purl.org/dc/dcmitype/StillImage" />
        <dc:title></dc:title>
      </cc:Work>
    </rdf:RDF>
  </metadata>
  <g
     id="layer1">
    <g
       transform="matrix(1.0344596,0,0,1.1899339,50.671671,-12.88377)"
       id="flowRoot2985"
       style="font-size:40px;font-style:normal;font-weight:normal;line-height:125%;letter-spacing:0px;word-spacing:0px;fill:#000000;fill-opacity:1;stroke:none;font-family:Sans">
      <path
         d="m 32.195312,74.496408 10.652344,0 7.558594,38.144532 7.417969,-38.144532 9.140625,0 -10.125,52.488282 -10.300782,0 -7.910156,-38.144532 -7.417969,38.144532 -9.246093,0 10.230468,-52.488282"
         id="path3045"
         style="font-size:72px;font-style:italic;font-variant:normal;font-weight:bold;font-stretch:normal;font-family:Monospace;-inkscape-font-specification:Monospace Bold Italic" />
      <path
         d="m 96.039062,102.93781 c -2.9e-5,-2.55466 -0.55081,-4.523404 -1.652343,-5.906245 -1.078152,-1.382782 -2.613307,-2.074187 -4.605469,-2.074219 -2.882833,3.2e-5 -5.296893,1.59378 -7.242188,4.78125 -1.945326,3.187524 -2.917982,7.183614 -2.917968,11.988284 -1.4e-5,2.48438 0.562486,4.44141 1.6875,5.87109 1.148421,1.40626 2.695294,2.10938 4.640625,2.10938 2.835915,0 5.226537,-1.59375 7.171875,-4.78125 1.945283,-3.21093 2.917939,-7.20702 2.917968,-11.98829 M 69.25,112.00813 c -3e-6,-7.54686 1.945307,-13.664037 5.835937,-18.351565 3.91405,-4.7109 8.999983,-7.066366 15.257813,-7.066407 5.039033,4.1e-5 8.976529,1.418008 11.8125,4.253907 2.8359,2.812533 4.25387,6.726592 4.25391,11.742185 -4e-5,7.57033 -1.95707,13.69923 -5.8711,18.38672 -3.890653,4.6875 -8.964867,7.03125 -15.222654,7.03125 -5.039076,0 -8.976572,-1.40625 -11.8125,-4.21875 -2.835942,-2.83593 -4.253909,-6.76171 -4.253906,-11.77734"
         id="path3047"
         style="font-size:72px;font-style:italic;font-variant:normal;font-weight:bold;font-stretch:normal;font-family:Monospace;-inkscape-font-specification:Monospace Bold Italic" />
      <path
         d="m 139.28125,76.430002 -2.17969,11.179688 13.46485,0 -1.51172,7.910156 -13.46485,0 -3.65625,18.632814 c -0.0938,0.46876 -0.16408,0.87892 -0.21093,1.23047 -0.0469,0.35157 -0.0703,0.6211 -0.0703,0.80859 -2e-5,1.0547 0.35154,1.8047 1.05469,2.25 0.7031,0.42188 1.98044,0.63282 3.83203,0.63281 l 7.91016,0 -1.51172,7.91016 -8.61328,0 c -4.78127,0 -8.17971,-0.64453 -10.19531,-1.93359 -1.9922,-1.3125 -2.9883,-3.48047 -2.98828,-6.50391 -2e-5,-0.49218 0.0469,-1.13671 0.14062,-1.93359 0.11718,-0.79687 0.28124,-1.78124 0.49219,-2.95313 l 3.55078,-18.140624 -10.08984,0 1.51171,-7.910156 10.08985,0 2.14453,-11.179688 10.30078,0"
         id="path3049"
         style="font-size:72px;font-style:italic;font-variant:normal;font-weight:bold;font-stretch:normal;font-family:Monospace;-inkscape-font-specification:Monospace Bold Italic" />
      <path
         d="m 163.64453,87.60969 20.39063,0 -6.11719,31.46484 12.79687,0 -1.51172,7.91016 -35.92968,0 1.51172,-7.91016 12.83203,0 4.60547,-23.554684 -10.08985,0 1.51172,-7.910156 m 13.81641,-19.160157 10.30078,0 -2.35547,12.023438 -10.30078,0 2.35547,-12.023438"
         id="path3051"
         style="font-size:72px;font-style:italic;font-variant:normal;font-weight:bold;font-stretch:normal;font-family:Monospace;-inkscape-font-specification:Monospace Bold Italic" />
      <path
         d="m 218.06641,114.15266 c -0.0938,0.46876 -0.17581,0.90235 -0.2461,1.30078 -0.0469,0.37501 -0.0703,0.6211 -0.0703,0.73828 -2e-5,1.0547 0.36326,1.8047 1.08984,2.25 0.72654,0.42188 2.00389,0.63282 3.83203,0.63281 l 9.77344,0 -1.58203,7.91016 -10.44141,0 c -4.8047,0 -8.20314,-0.65625 -10.19531,-1.96875 -1.9922,-1.3125 -2.98829,-3.49218 -2.98828,-6.53906 -1e-5,-0.53906 0.0586,-1.21874 0.17578,-2.03907 0.11718,-0.8203 0.28124,-1.74608 0.49219,-2.77734 l 7.13672,-33.468749 -10.75781,0 1.51171,-7.910156 21.02344,0 -8.7539,41.871095"
         id="path3053"
         style="font-size:72px;font-style:italic;font-variant:normal;font-weight:bold;font-stretch:normal;font-family:Monospace;-inkscape-font-specification:Monospace Bold Italic" />
      <path
         d="m 261.37891,114.15266 c -0.0938,0.46876 -0.17581,0.90235 -0.2461,1.30078 -0.0469,0.37501 -0.0703,0.6211 -0.0703,0.73828 -2e-5,1.0547 0.36326,1.8047 1.08984,2.25 0.72654,0.42188 2.00389,0.63282 3.83203,0.63281 l 9.77344,0 -1.58203,7.91016 -10.44141,0 c -4.8047,0 -8.20314,-0.65625 -10.19531,-1.96875 -1.9922,-1.3125 -2.98829,-3.49218 -2.98828,-6.53906 -1e-5,-0.53906 0.0586,-1.21874 0.17578,-2.03907 0.11718,-0.8203 0.28124,-1.74608 0.49219,-2.77734 l 7.13672,-33.468749 -10.75781,0 1.51171,-7.910156 21.02344,0 -8.7539,41.871095"
         id="path3055"
         style="font-size:72px;font-style:italic;font-variant:normal;font-weight:bold;font-stretch:normal;font-family:Monospace;-inkscape-font-specification:Monospace Bold Italic" />
      <path
         d="m 287.04297,113.2386 5.02734,-25.62891 10.23047,0 -4.60547,24.04687 c -0.1172,0.63283 -0.21095,1.25392 -0.28125,1.86329 -0.0469,0.60938 -0.0703,1.20704 -0.0703,1.79296 -10e-6,1.35939 0.33983,2.41408 1.01953,3.16407 0.67967,0.72657 1.65233,1.08985 2.91797,1.08984 1.94529,1e-5 3.5742,-0.8203 4.88672,-2.46094 1.33591,-1.64061 2.332,-4.07811 2.98828,-7.3125 l 4.28906,-22.18359 10.23047,0 -7.62891,39.375 -10.30078,0 1.16016,-5.83594 c -1.03127,2.10938 -2.54299,3.78516 -4.53516,5.02735 -1.9922,1.21875 -4.17189,1.82812 -6.53906,1.82812 -3.02345,0 -5.34376,-0.82031 -6.96094,-2.46094 -1.61719,-1.66406 -2.42578,-4.04296 -2.42578,-7.13672 0,-0.65624 0.0469,-1.40624 0.14063,-2.25 0.0937,-0.84373 0.24609,-1.81639 0.45703,-2.91796"
         id="path3057"
         style="font-size:72px;font-style:italic;font-variant:normal;font-weight:bold;font-stretch:normal;font-family:Monospace;-inkscape-font-specification:Monospace Bold Italic" />
      <path
         d="m 364.49219,88.840158 -1.75782,8.929688 c -1.75784,-1.242157 -3.65628,-2.179656 -5.69531,-2.8125 -2.03909,-0.63278 -4.14846,-0.949186 -6.32812,-0.949219 -2.20315,3.3e-5 -3.94924,0.410189 -5.23828,1.230469 -1.28908,0.820343 -1.93362,1.921905 -1.9336,3.304687 -2e-5,1.054715 0.42186,1.910187 1.26563,2.566407 0.86717,0.63284 2.81248,1.38284 5.83593,2.25 l 2.60157,0.73828 c 2.99997,0.86721 5.19137,2.12112 6.57422,3.76172 1.38277,1.64064 2.07418,3.79689 2.07421,6.46875 -3e-5,4.26563 -1.61722,7.61719 -4.85156,10.05469 -3.21096,2.41406 -7.68752,3.62109 -13.42969,3.62109 -2.43751,0 -4.87501,-0.21094 -7.3125,-0.63281 -2.41407,-0.39844 -4.78125,-1.00781 -7.10156,-1.82813 l 1.79297,-9 c 2.01562,1.31251 4.13671,2.32032 6.36328,3.02344 2.22655,0.6797 4.42967,1.01954 6.60938,1.01953 2.5781,10e-6 4.58201,-0.43358 6.01172,-1.30078 1.4531,-0.89062 2.17966,-2.12108 2.17968,-3.69141 -2e-5,-1.07811 -0.3633,-1.92186 -1.08984,-2.53125 -0.70315,-0.60936 -2.6133,-1.37107 -5.73047,-2.28515 l -3.09375,-0.84375 c -2.85939,-0.84373 -4.95704,-2.0742 -6.29297,-3.69141 -1.33594,-1.6406 -2.00391,-3.77341 -2.0039,-6.398435 -1e-5,-3.937469 1.59374,-7.113247 4.78125,-9.527344 3.18748,-2.437461 7.42966,-3.65621 12.72656,-3.65625 2.17966,4e-5 4.35934,0.18754 6.53906,0.5625 2.17965,0.351602 4.34762,0.890664 6.50391,1.617187"
         id="path3059"
         style="font-size:72px;font-style:italic;font-variant:normal;font-weight:bold;font-stretch:normal;font-family:Monospace;-inkscape-font-specification:Monospace Bold Italic" />
    </g>
  </g>
</svg>
