<?xml version="1.0" encoding="UTF-8" standalone="no"?>
<!-- Created with Inkscape (http://www.inkscape.org/) -->

<svg
   xmlns:dc="http://purl.org/dc/elements/1.1/"
   xmlns:cc="http://creativecommons.org/ns#"
   xmlns:rdf="http://www.w3.org/1999/02/22-rdf-syntax-ns#"
   xmlns:svg="http://www.w3.org/2000/svg"
   xmlns="http://www.w3.org/2000/svg"
   version="1.2"
   width="210mm"
   height="297mm"
   id="svg2">
  <defs
     id="defs4" />
  <metadata
     id="metadata7">
    <rdf:RDF>
      <cc:Work
         rdf:about="">
        <dc:format>image/svg+xml</dc:format>
        <dc:type
           rdf:resource="http://purl.org/dc/dcmitype/StillImage" />
        <dc:title></dc:title>
      </cc:Work>
    </rdf:RDF>
  </metadata>
  <g
     id="layer1">
    <g
       transform="matrix(1.2057961,0,0,2.1066035,-14.439166,-398.87065)"
       id="flowRoot2985"
       style="font-size:40px;font-style:normal;font-variant:normal;font-weight:normal;font-stretch:normal;text-align:start;line-height:125%;letter-spacing:0px;word-spacing:0px;writing-mode:lr-tb;text-anchor:start;fill:#000000;fill-opacity:1;stroke:none;font-family:cmsy10;-inkscape-font-specification:cmsy10">
      <path
         d="m 18.486334,220.49242 c 1.079999,0.08 1.640001,0.12 2.2,0.12 1.719998,0 2.800001,-0.24001 3.84,-0.88 1.959998,-1.16 3.960001,-4.04001 5.24,-7.4 0.639999,-1.72 0.880002,-2.60001 2.6,-9.52 l 1.48,6.2 c 1.159999,4.95999 2.120001,7.88 3.48,10.6 2.439998,4.95999 5.960005,7.4 10.68,7.4 2.04,0 3.48,-0.36001 5.280001,-1.4 l -0.96,-3.56 c -0.560001,1.31999 -0.840001,1.88 -1.360001,2.48 -0.72,0.87999 -1.72,1.4 -2.72,1.4 -2.519997,0 -4.840002,-1.96001 -6.88,-5.84 0.679999,-3.44 1.040001,-5.00001 2.04,-9.2 1.719998,-6.96 2.600001,-9.84001 3.88,-12.48 0.839999,-1.68 1.8,-2.32 3.64,-2.32 0.28,0 0.52,0 1.08,0.08 l 1.480001,-2.68 c -0.48,-0.04 -0.92,-0.08 -1.24,-0.08 -1.680001,0 -3.480001,1.16 -5.560001,3.6 -1.919998,2.23999 -2.640002,4.28 -4.6,12.92 -0.4,1.87999 -0.84,3.76 -1.28,5.68 -0.04,0.19999 -0.24,1.04 -0.6,2.28 -1.919998,-3.84 -2.440004,-5.40002 -6.68,-21.24 l -1.36,1.24 c -0.959999,-0.08 -1.480001,-0.12 -2.2,-0.12 -2.399998,0 -3.840001,0.44 -5.28,1.56 -2.559997,1.99999 -4.32,4.88 -4.32,7.08 0,0.99999 0.280001,2.04 1,3.52 l 2.76,-1.88 c -0.999999,-2.12 -1.28,-3.04001 -1.28,-4.04 0,-1.2 0.680001,-2.28001 1.8,-2.88 0.959999,-0.52 1.920002,-0.68 3.72,-0.68 0.839999,0 1.560002,0 3.08,0.08 -1.879998,8.03999 -3.400001,13.08 -4.72,15.44 -0.839999,1.47999 -1.720002,1.92 -3.84,1.92 -0.759999,0 -1.360001,-0.04 -2.48,-0.16 l -1.92,2.76"
         id="path2994"
         style="font-style:italic;font-weight:bold;font-family:URW Chancery L;-inkscape-font-specification:URW Chancery L Bold Italic" />
      <path
         d="m 59.215085,204.05242 c -1.6,0 -4.16,1.16 -6.52,2.92 -2.560001,1.91999 -4.360001,6.08 -4.360001,10.04 0,2.43999 1.36,4 3.48,4 1.120001,0 2.240001,-0.40001 4.080001,-1.36 2,-1.12 3.32,-2.12001 4.04,-3.08 1.6,-2.16 2.88,-6.08001 2.88,-8.84 0,-2.16 -1.48,-3.68 -3.6,-3.68 m -2.08,1.88 c 1.6,0 2.6,1.56 2.6,3.96 0,1.67999 -0.56,3.76 -1.56,5.72 -1.12,2.27999 -2.56,3.52 -4.08,3.52 -1.64,0 -2.680001,-1.48001 -2.680001,-3.76 0,-4.64 2.920001,-9.44 5.720001,-9.44"
         id="path2996"
         style="font-style:italic;font-weight:bold;font-family:URW Chancery L;-inkscape-font-specification:URW Chancery L Bold Italic" />
      <path
         d="m 75.390704,215.45242 c -3.03999,1.79999 -4.319999,2.48 -4.879989,2.48 -0.52,0 -1.16,-1.04001 -1.16,-1.88 0,-0.56 0.68,-3.64001 1.72,-7.84 0.55999,-0.04 0.959999,-0.04 1.159999,-0.04 l 1.6,-0.04 c 0.15999,0 0.56,-0.04 1.19999,-0.12 l 1.52,-1.16 -5.119989,0 1.599989,-6.48 c -0.75999,0.39999 -1.079999,0.52 -1.679989,0.8 -0.28,0.15999 -0.60001,0.28 -0.92,0.44 -0.16,0.08 -0.36001,0.16 -0.56,0.24 l -1.12001,5 c -0.35999,0.04 -0.6,0.04 -0.72,0.04 l -0.95999,0 c -0.08,0 -0.28001,0 -0.60001,0.04 -0.43999,0.27999 -0.48,0.28 -1.16,0.84 -0.11999,0.08 -0.32,0.24 -0.59999,0.44 l 0.95999,0 1.84001,0 0.87999,0 c -2.11999,8.87999 -2.11999,8.88 -2.11999,10.12 0,1.27999 0.84,2.68 1.6,2.68 0.87999,0 3.6,-1.68001 7.439989,-4.56 l 0.08,-1"
         id="path2998"
         style="font-style:italic;font-weight:bold;font-family:URW Chancery L;-inkscape-font-specification:URW Chancery L Bold Italic" />
      <path
         d="m 83.363204,200.73242 c 1.16,-1.04 1.24001,-1.12001 2.6,-2.16 -0.23999,-0.48 -0.44,-0.80001 -0.52,-0.92 -0.23999,-0.48 -0.28,-0.52001 -0.6,-1.28 -0.08,-0.16 -0.16,-0.32001 -0.23999,-0.52 -0.2,0.15999 -0.44001,0.32 -0.56,0.44 -0.16,0.15999 -0.48001,0.4 -0.88001,0.72 -0.19999,0.15999 -0.48,0.36 -0.84,0.6 -0.15999,0.11999 -0.32,0.24 -0.48,0.32 0.28,0.87999 0.64001,1.52 1.52,2.8 m 2.76,15.12 c -3.79999,2.03999 -3.88,2.08 -4.4,2.08 -0.43999,0 -0.72,-0.44001 -0.72,-1.12 0,-0.4 0.12001,-1.16001 0.36,-2.04 2.04,-8.4 2.44,-10.00001 2.44,-10.32 0,-0.24 -0.2,-0.4 -0.48,-0.4 -0.67999,0 -3.04,1.32 -6.32,3.52 l -0.08,1.12 c 2.36,-1.28 2.56001,-1.36 2.92,-1.36 0.32,0 0.48,0.24 0.48,0.72 0,0.51999 -0.12,1.08 -0.72,3.36 -1.87999,6.99999 -1.88,7 -1.88,8 0,0.95999 0.40001,1.6 0.96,1.6 0.68,0 1.76001,-0.52001 3.88,-1.88 0.76,-0.48 1.52001,-0.96001 2.28,-1.48 0.36,-0.2 0.72001,-0.44001 1.12,-0.68 l 0.16,-1.12"
         id="path3000"
         style="font-style:italic;font-weight:bold;font-family:URW Chancery L;-inkscape-font-specification:URW Chancery L Bold Italic" />
      <path
         d="m 95.572584,215.33242 c -0.56,0.31999 -0.92,0.56 -1.08,0.64 -2.88,1.79999 -3.2,1.96 -3.76,1.96 -0.36,0 -0.72,-0.48001 -0.72,-1.04 l 0,-0.36 0,-0.36 c 0,-0.72 1.8,-8.48001 3.28,-14.12 1.56,-5.88 1.92,-6.6 3.68,-6.6 0.52,0 0.92,0.04 1.96,0.28 l 1.719996,-2.12 c -0.839996,-0.2 -1.279996,-0.24 -1.799996,-0.24 -1.6,0 -2.88,0.64 -4.8,2.36 -1.76,1.59999 -2.2,2.2 -2.72,3.64 -0.32,0.95999 -1.2,4.2 -1.6,5.96 l -2.88,12.52 c -0.04,0.23999 -0.08,0.48 -0.08,0.72 0,1.19999 0.68,2.44 1.32,2.44 l 0.24,0 0.12,0 c 0.4,0 2.08001,-1.16001 7.12,-4.8 l 0,-0.88"
         id="path3002"
         style="font-style:italic;font-weight:bold;font-family:URW Chancery L;-inkscape-font-specification:URW Chancery L Bold Italic" />
      <path
         d="m 105.18195,215.33242 c -0.55999,0.31999 -0.92,0.56 -1.08,0.64 -2.87999,1.79999 -3.2,1.96 -3.76,1.96 -0.359986,0 -0.719996,-0.48001 -0.719996,-1.04 l 0,-0.36 0,-0.36 c 0,-0.72 1.800006,-8.48001 3.279996,-14.12 1.56,-5.88 1.92001,-6.6 3.68,-6.6 0.52,0 0.92001,0.04 1.96,0.28 l 1.72001,-2.12 c -0.84,-0.2 -1.28001,-0.24 -1.80001,-0.24 -1.59999,0 -2.88,0.64 -4.8,2.36 -1.75999,1.59999 -2.2,2.2 -2.72,3.64 -0.31999,0.95999 -1.199996,4.2 -1.599996,5.96 l -2.88,12.52 c -0.04,0.23999 -0.08,0.48 -0.08,0.72 0,1.19999 0.68001,2.44 1.32,2.44 l 0.24,0 0.12,0 c 0.4,0 2.080006,-1.16001 7.119996,-4.8 l 0,-0.88"
         id="path3004"
         style="font-style:italic;font-weight:bold;font-family:URW Chancery L;-inkscape-font-specification:URW Chancery L Bold Italic" />
      <path
         d="m 105.79133,208.49242 c 1.68,-0.84 2.44,-1.16 2.92,-1.16 0.32,0 0.56,0.32 0.56,0.76 0,0.51999 -0.4,2.24 -1.12,4.96 -1,3.71999 -1.24,4.84 -1.24,6 0,1.11999 0.48,1.96 1.12,1.96 0.6,0 1.32,-0.36001 3.32,-1.68 l 4.12,-2.68 c -0.32,1.27999 -0.56,2.72 -0.56,3.44 0,0.51999 0.32,0.92 0.72,0.92 0.8,0 4.6,-2.24001 7.32,-4.28 l 0.28,-1.2 c -3.12,1.83999 -4.16,2.4 -4.6,2.4 -0.28,0 -0.44,-0.32001 -0.44,-0.96 0,-2.04 1.48,-8.00001 3.2,-13.08 -0.52,0.27999 -0.88,0.48 -1.04,0.56 -0.48,0.23999 -0.96,0.48 -1.48,0.72 -0.12,0.04 -0.36,0.16 -0.8,0.4 -0.24,0.91999 -1.04,4.12 -2.36,9.64 -3.08,2.11999 -4.48,2.92 -4.96,2.92 -0.44,0 -0.76,-0.56001 -0.76,-1.32 0,-0.92 0.32,-2.52001 1,-5.08 0.44,-1.6 0.72,-2.72001 0.84,-3.28 0.36,-1.48 0.64,-2.52001 0.72,-2.8 0.12,-0.44 0.2,-0.80001 0.2,-1.08 0,-0.32 -0.2,-0.52 -0.48,-0.52 -0.4,0 -3.32,1.56 -6.2,3.36 l -0.28,1.08"
         id="path3006"
         style="font-style:italic;font-weight:bold;font-family:URW Chancery L;-inkscape-font-specification:URW Chancery L Bold Italic" />
      <path
         d="m 122.66883,217.17242 c -0.04,0.35999 -0.08,0.68 -0.08,0.92 0,1.71999 1.2,2.92 2.96,2.92 1.24,0 2.96,-0.52001 4.24,-1.24 2.36,-1.36 3.8,-3.40001 3.8,-5.4 0,-1.48 -0.28,-1.80001 -2.52,-3.2 -1.36,-0.88 -1.92,-1.64001 -1.92,-2.68 0,-1.36 1.16,-2.56 2.52,-2.56 0.92,0 1.6,0.44 2.48,1.56 1.36,-1.32 1.36,-1.32001 1.88,-2.08 -0.8,-0.96 -1.56,-1.36 -2.68,-1.36 -2.92,0 -6.68,3.48 -6.68,6.12 0,1.23999 0.64,2.2 2.16,3.28 2,1.39999 2.28,1.76 2.28,2.76 0,1.43999 -1.84,3.12 -3.4,3.12 -0.88,0 -1.56,-0.48001 -1.96,-1.36 -0.28,-0.6 -0.36,-1.20001 -0.4,-2.56 -0.44,0.31999 -0.76,0.52 -0.92,0.64 -0.32,0.19999 -0.68,0.4 -1.04,0.64 l -0.72,0.48"
         id="path3008"
         style="font-style:italic;font-weight:bold;font-family:URW Chancery L;-inkscape-font-specification:URW Chancery L Bold Italic" />
    </g>
  </g>
</svg>
